<?xml version="1.0" encoding="UTF-8" standalone="no"?>
<!DOCTYPE svg PUBLIC "-//W3C//DTD SVG 1.1//EN" "http://www.w3.org/Graphics/SVG/1.1/DTD/svg11.dtd">
<svg width="100%" height="100%" viewBox="0 0 1200 365" version="1.1" xmlns="http://www.w3.org/2000/svg" xmlns:xlink="http://www.w3.org/1999/xlink" xml:space="preserve" xmlns:serif="http://www.serif.com/" style="fill-rule:evenodd;clip-rule:evenodd;stroke-linejoin:round;stroke-miterlimit:2;">
    <g transform="matrix(1,0,0,1,-385.813,-356.941)">
        <g transform="matrix(17.2202,0,0,17.2202,-289.662,-942.313)">
            <path id="path1" d="M53.226,96.387C53.226,96.265 53.277,96.165 53.339,96.165C53.401,96.165 53.508,96.265 53.576,96.387C53.682,96.575 53.665,96.608 53.464,96.608C53.304,96.608 53.226,96.536 53.226,96.387ZM57.595,96.286C57.631,96.231 57.765,96.212 57.894,96.244C58.215,96.324 58.186,96.387 57.828,96.387C57.664,96.387 57.559,96.342 57.595,96.286L57.595,96.286ZM54.623,95.832C54.275,95.469 54.242,95.395 54.413,95.352C54.533,95.322 54.797,95.454 55.059,95.675C55.428,95.985 55.472,96.066 55.327,96.16C55.086,96.315 55.087,96.315 54.623,95.832ZM58.533,95.971C58.561,95.803 58.615,95.479 58.653,95.251C58.69,95.022 58.766,94.835 58.822,94.835C58.877,94.835 58.896,94.741 58.865,94.627C58.796,94.376 59.124,94.336 62.561,94.172C63.813,94.112 65.296,94.032 65.858,93.994C66.719,93.935 66.879,93.95 66.879,94.091C66.879,94.182 66.791,94.289 66.683,94.328C66.512,94.39 66.521,94.421 66.753,94.575C66.938,94.699 67.001,94.829 66.964,95.015C66.904,95.313 66.922,95.323 67.236,95.163C67.531,95.014 67.523,94.876 67.213,94.799C67.041,94.756 66.988,94.681 67.038,94.555C67.079,94.455 67.112,94.278 67.112,94.161C67.112,94.01 67.194,93.948 67.393,93.948C67.61,93.948 67.661,93.995 67.616,94.157C67.584,94.272 67.615,94.4 67.685,94.441C67.755,94.482 67.812,94.441 67.812,94.35C67.812,93.957 68.12,93.869 69.759,93.793C70.645,93.752 72.237,93.67 73.296,93.611C74.355,93.551 77.165,93.404 79.539,93.283C86.086,92.951 87.821,92.861 95.759,92.449C97.491,92.359 99.165,92.285 99.478,92.285C99.997,92.285 100.032,92.302 99.886,92.472C99.743,92.639 99.751,92.649 99.959,92.565C100.088,92.513 100.324,92.475 100.484,92.479C100.645,92.484 100.833,92.442 100.903,92.388C101.071,92.255 102.443,92.095 104.116,92.012C105.454,91.946 105.474,91.949 105.561,92.198L105.648,92.451L105.699,92.209C105.732,92.05 105.866,91.943 106.091,91.896C106.279,91.857 106.543,91.691 106.678,91.528C106.948,91.202 106.949,91.427 106.665,85.967C106.607,84.839 106.504,82.793 106.438,81.422C106.287,78.314 106.251,78.051 105.917,77.683L105.648,77.385L102.687,77.518C101.058,77.59 96.785,77.798 93.191,77.978C85.958,78.34 83.722,78.433 84.126,78.353C84.387,78.302 84.389,78.29 84.205,78.023C84.027,77.764 84.027,77.73 84.208,77.54C84.315,77.427 84.503,77.342 84.626,77.351C84.86,77.368 84.907,77.449 84.761,77.588C84.643,77.7 84.638,78.207 84.755,78.207C84.841,78.207 84.859,78.157 84.897,77.81C84.928,77.533 85.544,76.987 85.827,76.987C85.988,76.987 86.171,76.901 86.234,76.794C86.414,76.489 86.526,76.716 86.578,77.491C86.604,77.884 86.673,78.207 86.731,78.207C86.789,78.207 86.812,78.095 86.783,77.957C86.753,77.82 86.696,77.392 86.657,77.005L86.585,76.302L87.088,76.34C87.364,76.361 87.629,76.428 87.676,76.489C87.729,76.557 87.763,76.547 87.764,76.461C87.765,76.385 87.821,76.322 87.889,76.322C87.957,76.322 87.98,76.372 87.941,76.433C87.901,76.494 87.946,76.544 88.041,76.544C88.135,76.544 88.234,76.485 88.259,76.413C88.291,76.321 89.395,76.223 91.915,76.088C104.607,75.406 105.789,75.36 105.905,75.539C105.959,75.622 105.893,75.742 105.736,75.847C105.38,76.084 105.615,76.194 106.275,76.098C106.746,76.031 106.816,76.048 106.898,76.255C106.969,76.436 106.941,76.497 106.771,76.524C106.651,76.543 106.552,76.627 106.552,76.71C106.552,76.793 106.486,76.882 106.406,76.91C106.326,76.937 106.399,76.943 106.569,76.923C106.84,76.891 106.888,76.934 106.954,77.27C106.995,77.48 107.078,77.653 107.138,77.653C107.198,77.653 107.214,77.808 107.174,77.998L107.101,78.343L107.648,78.301C108.122,78.265 108.201,78.29 108.241,78.483C108.29,78.719 108.558,83.653 108.784,88.461C108.886,90.626 108.886,91.456 108.786,91.798C108.486,92.822 107.327,93.741 106.304,93.767C106.056,93.773 105.852,93.816 105.852,93.863C105.852,93.982 105.296,93.97 105.218,93.849C105.133,93.718 105.454,93.605 105.677,93.686C105.788,93.727 105.852,93.685 105.852,93.572C105.852,93.457 105.751,93.394 105.568,93.394C105.191,93.394 105.034,92.974 105.333,92.766C105.449,92.686 105.509,92.587 105.467,92.548C105.425,92.508 105.311,92.538 105.213,92.616C105.066,92.731 105.035,92.724 105.035,92.576C105.035,92.345 104.978,92.349 104.375,92.626C103.913,92.839 103.854,92.843 103.612,92.682C103.159,92.38 103.013,92.451 103.115,92.923C103.165,93.151 103.214,93.503 103.225,93.704C103.245,94.059 103.233,94.069 102.829,94.037C102.542,94.014 102.4,93.943 102.373,93.809C102.346,93.674 102.409,93.615 102.583,93.615C102.72,93.615 102.799,93.566 102.76,93.505C102.72,93.444 102.586,93.394 102.461,93.394C102.287,93.394 102.235,93.471 102.235,93.726C102.235,94.008 102.19,94.059 101.939,94.059C101.674,94.059 101.657,94.035 101.775,93.824C101.875,93.648 101.874,93.608 101.774,93.667C101.701,93.71 101.565,93.685 101.471,93.611C101.33,93.5 101.301,93.526 101.301,93.766C101.301,94.139 101.288,94.141 98.442,94.282C97.159,94.345 95.19,94.445 94.067,94.504C92.943,94.562 88.585,94.786 84.382,95.001C76.969,95.38 74.712,95.497 70.555,95.715C68.332,95.831 68.233,95.806 68.093,95.096C67.99,94.575 67.842,94.534 67.857,95.032C67.869,95.401 67.84,95.445 67.579,95.445C67.386,95.445 67.265,95.52 67.224,95.666C67.166,95.868 67.026,95.895 65.707,95.962C64.907,96.003 63.229,96.09 61.978,96.155C60.726,96.221 59.428,96.275 59.093,96.275C58.493,96.276 58.484,96.271 58.533,95.971L58.533,95.971ZM69.008,95.427C68.928,95.396 68.797,95.396 68.716,95.427C68.636,95.457 68.702,95.482 68.862,95.482C69.023,95.482 69.088,95.457 69.008,95.427ZM101.526,93.2C101.521,93.154 101.446,92.942 101.36,92.729L101.202,92.341L101.193,92.747C101.188,92.971 101.119,93.179 101.039,93.209C100.958,93.24 101.038,93.269 101.214,93.274C101.39,93.279 101.53,93.245 101.526,93.2L101.526,93.2ZM102.236,93.144C102.237,93.068 102.268,92.881 102.305,92.729L102.371,92.451L102.14,92.722C102.013,92.87 101.935,93.057 101.968,93.137C102.042,93.322 102.234,93.327 102.236,93.144L102.236,93.144ZM106.786,92.882C106.786,92.79 106.733,92.746 106.669,92.784C106.605,92.822 106.552,92.927 106.552,93.019C106.552,93.11 106.605,93.154 106.669,93.117C106.733,93.079 106.786,92.973 106.786,92.882ZM100.951,92.839C100.951,92.778 100.896,92.729 100.828,92.729C100.76,92.729 100.736,92.778 100.776,92.839C100.816,92.9 100.871,92.95 100.9,92.95C100.928,92.95 100.951,92.9 100.951,92.839ZM107.495,92.795C107.391,92.675 107.394,92.626 107.51,92.582C107.593,92.55 107.484,92.52 107.269,92.516L106.876,92.507L107.152,92.725C107.471,92.977 107.694,93.023 107.495,92.795L107.495,92.795ZM106.552,92.507C106.324,92.367 106.169,92.367 106.26,92.507C106.3,92.568 106.421,92.617 106.53,92.616C106.7,92.615 106.703,92.599 106.552,92.507L106.552,92.507ZM85.619,77.783C85.776,77.808 85.851,77.744 85.878,77.563L85.917,77.307L85.509,77.561C85.285,77.7 85.13,77.858 85.164,77.912C85.199,77.965 85.266,77.95 85.313,77.878C85.36,77.805 85.498,77.763 85.619,77.783L85.619,77.783ZM107.019,77.936C107.019,77.909 106.966,77.857 106.902,77.819C106.838,77.781 106.786,77.803 106.786,77.868C106.786,77.932 106.838,77.985 106.902,77.985C106.966,77.985 107.019,77.963 107.019,77.936L107.019,77.936ZM106.786,76.322C106.786,76.261 106.641,76.212 106.465,76.213C106.215,76.214 106.182,76.239 106.319,76.322C106.547,76.462 106.786,76.462 106.786,76.322ZM55.843,95.558C55.677,95.317 55.675,95.264 55.825,95.122C55.975,94.979 56.012,94.993 56.128,95.235C56.406,95.814 56.189,96.06 55.843,95.558L55.843,95.558ZM56.61,95.756C56.61,95.7 56.687,95.556 56.781,95.438C56.925,95.257 56.953,95.252 56.956,95.403C56.958,95.502 56.881,95.646 56.785,95.722C56.689,95.798 56.61,95.813 56.61,95.756ZM67.929,95.722C67.929,95.661 67.978,95.611 68.039,95.611C68.099,95.611 68.181,95.661 68.22,95.722C68.26,95.783 68.211,95.832 68.111,95.832C68.011,95.832 67.929,95.783 67.929,95.722ZM53.109,95.278C53.109,95.217 53.165,95.167 53.233,95.167C53.301,95.167 53.324,95.217 53.285,95.278C53.245,95.339 53.189,95.389 53.161,95.389C53.133,95.389 53.109,95.339 53.109,95.278ZM57.028,95.11C56.839,94.974 56.825,94.907 56.938,94.67C57.093,94.347 57.587,94.286 57.754,94.57C57.85,94.734 57.865,94.734 57.931,94.57C58.015,94.361 58.492,94.323 58.425,94.53C58.4,94.606 58.348,94.806 58.31,94.973C58.246,95.248 58.191,95.278 57.746,95.275C57.474,95.273 57.151,95.199 57.028,95.11L57.028,95.11ZM44.904,94.936C41.539,94.025 39.234,91.09 39.226,87.708C39.221,85.525 40.065,83.614 41.693,82.127C42.28,81.59 43.308,80.899 43.308,81.04C43.308,81.076 43.388,81.029 43.486,80.935C43.584,80.842 43.746,80.796 43.846,80.832C43.946,80.868 43.983,80.929 43.928,80.966C43.873,81.003 43.764,81.183 43.686,81.366L43.543,81.699L43.805,81.378C44.48,80.552 44.402,80.593 44.557,80.981C44.674,81.276 44.669,81.32 44.527,81.268C44.43,81.233 44.358,81.272 44.358,81.358C44.358,81.441 44.437,81.537 44.533,81.572C44.873,81.696 44.7,81.964 44.052,82.316C43.236,82.759 42.17,83.743 41.733,84.457C41.095,85.496 40.846,86.349 40.842,87.51C40.836,89.432 41.346,90.662 42.674,91.928C43.315,92.539 43.742,92.833 44.435,93.144C45.342,93.551 45.362,93.554 46.867,93.556C48.324,93.559 48.413,93.545 49.142,93.216C50.959,92.393 52.17,91.092 52.733,89.358C52.949,88.692 52.978,86.69 52.781,86.033C52.645,85.579 52.634,85.604 53.349,84.775C53.415,84.699 53.574,84.636 53.702,84.636C53.896,84.636 53.914,84.672 53.814,84.851C53.644,85.151 53.656,85.183 53.985,85.301C54.145,85.359 54.276,85.479 54.276,85.567C54.276,85.655 54.312,85.818 54.354,85.93C54.426,86.116 54.41,86.114 54.162,85.911L53.892,85.689L54.01,85.911C54.123,86.124 54.089,86.403 53.936,86.521C53.799,86.625 53.567,87.214 53.637,87.28C53.702,87.342 53.871,87.151 53.966,86.909C54.016,86.78 54.51,87.165 54.51,87.333C54.51,87.395 54.419,87.541 54.307,87.658C54.114,87.861 54.115,87.878 54.323,88.023C54.508,88.151 54.529,88.262 54.462,88.744C54.101,91.323 52.369,93.508 49.808,94.611C48.444,95.198 46.378,95.335 44.904,94.936L44.904,94.936ZM53.481,86.608C53.397,86.528 53.343,86.522 53.343,86.591C53.343,86.739 53.481,86.87 53.559,86.796C53.592,86.765 53.557,86.68 53.481,86.608L53.481,86.608ZM55.959,94.599C55.878,94.475 56.269,94.476 56.477,94.601C56.588,94.668 56.545,94.696 56.329,94.696C56.16,94.696 55.994,94.653 55.959,94.599ZM104.319,93.865C104.225,93.387 104.273,92.95 104.419,92.95C104.52,92.95 104.577,93.048 104.564,93.2C104.529,93.604 104.561,93.726 104.698,93.726C104.772,93.726 104.794,93.645 104.749,93.532C104.688,93.38 104.702,93.367 104.813,93.472C104.925,93.577 104.923,93.643 104.806,93.777C104.651,93.955 104.348,94.01 104.319,93.865L104.319,93.865ZM57.418,91.414C57.382,91.141 57.491,89.5 57.758,86.244L58.069,82.475L59.687,82.382C60.577,82.332 61.348,82.332 61.401,82.382C61.496,82.473 63.301,91.07 63.236,91.121C63.218,91.136 62.695,91.182 62.073,91.224L60.944,91.3L60.871,90.767C60.728,89.724 60.735,89.736 60.225,89.736L59.761,89.736L59.761,90.515C59.761,91.042 59.713,91.309 59.615,91.338C59.342,91.419 57.427,91.485 57.418,91.414L57.418,91.414ZM60.541,87.934C60.507,87.797 60.39,87.036 60.28,86.244C60.011,84.303 59.928,84.148 59.833,85.416C59.79,85.993 59.723,86.852 59.684,87.324L59.614,88.184L60.108,88.184C60.562,88.184 60.598,88.163 60.541,87.934ZM63.811,90.774C63.69,89.999 63.331,82.316 63.413,82.238C63.458,82.196 64.299,82.138 65.283,82.11C67.336,82.051 67.735,82.151 68.182,82.838C68.406,83.182 68.446,83.431 68.491,84.774C68.529,85.903 68.502,86.387 68.392,86.583C68.191,86.939 67.444,87.263 66.604,87.359L65.922,87.436L66.09,91.066L65.509,91.066C65.189,91.066 64.692,91.097 64.403,91.134L63.879,91.202L63.811,90.774ZM66.539,85.615C66.695,85.339 66.611,84.102 66.412,83.75C66.279,83.514 65.893,83.45 65.766,83.644C65.725,83.708 65.728,84.232 65.773,84.808C65.853,85.811 65.868,85.856 66.13,85.856C66.291,85.856 66.459,85.757 66.539,85.615L66.539,85.615ZM45.583,90.733C45.544,90.672 45.54,90.578 45.575,90.524C45.61,90.47 45.534,90.4 45.407,90.368C45.279,90.337 45.175,90.365 45.175,90.43C45.175,90.496 45.043,90.433 44.883,90.29C44.723,90.147 44.591,89.994 44.591,89.951C44.591,89.813 45.045,89.754 45.095,89.886C45.121,89.956 45.184,89.976 45.234,89.932C45.344,89.835 45.069,89.494 44.941,89.569C44.892,89.598 44.787,89.549 44.709,89.459C44.591,89.325 44.615,89.279 44.841,89.199C44.993,89.146 45.195,89.074 45.291,89.04C45.41,88.997 45.384,88.974 45.212,88.968C45.071,88.964 44.824,89.008 44.661,89.066C44.325,89.188 44.224,89.1 44.317,88.765C44.356,88.622 44.445,88.555 44.544,88.591C44.643,88.627 44.708,88.58 44.708,88.473C44.708,88.375 44.787,88.294 44.883,88.294C45.081,88.294 45.118,88.121 44.941,88.017C44.779,87.922 44.795,87.518 44.961,87.518C45.036,87.518 45.068,87.491 45.033,87.458C44.998,87.424 44.83,87.43 44.66,87.471C44.377,87.538 44.368,87.556 44.554,87.686C44.726,87.805 44.734,87.854 44.602,88.005C44.445,88.184 44.059,88.263 44.17,88.093C44.202,88.043 44.157,87.806 44.07,87.567C43.96,87.263 43.949,87.088 44.033,86.992C44.117,86.895 44.113,86.853 44.022,86.853C43.95,86.853 43.891,86.676 43.891,86.454C43.891,85.575 44.654,84.709 45.374,84.769C45.845,84.808 45.987,85.012 46.293,86.077C46.547,86.967 46.769,87.408 46.962,87.408C47.206,87.408 48.086,86.465 49.911,84.248C50.865,83.09 51.9,81.905 52.21,81.616C53.138,80.75 53.56,80.946 53.435,82.183C53.372,82.798 53.163,83.111 50.673,86.299C48.681,88.85 47.392,90.314 46.868,90.622C46.47,90.856 45.706,90.922 45.583,90.733L45.583,90.733ZM45.642,90.179C45.642,90.118 45.589,90.068 45.525,90.068C45.461,90.068 45.408,90.118 45.408,90.179C45.408,90.24 45.461,90.29 45.525,90.29C45.589,90.29 45.642,90.24 45.642,90.179ZM69.634,90.219C69.518,89.154 69.178,81.972 69.24,81.912C69.272,81.882 70.081,81.827 71.038,81.79C72.631,81.727 72.823,81.741 73.32,81.95C74.079,82.269 74.242,82.621 74.355,84.187C74.446,85.448 74.412,85.95 74.209,86.326C74.05,86.623 73.271,86.952 72.536,87.034C72.173,87.075 71.851,87.169 71.821,87.243C71.791,87.317 71.812,88.121 71.868,89.028C71.924,89.935 71.966,90.685 71.962,90.694C71.958,90.703 71.448,90.746 70.83,90.79L69.705,90.869L69.634,90.219ZM72.246,85.412C72.716,84.966 72.489,83.368 71.937,83.237C71.78,83.199 71.628,83.191 71.599,83.219C71.57,83.247 71.58,83.801 71.622,84.452C71.703,85.716 71.788,85.847 72.246,85.412L72.246,85.412ZM75.47,89.554C75.344,87.907 75.036,81.616 75.08,81.575C75.102,81.554 76.01,81.526 77.096,81.515C78.76,81.496 79.132,81.523 79.45,81.681C79.987,81.948 80.292,82.587 80.376,83.622C80.469,84.769 80.301,85.265 79.746,85.485L79.337,85.648L79.726,85.846C80.429,86.204 80.518,86.424 80.646,88.128C80.825,90.514 80.934,90.245 79.755,90.331C79.2,90.371 78.719,90.379 78.687,90.349C78.655,90.318 78.585,89.552 78.533,88.646C78.481,87.74 78.387,86.871 78.325,86.714C78.217,86.444 77.788,86.207 77.648,86.34C77.613,86.374 77.638,87.289 77.704,88.373C77.77,89.458 77.801,90.368 77.772,90.396C77.744,90.424 77.232,90.467 76.633,90.491L75.546,90.537L75.47,89.554ZM78.037,84.884C78.234,84.761 78.343,84.133 78.254,83.632C78.162,83.112 77.676,82.7 77.49,82.982C77.397,83.124 77.449,84.484 77.561,84.83C77.611,84.984 77.835,85.009 78.037,84.884L78.037,84.884ZM83.397,90.165C82.761,90.024 82.177,89.569 81.919,89.015C81.661,88.46 81.49,86.761 81.446,84.304C81.417,82.658 81.428,82.565 81.701,82.104C81.88,81.803 82.185,81.511 82.513,81.328C82.984,81.065 83.158,81.034 84.156,81.034C85.145,81.034 85.32,81.064 85.684,81.301C86.257,81.673 86.589,82.178 86.72,82.876C86.781,83.204 86.861,84.645 86.898,86.077C86.964,88.66 86.962,88.686 86.693,89.122C86.157,89.988 84.688,90.453 83.397,90.165ZM84.617,88.68C84.875,88.384 84.53,82.575 84.245,82.407C84.166,82.361 84.002,82.375 83.878,82.438C83.665,82.546 83.658,82.649 83.737,84.509C83.834,86.814 83.979,88.567 84.086,88.732C84.195,88.9 84.446,88.876 84.617,88.68L84.617,88.68ZM88.08,85.47C87.58,83.046 87.198,81.037 87.233,81.004C87.267,80.971 87.81,80.921 88.438,80.892L89.581,80.84L89.773,81.99C89.879,82.622 90.085,83.955 90.23,84.951C90.38,85.973 90.529,86.673 90.573,86.558C90.616,86.446 90.689,85.207 90.734,83.805C90.78,82.403 90.844,81.149 90.876,81.018C90.929,80.804 91.042,80.774 92.042,80.703C92.651,80.659 93.173,80.647 93.203,80.675C93.257,80.726 93.048,83.716 92.722,87.566C92.609,88.9 92.505,89.583 92.406,89.643C92.325,89.692 91.99,89.733 91.663,89.734C91.336,89.735 90.601,89.767 90.03,89.806L88.991,89.876L88.08,85.47ZM94.256,89.387C94.226,89.243 94.144,87.904 94.075,86.41C94.006,84.916 93.915,83.012 93.874,82.179L93.799,80.664L94.312,80.605C94.594,80.572 95.461,80.519 96.239,80.486L97.652,80.427L97.731,81.157C97.83,82.079 97.738,82.198 96.918,82.198C96.577,82.198 96.267,82.244 96.231,82.3C96.194,82.357 96.198,82.756 96.241,83.187L96.317,83.971L97.801,83.971L97.801,84.456C97.801,84.723 97.833,85.094 97.872,85.282L97.944,85.623L96.459,85.689L96.424,86.559C96.379,87.711 96.448,87.786 97.466,87.691L98.249,87.618L98.326,89.378L96.809,89.451C95.974,89.49 95.071,89.551 94.801,89.586C94.355,89.643 94.306,89.625 94.256,89.387L94.256,89.387ZM99.084,89.062C99.084,88.917 99.006,87.35 98.91,85.581C98.647,80.693 98.644,80.43 98.857,80.366C98.956,80.337 99.875,80.3 100.899,80.285C102.586,80.26 102.803,80.279 103.219,80.486C103.485,80.619 103.767,80.878 103.889,81.102C104.152,81.583 104.329,83.499 104.366,86.284L104.393,88.288L104.039,88.626C103.611,89.034 103.052,89.139 100.709,89.249L99.084,89.325L99.084,89.062ZM101.935,87.566C102.155,87.357 102.159,87.086 101.99,84.207C101.912,82.862 101.811,81.983 101.728,81.905C101.654,81.835 101.466,81.742 101.312,81.697L101.03,81.617L101.108,83.376C101.287,87.426 101.318,87.74 101.544,87.74C101.658,87.74 101.834,87.662 101.935,87.566L101.935,87.566ZM54.204,86.692C54.124,86.493 54.254,86.273 54.401,86.359C54.549,86.446 54.539,86.853 54.389,86.853C54.323,86.853 54.24,86.781 54.204,86.692L54.204,86.692ZM54.51,82.967C54.51,82.902 54.562,82.88 54.626,82.918C54.691,82.956 54.743,83.009 54.743,83.035C54.743,83.062 54.691,83.084 54.626,83.084C54.562,83.084 54.51,83.032 54.51,82.967ZM49.142,82.083C48.589,81.81 47.281,81.608 46.442,81.666C45.977,81.698 45.793,81.677 45.873,81.601C45.938,81.539 45.992,81.389 45.992,81.267C45.992,81.055 45.986,81.054 45.834,81.251C45.736,81.379 45.649,81.411 45.601,81.338C45.559,81.273 45.423,81.246 45.299,81.277C45.12,81.321 45.086,81.287 45.135,81.112C45.172,80.978 45.341,80.858 45.564,80.807C45.879,80.735 45.896,80.716 45.677,80.677C45.536,80.652 45.311,80.687 45.178,80.755C44.907,80.892 44.708,80.822 44.708,80.588C44.708,80.311 45.613,80.179 47.211,80.224C48.609,80.263 48.81,80.296 49.667,80.629C50.181,80.829 50.642,81.03 50.692,81.077C50.805,81.183 49.873,82.313 49.686,82.296C49.612,82.29 49.367,82.194 49.142,82.083L49.142,82.083ZM44.893,81.683C44.852,81.583 44.847,81.475 44.88,81.443C44.914,81.411 44.941,81.417 44.941,81.456C44.941,81.495 45.073,81.479 45.233,81.422C45.48,81.332 45.525,81.348 45.525,81.523C45.525,81.71 45.314,81.865 45.061,81.865C45.009,81.865 44.933,81.783 44.893,81.683L44.893,81.683ZM52.351,79.98C52.391,79.919 52.522,79.87 52.643,79.87C52.929,79.87 53.016,79.722 53.016,79.237C53.016,78.752 53.506,78.235 53.768,78.442C53.876,78.527 53.926,78.529 53.926,78.449C53.926,78.384 53.868,78.297 53.797,78.255C53.588,78.132 53.93,77.989 54.435,77.987C54.789,77.985 54.87,78.021 54.817,78.153C54.763,78.287 54.813,78.306 55.067,78.247C55.242,78.206 55.419,78.123 55.46,78.063C55.502,78.003 55.639,77.979 55.765,78.01C55.891,78.042 56.277,78.027 56.623,77.977C57.388,77.868 62.796,77.571 77.672,76.819C79.533,76.725 81.922,76.604 82.981,76.55C84.04,76.497 84.953,76.495 85.01,76.546C85.066,76.598 85.079,76.724 85.038,76.826C84.968,76.997 84.941,76.998 84.676,76.833C84.302,76.6 84.306,76.599 84.221,77C84.166,77.262 84.098,77.333 83.941,77.294C83.826,77.266 83.667,77.31 83.586,77.392C83.466,77.514 83.482,77.542 83.677,77.542C83.96,77.542 83.968,77.614 83.746,78.12L83.577,78.504L81.85,78.578C80.9,78.618 79.23,78.7 78.139,78.759C77.048,78.818 75.131,78.919 73.88,78.983C72.628,79.047 70.685,79.147 69.562,79.205C68.439,79.263 65.472,79.411 62.97,79.534C60.467,79.656 58.225,79.777 57.987,79.802C57.733,79.828 57.469,79.785 57.345,79.696C57.23,79.612 57.011,79.543 56.859,79.541C56.619,79.538 56.59,79.494 56.636,79.201C56.67,78.981 56.648,78.903 56.573,78.974C56.497,79.046 56.38,79.044 56.232,78.969C56.108,78.906 55.98,78.879 55.948,78.909C55.916,78.94 56.002,79.022 56.139,79.091C56.276,79.161 56.437,79.34 56.496,79.488C56.572,79.678 56.701,79.763 56.928,79.774C57.244,79.79 53.434,80.065 52.665,80.083C52.435,80.088 52.308,80.046 52.351,79.98L52.351,79.98ZM54.218,79.648C54.178,79.587 54.083,79.538 54.007,79.539C53.923,79.54 53.938,79.583 54.043,79.648C54.267,79.786 54.308,79.786 54.218,79.648L54.218,79.648ZM58.357,78.927C58.357,78.866 58.306,78.891 58.244,78.983C58.182,79.074 58.131,79.199 58.131,79.26C58.131,79.321 58.181,79.296 58.244,79.204C58.306,79.113 58.357,78.988 58.357,78.927ZM58.796,78.694C58.757,78.657 58.656,78.653 58.572,78.685C58.479,78.721 58.506,78.747 58.642,78.752C58.765,78.757 58.834,78.731 58.796,78.694L58.796,78.694ZM52.31,79.549C52.185,79.474 52.18,79.404 52.289,79.211C52.399,79.017 52.459,78.995 52.593,79.1C52.966,79.394 52.715,79.793 52.31,79.549L52.31,79.549ZM107.521,77.692C107.415,77.651 107.413,77.571 107.511,77.368C107.655,77.066 107.534,76.846 107.364,77.101C107.305,77.191 107.251,77.215 107.245,77.154C107.233,77.03 107.183,76.76 107.084,76.277C107.017,75.954 107.018,75.954 107.264,76.166C107.594,76.45 107.952,77.134 107.952,77.482C107.952,77.751 107.829,77.811 107.521,77.692L107.521,77.692ZM85.198,76.657C85.198,76.597 85.343,76.518 85.519,76.481C85.696,76.445 85.909,76.394 85.992,76.37C86.076,76.345 86.112,76.374 86.073,76.434C86.034,76.495 85.903,76.544 85.782,76.544C85.661,76.544 85.53,76.594 85.49,76.655C85.397,76.797 85.198,76.799 85.198,76.657L85.198,76.657Z" style="fill:rgb(9,0,255);fill-rule:nonzero;"/>
        </g>
    </g>
</svg>
