<?xml version="1.0" encoding="UTF-8" standalone="no"?>
<!DOCTYPE svg PUBLIC "-//W3C//DTD SVG 1.1//EN" "http://www.w3.org/Graphics/SVG/1.1/DTD/svg11.dtd">
<svg width="100%" height="100%" viewBox="0 0 1998 176" version="1.1" xmlns="http://www.w3.org/2000/svg" xmlns:xlink="http://www.w3.org/1999/xlink" xml:space="preserve" xmlns:serif="http://www.serif.com/" style="fill-rule:evenodd;clip-rule:evenodd;stroke-linejoin:round;stroke-miterlimit:2;">
    <g transform="matrix(1,0,0,1,-264.444,-743.087)">
        <g transform="matrix(3.77953,0,0,3.77953,789.095,19.8527)">
            <g id="g1">
                <path id="path1" d="M-138.814,237.732C-138.814,237.618 -138.383,236.624 -137.856,235.524C-133.443,226.317 -132.199,223.633 -132.199,223.323C-132.199,223.186 -132.08,223.074 -131.935,223.074C-131.789,223.074 -131.67,222.943 -131.67,222.783C-131.67,222.624 -131.194,221.493 -130.612,220.27C-130.03,219.047 -129.077,217.047 -128.495,215.824C-127.913,214.601 -127.437,213.47 -127.437,213.311C-127.437,212.844 -127.06,212.967 -125.891,213.814C-125.289,214.25 -124.694,214.607 -124.57,214.607C-124.445,214.607 -124.128,214.846 -123.865,215.137C-123.601,215.428 -123.226,215.666 -123.03,215.666C-122.834,215.666 -122.674,215.773 -122.674,215.904C-122.674,216.035 -122.257,216.389 -121.748,216.689C-121.239,216.99 -120.822,217.38 -120.822,217.558C-120.822,217.981 -122.659,222.026 -122.967,222.28C-123.055,222.353 -123.28,222.889 -123.468,223.471C-123.656,224.053 -123.881,224.589 -123.969,224.662C-124.179,224.835 -124.607,225.741 -126.636,230.304C-127.369,231.952 -127.268,232.485 -126.239,232.409C-125.806,232.376 -123.131,232.228 -120.293,232.078C-117.455,231.928 -114.241,231.688 -113.149,231.544C-112.058,231.4 -109.796,231.162 -108.122,231.016C-106.449,230.869 -104.365,230.625 -103.492,230.474C-102.619,230.322 -100.714,230.026 -99.259,229.816C-97.803,229.605 -96.375,229.318 -96.084,229.178C-95.793,229.037 -94.84,228.791 -93.967,228.63C-93.094,228.47 -92.141,228.232 -91.85,228.101C-91.559,227.971 -90.379,227.678 -89.228,227.451C-88.077,227.223 -87.005,226.933 -86.847,226.806C-86.688,226.679 -86.142,226.488 -85.633,226.381C-85.123,226.275 -84.409,226.032 -84.045,225.842C-83.681,225.652 -82.834,225.246 -82.163,224.941C-79.759,223.846 -76.108,220.998 -76.108,220.217C-76.108,220.042 -76.011,219.899 -75.894,219.899C-75.506,219.899 -74.785,217.888 -74.785,216.805C-74.785,214.07 -78.635,209.684 -83.557,206.813C-85.255,205.823 -91.735,202.701 -92.092,202.701C-92.193,202.701 -92.78,202.472 -93.395,202.191C-94.011,201.911 -94.867,201.597 -95.299,201.493C-95.731,201.39 -96.203,201.22 -96.348,201.115C-96.494,201.011 -97.206,200.78 -97.932,200.603C-98.658,200.426 -99.372,200.186 -99.52,200.07C-99.667,199.955 -100.443,199.707 -101.243,199.52C-102.043,199.333 -102.877,199.081 -103.095,198.961C-103.49,198.743 -104.879,198.346 -108.651,197.375C-109.743,197.094 -110.874,196.755 -111.165,196.622C-111.456,196.489 -112.408,196.235 -113.281,196.057C-114.155,195.88 -114.988,195.649 -115.134,195.544C-115.279,195.439 -116.287,195.206 -117.374,195.025C-118.46,194.844 -119.532,194.594 -119.755,194.469C-119.978,194.344 -121.113,194.071 -122.277,193.862C-124.775,193.414 -126.463,192.97 -125.717,192.956C-124.586,192.936 -115.682,194.54 -111.562,195.508C-106.29,196.745 -105.582,196.924 -105.079,197.147C-104.788,197.275 -103.836,197.526 -102.963,197.703C-102.09,197.881 -101.256,198.11 -101.111,198.212C-100.965,198.315 -100.191,198.544 -99.391,198.721C-98.59,198.898 -97.578,199.199 -97.142,199.39C-96.705,199.58 -95.843,199.818 -95.225,199.919C-94.607,200.019 -94.043,200.197 -93.971,200.314C-93.898,200.431 -92.975,200.736 -91.919,200.993C-90.862,201.249 -89.939,201.539 -89.866,201.637C-89.793,201.734 -89.138,201.973 -88.411,202.167C-87.683,202.36 -86.969,202.604 -86.823,202.708C-86.678,202.812 -86.082,203.047 -85.5,203.23C-84.918,203.414 -84.323,203.652 -84.177,203.76C-84.032,203.867 -83.436,204.107 -82.854,204.293C-82.272,204.478 -81.737,204.702 -81.664,204.79C-81.591,204.878 -80.639,205.405 -79.547,205.96C-78.456,206.515 -77.086,207.256 -76.504,207.607C-75.922,207.957 -75.09,208.443 -74.654,208.687C-73.277,209.459 -70.37,211.902 -69.429,213.078C-67.472,215.524 -67.244,216.112 -67.244,218.708C-67.244,220.779 -67.329,221.227 -67.896,222.138C-68.254,222.715 -68.745,223.385 -68.987,223.627C-69.229,223.868 -69.471,224.172 -69.526,224.302C-69.667,224.638 -71.989,226.493 -73.004,227.08C-73.889,227.593 -76.869,229.047 -78.489,229.758C-78.998,229.981 -80.427,230.486 -81.664,230.879C-82.901,231.273 -84.123,231.703 -84.379,231.836C-84.636,231.97 -85.707,232.256 -86.76,232.473C-87.814,232.689 -88.913,232.977 -89.204,233.112C-89.795,233.385 -92.939,234.017 -96.745,234.628C-98.127,234.85 -99.442,235.124 -99.667,235.238C-99.891,235.352 -101.796,235.587 -103.9,235.76C-106.004,235.932 -107.973,236.173 -108.275,236.295C-108.578,236.416 -111.078,236.65 -113.832,236.815C-116.585,236.98 -119.374,237.223 -120.028,237.355C-121.556,237.662 -138.814,238.009 -138.814,237.732ZM135.295,232.315C131.579,231.654 127.374,228.223 126.67,225.279C126.571,224.867 126.404,224.41 126.298,224.265C126.193,224.119 126.034,223.018 125.946,221.818C125.748,219.116 126.358,215.48 127.276,213.895C128.06,212.541 130.902,209.837 132.14,209.267C132.638,209.037 133.462,208.662 133.972,208.432C136.147,207.452 141.183,207.234 145.216,207.946L146.275,208.133L146.35,210.709C146.422,213.153 146.312,213.574 145.732,213.063C145.594,212.941 144.707,212.565 143.761,212.228C141.411,211.389 138.748,211.384 136.98,212.214C134.715,213.277 132.92,214.88 132.374,216.327C132.21,216.764 131.966,217.328 131.833,217.58C131.53,218.154 131.512,222.085 131.81,222.426C131.931,222.564 132.171,223.174 132.344,223.781C132.737,225.164 134.871,227.163 136.444,227.621C138.252,228.148 142.052,228 143.894,227.331C144.767,227.013 145.689,226.686 145.944,226.603C146.36,226.467 146.407,226.678 146.407,228.692L146.407,230.931L145.415,231.365C144.869,231.603 143.887,231.917 143.232,232.063C141.432,232.464 136.936,232.607 135.295,232.315L135.295,232.315ZM-62.815,220.098L-62.746,207.861L-56.316,207.889C-52.518,207.907 -49.648,208.03 -49.305,208.191C-48.985,208.341 -48.187,208.609 -47.533,208.787C-44.946,209.488 -42.275,211.804 -41.167,214.306C-40.429,215.972 -40.131,218.647 -40.408,221.119C-40.617,222.981 -40.818,223.648 -41.795,225.72C-42.357,226.913 -45.233,229.555 -46.739,230.261C-50.105,231.841 -52.998,232.314 -59.375,232.327L-62.884,232.334L-62.815,220.098ZM-50.329,227.024C-49.007,226.363 -47.003,224.399 -47.003,223.764C-47.003,223.554 -46.856,223.334 -46.676,223.274C-46.449,223.198 -46.319,222.222 -46.251,220.08C-46.162,217.297 -46.21,216.885 -46.74,215.868C-47.473,214.461 -48.163,213.763 -49.517,213.058C-50.863,212.357 -54.073,211.897 -56.054,212.121L-57.587,212.295L-57.587,227.91L-54.58,227.778C-52.129,227.67 -51.343,227.53 -50.329,227.024ZM-24.287,232.054C-24.524,231.922 -25.216,230.651 -25.826,229.23C-26.436,227.809 -27.097,226.289 -27.296,225.852C-27.494,225.416 -27.911,224.463 -28.222,223.736C-28.533,223.008 -28.957,222.097 -29.164,221.71C-29.371,221.324 -29.541,220.818 -29.541,220.586C-29.541,220.354 -29.636,220.164 -29.752,220.164C-29.869,220.164 -30.11,219.759 -30.289,219.264C-30.468,218.769 -30.79,218.218 -31.004,218.041C-31.345,217.758 -31.393,218.608 -31.393,224.894L-31.393,232.07L-36.69,232.07L-36.552,207.861L-33.448,207.881C-29.904,207.905 -29.614,208.04 -28.711,210.103C-28.422,210.761 -28.027,211.657 -27.834,212.094C-27.178,213.571 -26.321,215.529 -25.981,216.327C-25.795,216.764 -25.466,217.538 -25.248,218.047C-25.031,218.556 -24.611,219.509 -24.314,220.164C-24.018,220.819 -23.686,221.652 -23.577,222.016C-23.345,222.791 -22.677,223.868 -22.427,223.868C-22.184,223.868 -20.615,220.489 -16.654,211.432C-15.071,207.814 -14.918,207.717 -11.086,207.915L-8.11,208.068L-8.11,232.07L-13.666,232.07L-13.666,225.191C-13.666,221.407 -13.755,218.315 -13.864,218.32C-14.375,218.342 -14.963,219.091 -15.267,220.106C-15.451,220.72 -15.702,221.222 -15.824,221.222C-15.947,221.222 -16.047,221.434 -16.047,221.692C-16.047,221.951 -16.21,222.397 -16.408,222.685C-16.607,222.972 -16.859,223.504 -16.969,223.868C-17.157,224.491 -17.722,225.852 -18.58,227.744C-18.788,228.203 -18.958,228.656 -18.958,228.751C-18.958,229.308 -20.118,231.328 -20.617,231.639C-21.363,232.105 -23.72,232.371 -24.287,232.054L-24.287,232.054ZM-2.818,232.335L-2.818,207.993L2.474,207.993L2.474,232.335L-2.818,232.335ZM36.871,231.993C36.481,231.795 36.142,231.337 36.042,230.872C35.95,230.44 35.86,225.115 35.843,219.039L35.811,207.993L41.632,207.993L41.632,232.008L41.037,232.168C40.007,232.444 37.559,232.341 36.871,231.993L36.871,231.993ZM64.452,232.11C63.948,231.964 63.21,231.09 61.735,228.895C61.589,228.677 60.584,227.248 59.503,225.72C58.422,224.192 57.084,222.296 56.53,221.506C55.127,219.506 52.761,216.724 52.463,216.724C52.315,216.724 52.215,219.8 52.215,224.397L52.215,232.07L46.924,232.07L46.924,220.06C46.924,206.707 46.772,207.728 48.759,207.728C49.307,207.728 50.466,207.802 51.334,207.893C52.776,208.044 52.967,208.14 53.555,209.018C53.909,209.545 54.318,210.117 54.464,210.288C54.61,210.458 55.562,211.805 56.581,213.279C57.6,214.754 59.271,217.115 60.295,218.525C61.32,219.936 62.57,221.685 63.074,222.413L63.989,223.736L64.122,215.93L64.254,208.125L69.678,207.974L69.678,232.335L67.363,232.308C66.089,232.294 64.78,232.204 64.452,232.11L64.452,232.11ZM71.795,231.974C71.795,231.753 71.914,231.498 72.059,231.408C72.205,231.319 72.324,231.067 72.324,230.849C72.324,230.631 72.565,229.924 72.859,229.277C73.154,228.63 73.467,227.744 73.554,227.307C73.641,226.871 73.817,226.514 73.944,226.514C74.072,226.514 74.18,226.365 74.185,226.183C74.19,226.001 74.424,225.376 74.705,224.794C74.986,224.212 75.22,223.634 75.225,223.511C75.23,223.387 75.404,222.911 75.612,222.453C76.595,220.283 77.086,219.12 77.086,218.961C77.086,218.866 77.256,218.413 77.464,217.955C78.431,215.821 78.938,214.623 78.938,214.475C78.938,214.386 79.159,213.814 79.429,213.204C79.699,212.593 80.198,211.38 80.538,210.506C81.506,208.022 81.749,207.853 84.283,207.905C86.846,207.958 87.462,208.24 88.164,209.681C88.987,211.371 89.522,212.675 89.522,212.994C89.522,213.154 89.626,213.285 89.753,213.285C89.88,213.285 90.056,213.642 90.143,214.078C90.287,214.795 90.635,215.671 91.79,218.219C91.997,218.678 92.167,219.131 92.167,219.226C92.167,219.384 92.659,220.547 93.642,222.717C93.85,223.176 94.02,223.629 94.02,223.724C94.02,223.882 94.511,225.045 95.494,227.215C95.702,227.674 95.872,228.15 95.873,228.273C95.874,228.397 96.034,228.804 96.229,229.177C96.424,229.551 96.667,230.206 96.769,230.632C96.872,231.059 97.008,231.588 97.073,231.808C97.172,232.147 96.769,232.207 94.436,232.205C92.922,232.203 91.634,232.143 91.575,232.07C90.888,231.228 90.355,230.165 90.204,229.34C90.103,228.785 89.809,227.951 89.55,227.488L89.08,226.646L85.102,226.573C82.908,226.533 80.814,226.618 80.433,226.763C79.686,227.047 78.547,229.082 78.25,230.662C78.158,231.153 77.888,231.656 77.651,231.779C77.413,231.903 75.998,232.087 74.507,232.19C72.174,232.351 71.795,232.321 71.795,231.974L71.795,231.974ZM87.405,221.857C87.405,221.77 87.235,221.324 87.026,220.865C86.818,220.407 86.32,219.019 85.92,217.782C85.25,215.711 84.667,214.607 84.244,214.607C84.151,214.607 83.942,215.054 83.779,215.6C83.383,216.931 82.701,218.795 82.254,219.767C82.054,220.203 81.808,220.888 81.708,221.288L81.527,222.016L84.466,222.016C86.082,222.016 87.405,221.944 87.405,221.857ZM116.777,231.871C116.27,231.617 115.734,231.166 115.587,230.87C115.439,230.573 115.162,230.156 114.971,229.944C114.78,229.731 113.946,228.519 113.119,227.25C111.418,224.643 111.522,224.792 108.836,221.098C107.745,219.597 106.673,218.103 106.455,217.778C106.237,217.453 105.869,216.945 105.638,216.649C104.707,215.456 104.603,216.223 104.603,224.28L104.603,232.07L99.576,232.07L99.576,220.06C99.576,206.65 99.407,207.726 101.516,207.731C102.122,207.732 103.256,207.809 104.035,207.903C105.364,208.063 105.525,208.165 106.634,209.554C107.285,210.369 107.891,211.214 107.982,211.432C108.128,211.783 112.694,218.295 113.269,218.973C113.392,219.119 113.568,219.416 113.659,219.635C113.75,219.853 114.399,220.746 115.101,221.619L116.377,223.206L116.541,221.222C116.631,220.131 116.72,216.708 116.739,213.615L116.774,207.993L122.33,207.993L122.33,232.335L120.015,232.334C118.34,232.334 117.445,232.206 116.777,231.871L116.777,231.871ZM150.601,232.159C150.04,232.008 149.833,231.19 150.014,229.838C150.093,229.246 150.237,224.06 150.333,218.312L150.508,207.861L164.796,207.861L164.951,211.684L155.8,211.829L155.65,217.518L164.134,217.518L164.134,221.487L155.667,221.487L155.667,227.572L165.742,227.572L165.589,232.202L158.313,232.24C154.312,232.26 150.841,232.224 150.601,232.159L150.601,232.159ZM17.618,220.107L17.687,208.125L32.636,207.985L32.636,211.697L23.627,211.697L23.369,212.376C23.227,212.749 23.111,214.118 23.111,215.418L23.111,217.782L31.842,217.782L31.842,222.28L23.388,222.28L23.316,227.109L23.244,231.938L17.55,232.088L17.618,220.107ZM-125.215,230.59C-125.126,230.358 -124.981,229.882 -124.893,229.532C-124.805,229.182 -124.635,228.895 -124.515,228.895C-124.395,228.895 -124.214,228.627 -124.113,228.3C-123.823,227.365 -121.771,223.216 -121.55,223.118C-121.441,223.07 -121.351,222.914 -121.351,222.772C-121.351,222.63 -120.845,221.448 -120.227,220.144L-119.102,217.774L-116.986,217.133C-115.821,216.781 -114.333,216.412 -113.678,216.314C-113.024,216.215 -112.369,216.041 -112.223,215.925C-111.845,215.625 -109.445,215.3 -109.445,215.549C-109.445,215.663 -109.815,216.54 -110.267,217.497C-110.719,218.454 -111.363,219.833 -111.698,220.561C-112.033,221.288 -112.719,222.776 -113.222,223.868C-113.725,224.959 -114.374,226.388 -114.666,227.043C-114.957,227.698 -115.389,228.665 -115.625,229.193C-116.369,230.858 -116.855,231.012 -121.37,231.012C-124.927,231.012 -125.358,230.964 -125.215,230.59ZM-114.441,230.058C-114.332,229.801 -112.737,226.503 -110.871,222.675C-110.232,221.364 -109.71,220.144 -109.71,219.963C-109.71,219.782 -109.591,219.635 -109.445,219.635C-109.3,219.635 -109.177,219.486 -109.172,219.304C-109.167,219.122 -108.871,218.378 -108.513,217.65C-108.155,216.923 -107.861,216.207 -107.86,216.06C-107.859,215.913 -107.569,215.482 -107.217,215.102C-106.742,214.589 -106.109,214.324 -104.769,214.077C-103.776,213.894 -102.844,213.653 -102.698,213.541C-102.553,213.43 -101.507,213.191 -100.375,213.01C-99.244,212.828 -98.254,212.578 -98.177,212.453C-97.855,211.932 -97.351,212.244 -97.474,212.888C-97.544,213.251 -97.683,213.549 -97.783,213.549C-97.884,213.549 -98.181,214.055 -98.443,214.674C-98.99,215.965 -99.584,217.291 -100.558,219.395C-100.935,220.21 -101.243,221.014 -101.243,221.181C-101.243,221.349 -101.362,221.487 -101.508,221.487C-101.653,221.487 -101.772,221.634 -101.772,221.815C-101.772,221.996 -102.175,222.978 -102.668,223.998C-103.161,225.018 -103.934,226.656 -104.387,227.638C-105.179,229.355 -105.247,229.424 -106.155,229.424C-106.674,229.424 -107.305,229.535 -107.557,229.67C-108.181,230.003 -114.571,230.364 -114.441,230.058ZM-101.622,228.3C-101.447,227.741 -100.331,225.259 -99.034,222.545C-98.721,221.89 -98.376,221.315 -98.266,221.266C-98.157,221.218 -98.067,221.039 -98.066,220.869C-98.065,220.699 -97.77,219.965 -97.412,219.238C-97.054,218.51 -96.758,217.807 -96.753,217.675C-96.748,217.543 -96.457,217.058 -96.105,216.597C-95.554,215.874 -95.199,215.711 -93.526,215.417C-92.459,215.229 -91.467,214.984 -91.321,214.873C-91.071,214.682 -87.102,213.814 -86.478,213.814C-86.287,213.814 -86.318,214.065 -86.568,214.541C-86.777,214.941 -87.379,216.221 -87.904,217.386C-89.225,220.313 -90.044,222.093 -91.088,224.31C-91.58,225.354 -91.983,226.324 -91.983,226.467C-91.983,226.78 -93.41,227.307 -94.255,227.307C-94.589,227.307 -94.926,227.411 -95.004,227.537C-95.082,227.664 -96.282,227.917 -97.671,228.101C-99.06,228.285 -100.26,228.539 -100.338,228.665C-100.417,228.792 -100.779,228.895 -101.144,228.895C-101.711,228.895 -101.781,228.808 -101.622,228.3ZM201.44,227.899C200.439,226.898 200.382,226.754 200.382,225.242C200.382,223.911 200.496,223.509 201.063,222.835C202.273,221.397 204.817,221.134 206.292,222.294C208.17,223.771 208.252,226.365 206.475,228.09C205.946,228.604 205.46,228.762 204.152,228.848C202.52,228.955 202.484,228.943 201.44,227.899ZM205.797,227.431C206.611,226.617 206.732,226.329 206.732,225.21C206.732,224.156 206.594,223.776 205.964,223.102C205.319,222.411 205.001,222.28 203.968,222.28C202.123,222.28 201.44,223.07 201.44,225.205C201.44,226.682 201.515,226.901 202.262,227.598C203.44,228.699 204.583,228.645 205.797,227.431ZM209.29,228.719C209.193,228.622 209.113,227.014 209.113,225.147L209.113,221.751L211.759,221.751C213.347,221.751 214.405,221.857 214.405,222.016C214.405,222.17 213.523,222.28 212.288,222.28L210.172,222.28L210.172,224.662L212.024,224.662C213.494,224.662 213.876,224.743 213.876,225.058C213.876,225.373 213.494,225.455 212.024,225.455L210.172,225.455L210.172,227.175C210.172,228.432 210.077,228.895 209.819,228.895C209.625,228.895 209.387,228.816 209.29,228.719ZM248.954,226.72C248.529,226.566 247.698,226.109 247.106,225.706C245.906,224.888 245.351,224.916 246.187,225.752C246.485,226.05 246.65,226.372 246.553,226.468C246.457,226.564 245.912,226.142 245.341,225.53C244.533,224.664 244.303,224.207 244.303,223.468C244.303,222.133 245.227,220.561 247.113,218.686C249.593,216.221 251.58,215.885 253.973,217.528C256.105,218.992 257.343,220.582 257.982,222.677C258.288,223.678 257.763,225.088 256.779,225.909C255.824,226.705 255.443,226.668 256.208,225.853C257.12,224.883 256.705,224.79 255.381,225.669C254.745,226.091 253.82,226.572 253.325,226.739C252.227,227.11 250,227.1 248.954,226.72L248.954,226.72ZM263.485,226.788C261.657,226.024 259.71,221.9 260.662,220.812C260.783,220.674 261.031,220.04 261.212,219.403C261.711,217.653 263.67,215.812 265.439,215.432C268.207,214.839 271.62,215.23 272.226,216.211C272.445,216.565 273.021,215.515 273.276,214.294C273.654,212.485 274.281,210.879 274.697,210.656C274.933,210.53 275.691,210.342 276.381,210.238C277.737,210.035 278.187,210.404 277.753,211.366C277.638,211.621 277.393,212.484 277.208,213.284C276.375,216.904 275.908,218.728 275.753,218.973C275.66,219.119 275.498,219.773 275.392,220.428C275.286,221.083 275.111,221.738 275.003,221.883C274.894,222.029 274.664,222.922 274.492,223.868C274.319,224.814 274.043,225.93 273.879,226.348C273.59,227.084 273.536,227.103 272.146,226.959C271.203,226.862 270.586,226.647 270.344,226.332C270.095,226.006 269.912,225.946 269.774,226.143C269.322,226.79 268.307,227.042 266.215,227.026C265.004,227.017 263.776,226.91 263.485,226.788ZM270.009,223.695C272.299,221.502 271.964,218.515 269.321,217.559C268.474,217.253 268.223,217.266 267.372,217.659C266.238,218.184 264.94,219.323 264.94,219.794C264.94,219.973 264.813,220.162 264.658,220.214C264.134,220.388 264.242,222.62 264.811,223.382C265.881,224.816 268.665,224.984 270.009,223.695ZM276.288,226.844C276.224,226.409 276.381,225.308 276.543,225.058C276.704,224.811 277.211,222.825 277.895,219.767C278.058,219.039 278.296,218.252 278.424,218.017C278.553,217.783 278.803,216.83 278.981,215.901C279.158,214.971 279.392,214.091 279.5,213.946C279.609,213.8 279.785,213.15 279.892,212.501C279.999,211.852 280.183,211.137 280.3,210.913C280.417,210.69 280.57,210.315 280.641,210.081C280.762,209.683 281.996,209.341 283.726,209.227C284.312,209.188 284.397,209.3 284.471,210.21C284.518,210.775 284.428,211.365 284.273,211.52C284.118,211.676 283.99,211.997 283.99,212.234C283.99,212.472 283.739,213.467 283.432,214.445C283.125,215.424 282.936,216.287 283.012,216.363C283.088,216.439 283.467,216.295 283.853,216.041C285.6,214.897 289.304,215.09 290.69,216.397C291.45,217.115 291.456,217.142 291.312,219.456C291.231,220.74 291.055,221.931 290.92,222.102C290.785,222.273 290.528,223.21 290.348,224.186C289.905,226.587 289.715,226.789 287.73,226.969L286.069,227.12L286.253,226.089C286.355,225.522 286.609,224.582 286.817,224C287.026,223.418 287.265,221.903 287.35,220.634L287.503,218.326L286.739,218.031C285.428,217.525 283.699,217.878 282.922,218.808C282.241,219.624 281.249,222.495 280.922,224.601C280.825,225.223 280.642,225.796 280.516,225.874C280.39,225.952 280.286,226.247 280.286,226.529C280.286,226.992 280.09,227.043 278.302,227.043C277.21,227.043 276.304,226.954 276.288,226.844ZM295.897,226.669C295.533,226.449 294.979,226.133 294.666,225.965C293.321,225.242 292.696,221.672 293.541,219.536C294.086,218.159 295.556,216.543 296.822,215.93C297.858,215.429 298.368,215.364 300.634,215.443C302.771,215.517 303.355,215.628 303.818,216.047C304.363,216.541 304.439,216.544 305.763,216.123C308.348,215.301 308.333,215.301 308.327,215.979C308.321,216.595 307.954,218.294 307.138,221.487C306.896,222.432 306.512,224.07 306.285,225.125L305.872,227.043L304.61,227.043C303.076,227.043 302.511,226.849 302.511,226.323C302.511,225.986 302.397,225.999 301.784,226.403C300.782,227.063 296.845,227.24 295.897,226.669L295.897,226.669ZM302.24,223.477C303.426,222.319 303.789,220.969 303.307,219.508C302.923,218.344 302.141,217.782 300.904,217.782C298.46,217.782 296.923,219.249 296.741,221.756C296.639,223.172 296.676,223.28 297.51,223.981C298.285,224.633 298.549,224.705 299.797,224.601C300.997,224.502 301.364,224.333 302.24,223.477ZM308.067,226.69C308.067,226.496 308.152,226.253 308.255,226.149C308.359,226.046 308.646,225.044 308.893,223.922C309.14,222.801 309.526,221.169 309.751,220.296C309.975,219.423 310.306,218.131 310.487,217.426C310.851,215.998 311.345,215.666 313.099,215.666C313.798,215.666 314.208,215.812 314.383,216.123C314.622,216.551 314.676,216.547 315.217,216.057C315.691,215.628 316.255,215.517 318.358,215.444L320.922,215.355L322.025,216.552C323.099,217.717 323.124,217.785 322.97,219.154C322.883,219.928 322.724,220.68 322.617,220.825C322.509,220.971 322.336,221.681 322.231,222.403C322.127,223.125 321.884,224.137 321.691,224.652C321.499,225.166 321.266,225.932 321.173,226.352L321.003,227.117L319.26,226.954C317.332,226.774 317.126,226.683 317.526,226.189C317.677,226.004 317.945,225.138 318.122,224.265C318.299,223.392 318.541,222.557 318.659,222.41C318.778,222.263 318.957,221.419 319.057,220.534C319.232,218.984 319.211,218.904 318.482,218.328C317.851,217.83 317.488,217.75 316.302,217.847C314.707,217.978 314.03,218.571 313.732,220.098C313.64,220.571 313.472,220.957 313.36,220.957C313.247,220.957 313.008,221.733 312.829,222.681C312.651,223.628 312.406,224.464 312.285,224.539C312.165,224.613 311.987,225.207 311.889,225.858L311.712,227.043L309.889,227.043C308.548,227.043 308.067,226.95 308.067,226.69L308.067,226.69ZM323.804,226.769C323.623,226.475 323.893,224.439 324.171,224C324.264,223.855 324.537,222.843 324.779,221.751C325.627,217.924 325.827,217.117 326.061,216.592C326.19,216.301 326.434,215.348 326.603,214.475C326.772,213.602 327.001,212.769 327.112,212.623C327.222,212.478 327.395,211.882 327.496,211.3C327.862,209.182 328.176,208.651 329.264,208.311C329.825,208.136 330.599,207.993 330.984,207.993C331.674,207.993 331.681,208.012 331.501,209.367C331.401,210.122 331.237,210.866 331.136,211.02C330.968,211.278 330.526,212.993 329.768,216.327C329.603,217.055 329.363,217.888 329.234,218.179C329.106,218.47 328.926,219.125 328.835,219.634C328.688,220.458 328.421,221.463 327.323,225.323C327.158,225.905 326.91,226.53 326.773,226.712C326.472,227.111 324.044,227.157 323.804,226.768L323.804,226.769ZM355.026,226.793C354.733,226.674 354.334,226.281 354.141,225.919C353.842,225.361 353.852,225.141 354.21,224.45C354.785,223.337 354.977,223.25 357.545,222.938C359.688,222.678 359.794,222.634 359.794,222.01C359.794,221.432 359.665,221.345 358.712,221.275C357.981,221.221 357.521,221.329 357.291,221.606C356.871,222.112 355.428,222.158 355.428,221.665C355.428,221.472 355.73,221.03 356.099,220.684C356.681,220.137 357.036,220.051 358.768,220.042C360.634,220.032 360.807,220.08 361.404,220.774C362.071,221.549 362.216,222.263 361.794,222.69C361.658,222.829 361.463,223.574 361.361,224.346C361.191,225.643 361.221,225.762 361.753,225.901C362.38,226.065 362.375,226.462 361.739,226.863C361.171,227.221 359.397,226.847 359.397,226.369C359.397,225.888 359.445,225.882 358.206,226.514C357.13,227.062 355.947,227.166 355.026,226.793L355.026,226.793ZM358.848,225.023C359.642,224.014 359.552,223.603 358.537,223.607C357.258,223.612 356.631,223.84 356.259,224.435C355.442,225.744 357.85,226.291 358.848,225.023ZM374.875,226.853C373.697,226.569 373.155,225.716 373.157,224.152C373.16,221.545 374.725,220.073 377.521,220.046C378.773,220.034 379.29,220.161 379.968,220.645C381.155,221.492 381.128,222.28 379.911,222.28C379.265,222.28 378.911,222.124 378.711,221.751C378.503,221.363 378.157,221.222 377.409,221.222C376.041,221.222 375.425,222.119 375.413,224.132L375.404,225.588L376.517,225.668C377.407,225.733 377.698,225.64 377.97,225.205C378.215,224.813 378.587,224.662 379.304,224.662C380.442,224.662 380.515,224.845 379.758,225.807C378.96,226.821 376.722,227.3 374.875,226.853L374.875,226.853ZM383.703,226.803C382.433,226.39 381.886,225.588 381.886,224.139C381.886,221.384 384.239,219.533 387.117,220.022C388.725,220.296 389.345,220.941 389.495,222.497L389.625,223.849L386.88,223.924C384.213,223.998 384.133,224.018 384.046,224.632C383.997,224.979 384.116,225.364 384.31,225.488C384.859,225.836 386.165,225.76 386.628,225.353C387.045,224.987 388.765,225.056 388.765,225.439C388.765,225.543 388.479,225.897 388.129,226.226C387.421,226.891 384.962,227.212 383.703,226.803L383.703,226.803ZM387.503,222.032C387.408,221.177 387.322,221.116 386.212,221.116C385.587,221.116 385.139,221.287 384.898,221.617C384.178,222.601 384.422,222.842 386.053,222.757C387.491,222.682 387.571,222.642 387.503,222.032ZM330.557,226.037C330.557,225.63 330.663,225.184 330.792,225.045C330.922,224.907 331.152,224.139 331.305,223.339C331.756,220.974 332.312,218.682 332.515,218.354C332.644,218.146 333.851,218.047 336.261,218.047L339.817,218.047L339.817,219.37L334.32,219.37L334.144,220.362C334.048,220.908 333.907,221.563 333.832,221.817C333.71,222.236 333.941,222.28 336.228,222.28C338.751,222.28 338.759,222.282 338.759,222.942L338.759,223.603L333.203,223.603L333.203,224.381C333.203,224.809 333.084,225.233 332.938,225.323C332.793,225.413 332.674,225.777 332.674,226.132C332.674,226.71 332.561,226.778 331.615,226.778C330.633,226.778 330.557,226.725 330.557,226.037ZM340.347,226.426C340.347,225.804 340.915,222.96 341.148,222.413C341.273,222.122 341.45,221.497 341.543,221.024C341.697,220.236 341.795,220.164 342.703,220.164C343.67,220.164 343.692,220.185 343.575,221.024C343.509,221.497 343.362,222.003 343.247,222.148C343.133,222.294 342.889,223.395 342.705,224.595L342.372,226.778L341.359,226.778C340.692,226.778 340.347,226.658 340.347,226.426ZM344.58,226.117C344.58,225.753 344.685,225.455 344.814,225.455C344.943,225.455 345.133,224.771 345.236,223.934C345.34,223.097 345.522,222.294 345.64,222.148C345.759,222.003 345.896,221.526 345.946,221.09C346.022,220.41 346.159,220.284 346.897,220.213C347.481,220.157 347.808,220.259 347.913,220.532C348.046,220.88 348.195,220.865 349.031,220.416C350.667,219.54 352.642,219.909 352.953,221.149C353.14,221.895 352.845,224.399 352.524,224.787C352.401,224.936 352.259,225.416 352.21,225.852C352.13,226.564 352.015,226.655 351.096,226.73C350.097,226.812 350.075,226.795 350.229,226.069C351.162,221.657 351.133,221.222 349.9,221.222C348.616,221.222 347.535,222.345 347.33,223.892C347.234,224.613 347.053,225.267 346.926,225.345C346.8,225.423 346.697,225.777 346.697,226.132C346.697,226.71 346.584,226.778 345.638,226.778C344.686,226.778 344.58,226.712 344.58,226.117ZM363.228,226.183C363.332,225.856 363.628,224.635 363.887,223.471C364.623,220.163 364.622,220.164 365.663,220.164C366.456,220.164 366.554,220.233 366.408,220.693C366.189,221.382 366.488,221.364 367.257,220.641C367.994,219.948 370.406,219.795 371.129,220.394C371.612,220.795 371.765,223.45 371.321,223.724C371.186,223.808 370.994,224.529 370.894,225.327L370.713,226.778L368.597,226.778L368.784,225.521C368.887,224.83 369.074,224.14 369.199,223.987C369.5,223.622 369.605,221.95 369.353,221.543C369.025,221.012 367.689,221.18 366.891,221.853C366.308,222.344 366.031,222.956 365.635,224.631L365.126,226.778L364.083,226.778C363.121,226.778 363.054,226.732 363.228,226.183L363.228,226.183ZM342.244,218.263C342.315,217.762 342.517,217.635 343.344,217.567C344.27,217.491 344.349,217.536 344.27,218.096C344.199,218.596 343.998,218.724 343.17,218.792C342.244,218.868 342.165,218.823 342.244,218.263ZM178.025,218.122C177.33,217.954 176.389,217.074 176.222,216.437C176.15,216.158 176.129,215.93 176.176,215.93C176.223,215.93 176.45,215.858 176.68,215.77C176.952,215.665 177.099,215.754 177.099,216.024C177.099,217.328 179.943,218.085 180.894,217.034C181.86,215.967 181.162,215.202 178.728,214.657C177.3,214.338 176.331,213.563 176.314,212.728C176.309,212.494 176.597,211.988 176.954,211.603C177.512,211.001 177.817,210.903 179.144,210.903C180.806,210.903 181.702,211.325 181.936,212.218C182.132,212.97 181.508,212.908 180.695,212.094C179.887,211.287 178.451,211.199 177.801,211.916C176.875,212.939 177.5,213.491 180.538,214.335C181.193,214.517 181.816,214.802 181.923,214.967C182.202,215.4 182.17,216.676 181.867,217.243C181.42,218.077 179.58,218.498 178.025,218.122L178.025,218.122ZM185.404,218.025C184.238,217.687 183.713,216.191 183.713,213.21C183.713,211.08 183.754,210.903 184.242,210.903C184.738,210.903 184.772,211.08 184.772,213.681C184.772,216.107 184.839,216.527 185.301,216.989C185.984,217.672 187.6,217.679 188.41,217.004C188.958,216.546 189.005,216.287 189.005,213.705C189.005,211.08 189.038,210.903 189.534,210.903C190.026,210.903 190.063,211.08 190.063,213.408C190.063,216.539 189.62,217.66 188.228,218.047C187.12,218.355 186.524,218.35 185.404,218.025L185.404,218.025ZM200.479,218.023C199.545,217.752 198.72,216.697 198.958,216.076C199.168,215.529 199.566,215.555 199.767,216.128C200.415,217.976 204.086,217.964 204.086,216.114C204.086,215.59 202.996,214.988 201.564,214.722C199.91,214.415 199.323,213.908 199.328,212.791C199.334,211.41 199.629,211.111 201.133,210.967C203.193,210.769 204.615,211.345 204.615,212.377C204.615,212.945 204.141,212.834 203.401,212.093C202.598,211.291 201.24,211.213 200.367,211.92C199.72,212.444 199.791,213.198 200.508,213.422C200.73,213.492 201.12,213.631 201.374,213.731C201.629,213.831 202.367,214.04 203.013,214.194C203.892,214.404 204.31,214.682 204.667,215.293C205.108,216.048 205.113,216.177 204.733,216.939C204.137,218.134 202.393,218.578 200.479,218.023L200.479,218.023ZM191.915,218.047L191.915,210.903L193.75,210.903C194.759,210.903 195.875,211.013 196.23,211.148C197.025,211.45 197.347,212.571 196.93,213.579C196.666,214.216 196.701,214.421 197.179,215.029C197.761,215.769 197.926,216.724 197.472,216.724C197.326,216.724 197.207,216.898 197.207,217.111C197.207,217.77 196.272,218.047 194.049,218.047L191.915,218.047ZM196.18,217.016C196.713,216.584 196.762,216.409 196.534,215.759C196.276,215.026 196.214,215.004 194.423,215.004L192.577,215.004L192.492,215.889C192.354,217.333 192.539,217.517 194.127,217.517C195.14,217.517 195.743,217.37 196.18,217.016L196.18,217.016ZM195.761,213.651C197.21,212.701 196.281,211.636 194.104,211.749C192.579,211.829 192.577,211.83 192.491,212.727C192.439,213.267 192.545,213.714 192.756,213.848C193.34,214.218 195.068,214.105 195.761,213.651ZM206.732,214.475C206.732,211.079 206.758,210.903 207.261,210.903C207.764,210.903 207.79,211.079 207.79,214.475C207.79,217.87 207.764,218.047 207.261,218.047C206.758,218.047 206.732,217.87 206.732,214.475ZM209.642,218.047L209.642,210.85L212.017,210.943C214.017,211.021 214.48,211.124 214.957,211.602C216.174,212.819 216.092,216.343 214.821,217.435C214.2,217.97 213.829,218.047 211.877,218.047L209.642,218.047ZM213.891,217.029C214.768,216.319 215.222,214.591 214.83,213.452C214.305,211.925 213.971,211.697 212.256,211.697L210.701,211.697L210.701,217.517L211.994,217.517C212.858,217.517 213.489,217.355 213.891,217.029ZM216.966,217.584C217.055,217.329 217.352,216.615 217.626,215.996C217.899,215.378 218.194,214.514 218.281,214.078C218.368,213.641 218.539,213.284 218.659,213.284C218.78,213.284 218.956,212.872 219.051,212.367C219.244,211.338 219.726,210.816 220.364,210.947C220.742,211.025 221.303,212.127 222.767,215.665C222.978,216.175 223.32,216.919 223.528,217.319C223.874,217.986 223.865,218.047 223.419,218.047C222.897,218.047 222.078,217.002 222.078,216.336C222.078,216.01 221.717,215.93 220.254,215.93C218.487,215.93 218.425,215.952 218.249,216.656C218.026,217.544 217.632,218.047 217.159,218.047C216.934,218.047 216.863,217.876 216.966,217.584ZM221.334,215.263C221.502,215.095 220.777,212.757 220.41,212.284C220.214,212.031 220.036,212.197 219.702,212.946C219.456,213.496 219.174,214.273 219.074,214.673C218.897,215.383 218.921,215.401 220.044,215.401C220.678,215.401 221.258,215.339 221.334,215.263ZM224.724,214.475L224.724,210.903L227.039,210.907C230.002,210.912 230.449,211.043 230.787,212.011C231.156,213.069 230.55,214.607 229.764,214.607C229.466,214.607 229.222,214.667 229.222,214.739C229.222,214.812 229.747,215.556 230.388,216.393C231.473,217.808 231.515,217.921 230.989,218.007C230.62,218.067 230.284,217.885 230.021,217.48C229.8,217.14 229.218,216.414 228.728,215.867C227.988,215.04 227.663,214.872 226.81,214.872L225.782,214.872L225.782,216.459C225.782,217.871 225.723,218.047 225.253,218.047C224.75,218.047 224.724,217.871 224.724,214.475ZM229.656,213.681C230.217,213.12 230,212.166 229.222,211.773C228.858,211.59 227.935,211.438 227.171,211.436L225.782,211.432L225.782,214.078L227.521,214.078C228.713,214.078 229.384,213.953 229.656,213.681L229.656,213.681ZM234.778,216.349C234.778,215.415 234.689,214.611 234.579,214.563C234.47,214.514 234.092,214.058 233.739,213.549C233.385,213.039 232.806,212.236 232.45,211.763L231.805,210.903L232.438,210.903C232.895,210.903 233.274,211.218 233.792,212.027C234.895,213.751 235.143,214.078 235.349,214.078C235.453,214.078 236.039,213.363 236.651,212.49C237.332,211.521 237.956,210.903 238.256,210.903C238.526,210.903 238.747,210.971 238.747,211.054C238.747,211.138 238.092,212.043 237.291,213.066C235.902,214.841 235.836,214.996 235.836,216.486C235.836,217.87 235.776,218.047 235.307,218.047C234.833,218.047 234.778,217.87 234.778,216.349ZM249.873,215.651C250.226,215.428 252.202,215.281 251.954,215.497C251.893,215.549 251.314,215.66 250.667,215.743C249.905,215.84 249.625,215.808 249.873,215.651L249.873,215.651ZM252.455,215.749C252.646,215.673 252.875,215.682 252.962,215.77C253.05,215.858 252.894,215.92 252.615,215.909C252.307,215.896 252.244,215.834 252.455,215.749L252.455,215.749ZM247.907,214.112C247.526,213.713 247.213,213.317 247.213,213.232C247.213,212.901 248.042,212.781 248.671,213.02C249.251,213.241 249.33,213.2 249.332,212.682C249.333,212.302 249.587,211.976 250.046,211.763C251.22,211.217 252.128,211.36 252.993,212.226C253.465,212.697 254.064,213.019 254.469,213.019C255.318,213.019 255.33,213.288 254.518,214.051C253.967,214.569 253.542,214.658 251.243,214.741C248.654,214.834 248.588,214.822 247.907,214.112L247.907,214.112ZM-94.893,213.693C-94.893,213.345 -93.639,211.167 -93.439,211.167C-93,211.167 -90.396,210.578 -89.998,210.388C-89.707,210.25 -88.576,209.945 -87.485,209.712C-86.393,209.478 -85.232,209.22 -84.905,209.138C-84.428,209.019 -84.31,209.101 -84.31,209.549C-84.31,209.857 -84.411,210.109 -84.536,210.109C-84.66,210.109 -84.873,210.496 -85.008,210.969C-85.186,211.595 -85.431,211.854 -85.906,211.92C-86.265,211.971 -86.678,212.106 -86.823,212.221C-86.969,212.336 -87.981,212.576 -89.072,212.755C-90.164,212.934 -91.176,213.172 -91.321,213.284C-91.467,213.397 -92.121,213.57 -92.776,213.67C-93.431,213.77 -94.175,213.911 -94.43,213.983C-94.731,214.068 -94.893,213.967 -94.893,213.693ZM203.958,206.892C204.061,206.551 204.303,205.915 204.496,205.479C204.689,205.042 205.157,203.911 205.537,202.965C205.916,202.019 206.36,200.978 206.524,200.65C206.938,199.822 207.744,199.891 208.067,200.782C208.212,201.183 208.436,201.748 208.566,202.039C208.695,202.33 209.057,203.164 209.37,203.891C209.847,204.999 210.47,206.371 210.901,207.265C210.953,207.374 210.754,207.463 210.458,207.463C210.077,207.463 209.762,207.116 209.378,206.273L208.835,205.082L207.249,205.082C205.764,205.082 205.644,205.129 205.375,205.81C204.869,207.091 204.7,207.329 204.231,207.421C203.86,207.494 203.807,207.392 203.958,206.892ZM208.584,204.285C208.584,204.137 208.471,203.81 208.332,203.557C208.194,203.304 207.873,202.631 207.62,202.061C207.359,201.476 207.113,201.187 207.054,201.399C206.996,201.606 206.795,202.132 206.605,202.568C205.757,204.528 205.765,204.553 207.243,204.553C207.981,204.553 208.584,204.432 208.584,204.285ZM329.829,205.168C329.425,204.886 329.235,204.487 329.238,203.925C329.243,202.801 329.456,202.547 330.689,202.18C333.308,201.403 334.565,203.697 332.263,205.055C331.155,205.709 330.639,205.733 329.829,205.168ZM-128.495,192.718C-129.004,192.658 -129.521,192.512 -129.643,192.393C-129.923,192.12 -127.441,192.373 -126.908,192.673C-126.472,192.917 -126.738,192.924 -128.495,192.718ZM-134.101,191.407C-133.91,191.331 -133.682,191.34 -133.594,191.428C-133.506,191.516 -133.662,191.579 -133.941,191.567C-134.249,191.555 -134.312,191.492 -134.101,191.407L-134.101,191.407Z" style="fill:rgb(61,1,1);fill-rule:nonzero;"/>
            </g>
        </g>
    </g>
</svg>
