<?xml version="1.0" encoding="UTF-8" standalone="no"?>
<!DOCTYPE svg PUBLIC "-//W3C//DTD SVG 1.1//EN" "http://www.w3.org/Graphics/SVG/1.1/DTD/svg11.dtd">
<svg width="100%" height="100%" viewBox="0 0 1743 778" version="1.1" xmlns="http://www.w3.org/2000/svg" xmlns:xlink="http://www.w3.org/1999/xlink" xml:space="preserve" xmlns:serif="http://www.serif.com/" style="fill-rule:evenodd;clip-rule:evenodd;stroke-linejoin:round;stroke-miterlimit:2;">
    <g transform="matrix(1,0,0,1,-390.585,-1335.45)">
        <g transform="matrix(3.77953,0,0,3.77953,514.678,1542.71)">
            <g id="g1">
                <path id="path1" d="M-11.301,150.37C-12.297,149.936 -12.756,148.967 -12.73,147.354C-12.704,145.747 -12.272,144.585 -11.328,143.585C-9.782,141.948 -8.629,141.599 6.168,138.294C22.338,134.682 24.795,134.359 28.028,135.417C30.582,136.254 34.306,135.997 39.544,134.625C45.113,133.165 46.724,132.999 54.586,133.077C60.851,133.139 61.69,133.093 63.979,132.569C69.969,131.196 74.115,129.254 76.684,126.615C79.312,123.916 79.755,123.855 84.881,125.483C88.472,126.624 90.054,126.891 94.982,127.187C106.393,127.874 124.505,126.012 160.316,120.471C165.466,119.674 172.24,118.658 175.369,118.214C178.497,117.77 181.468,117.288 181.97,117.143C183.014,116.841 183.354,117.12 183.242,118.187C183.069,119.843 178.961,121.195 167.901,123.237C159.476,124.792 151.772,125.937 124.304,129.714C99.572,133.114 85.391,135.672 81.221,137.483C78.419,138.7 75.367,139.017 63.185,139.359C58.31,139.496 52.06,139.792 49.295,140.018C31.904,141.438 9.283,144.807 0.298,147.316C-0.747,147.608 -2.602,148.315 -3.824,148.888C-6.13,149.969 -8.669,150.747 -9.829,150.729C-10.199,150.723 -10.861,150.562 -11.301,150.37ZM39.783,129.01C38.157,128.629 37.269,127.59 36.897,125.634C36.629,124.231 37.173,122.76 38.473,121.371C39.883,119.863 40.938,117.193 41.609,113.433C43.438,103.189 44.688,99.292 49.63,88.418C56.024,74.352 61.117,59.75 62.17,52.466C62.93,47.208 60.72,47.721 55.749,53.956C44.809,67.675 36.5,86.828 26.96,120.312C24.924,127.458 24.639,127.985 22.809,127.985C21.575,127.985 20.567,127.429 19.463,126.139C18.151,124.605 17.677,122.887 17.677,119.655C17.677,115.972 18.208,113.17 20.057,107.083C24.045,93.962 26.5,87.493 30.249,80.228C31.765,77.291 33.448,73.582 34.031,71.894C34.609,70.22 36.301,65.458 37.79,61.31C40.99,52.402 41.478,50.821 42.515,46.024C45.079,34.166 45.675,19.963 43.979,11.172C43.342,7.874 42.53,5.004 42.143,4.682C41.663,4.284 41.304,4.874 39.553,8.929C32.199,25.964 7.059,75.502 -4.171,95.087C-8.013,101.786 -16.036,114.181 -19.129,118.196C-21.284,120.992 -22.255,122.033 -23.436,122.81C-25.947,124.462 -27.696,123.09 -30.684,117.12C-31.299,115.893 -32.005,114.114 -32.254,113.169C-34.017,106.464 -30.317,72.669 -25.464,51.15C-21.886,35.286 -17.887,23.544 -9.641,4.689C-7.891,0.688 -6.158,-3.456 -5.789,-4.52C-4.991,-6.825 -3.806,-8.867 -0.692,-13.302C5.347,-21.904 12.764,-31.346 19.706,-39.269C22.302,-42.231 25.46,-45.914 26.723,-47.453C29.604,-50.963 31.232,-52.08 35.683,-53.607C43.784,-56.384 48.394,-54.095 54.199,-44.411C57.23,-39.352 58.431,-35.157 58.976,-27.722C60.194,-11.092 56.039,25.339 51.294,39.635C50.147,43.088 49.92,45.072 50.638,45.347C51.343,45.618 53.008,44.954 54.628,43.756C55.478,43.128 58.138,40.927 60.54,38.865C62.941,36.804 64.978,35.118 65.068,35.117C65.246,35.116 69.177,40.131 69.839,41.202C71.038,43.144 71.482,44.983 71.497,48.081C71.528,54.223 69.662,60.323 62.191,78.508C50.063,108.03 47.665,117.29 52.729,115.05C57.627,112.884 63.661,105.833 67.765,97.479C69.62,93.704 70.649,90.758 71.387,87.102C72.603,81.087 74.314,76.646 76.319,74.303C78.615,71.622 80.853,71.815 81.714,74.768C81.868,75.297 82.104,78.29 82.239,81.419C82.58,89.323 83.091,91.857 84.914,94.699C87.375,98.534 91.195,100.017 98.64,100.027C106.863,100.038 115.598,98.125 118.595,95.654C120.225,94.311 120.616,93.194 120.881,89.123C121.182,84.517 121.513,82.308 122.492,78.376C124.691,69.546 129.104,58.276 132.72,52.253C134.662,49.019 135.643,46.948 136.042,45.24C136.681,42.51 137.374,41.354 145.523,29.428C146.915,27.391 148.55,24.774 149.157,23.614C149.763,22.453 150.712,20.906 151.266,20.174C154.011,16.547 162.51,7.646 167.757,2.904C172.234,-1.143 173.662,-2.17 174.822,-2.181C176.989,-2.202 179.644,0.049 180.662,2.77C180.964,3.576 181.315,5.32 181.444,6.645C181.715,9.439 182.163,10.651 183.454,12.079C184.732,13.494 185.057,15.377 184.632,18.897C184.46,20.323 184.256,22.87 184.178,24.557C184.007,28.289 184.354,29.738 186.201,33C186.902,34.237 187.672,35.857 187.912,36.6C189.29,40.849 188.793,46.705 186.443,53.902C184.867,58.728 182.949,63.106 177.752,73.746C172.544,84.405 170.801,88.326 169.935,91.324L169.481,92.896L170.11,93.416C171.232,94.346 176.483,96.697 180.236,97.951C184.807,99.478 187.395,99.894 189.681,99.468C194.138,98.64 199.596,94.583 200.148,91.69C200.606,89.29 203.302,85.736 208.956,80.078C213.173,75.859 215.995,73.59 217.339,73.338C219.138,73.001 220.793,75.176 221.071,78.244C221.274,80.478 220.751,82.91 219.289,86.529C217.905,89.956 217.432,92.325 217.941,93.278C219.058,95.363 228.59,95.05 241.779,92.495C252.458,90.426 262.637,87.908 282.227,82.488C303.374,76.639 316.925,73.216 318.942,73.216C320.753,73.216 331.423,70.257 339.891,67.407C353.331,62.882 363.041,60.706 365.736,61.615C367.283,62.136 367.854,63.412 367.851,66.337C367.849,68.002 367.685,69.067 367.221,70.438C366.287,73.192 364.294,77.311 362.129,80.959C358.243,87.507 355.759,92.903 356.155,93.935C356.739,95.457 370.827,95.407 385.051,93.833C392.064,93.057 395.734,92.39 402.514,90.663C413.601,87.838 420.063,86.791 423.653,87.236C426.941,87.644 428.143,88.99 427.985,92.091C427.907,93.637 427.799,93.974 427.242,94.415C425.202,96.032 419.485,98.129 414.379,99.134C410.798,99.839 408.173,99.769 404.366,98.868C401.9,98.284 401.198,98.242 394.047,98.244C384.672,98.246 383.355,98.405 369.126,101.262C350.602,104.98 336.888,107.021 335.111,106.323C333.474,105.681 334.679,103.141 339.707,96.632C341.618,94.158 343.998,90.906 344.995,89.404C349.887,82.042 353.041,74.895 352.853,71.598L352.772,70.174L351.663,70.093C348.881,69.891 325.652,74.707 308.346,79.073C302.066,80.658 298.85,81.601 293.77,83.348C290.952,84.318 288.34,84.938 282.393,86.052C277.505,86.968 267.561,89.5 256.464,92.654C251.516,94.061 246.218,95.552 244.69,95.968C225.103,101.301 193.478,104.871 176.824,103.63C172.155,103.282 168.864,102.62 166.378,101.529C162.85,99.981 161.15,100.598 155.79,105.375C147.934,112.376 141.174,115.55 134.115,115.55C128.096,115.55 123.64,113.322 119.674,108.332C118.801,107.233 117.624,106.031 117.058,105.661C115.108,104.385 113.226,104.445 103.667,106.088C99.684,106.772 98.032,106.931 94.803,106.938C90.175,106.948 89.043,106.685 82.765,104.143C80.644,103.284 78.515,102.588 78.004,102.587C76.81,102.584 74.874,103.908 73.088,105.947C71.315,107.971 68.065,112.296 66.516,114.69C63.841,118.828 63.662,120.128 65.302,123.52C65.884,124.723 66.36,125.918 66.36,126.175C66.36,126.73 65.508,126.984 61.73,127.553C52.41,128.958 42.396,129.622 39.783,129.01L39.783,129.01ZM-23.48,111.912C-22.975,111.221 -21.229,108.036 -19.599,104.834C-15.746,97.267 -13.281,92.91 -11.643,90.773C-7.026,84.749 2.757,68.056 3.919,64.22C4.454,62.452 5.62,60.335 7.778,57.209C9.782,54.307 12.425,49.004 15.155,42.41C16.416,39.364 18.331,34.884 19.411,32.455C21.743,27.212 22.267,25.371 22.128,22.908C21.96,19.934 20.785,18.886 17.168,18.481C14.091,18.137 12.868,17.108 13.696,15.56C14.147,14.718 15.725,14.467 20.413,14.493C25.44,14.52 25.671,14.451 27.561,12.349C29.121,10.614 31.221,6.326 34.357,-1.528C38.157,-11.047 41.08,-16.57 42.602,-17.111C46.148,-18.371 49.331,-10.831 49.458,-0.867C49.492,1.858 49.723,3.412 50.022,2.939C50.687,1.886 53.238,-10.51 53.687,-14.874C54.281,-20.634 53.697,-26.701 52.081,-31.559C51.326,-33.83 48.974,-38.726 47.333,-41.443C44.752,-45.716 42.917,-47.169 40.102,-47.169C36.906,-47.169 32.049,-43.59 25.767,-36.606C15.498,-25.191 2.303,-6.15 -4.133,6.541C-6.198,10.615 -7.126,13.162 -7.486,15.745C-7.824,18.178 -8.613,20.416 -10.772,25.062C-16.064,36.455 -18.819,46.143 -21.196,61.707C-24.082,80.612 -26.579,109.095 -25.643,112.441C-25.33,113.561 -24.543,113.369 -23.48,111.912ZM136.343,108.841C143.388,106.961 154.378,96.315 155.794,89.999C156.153,88.394 155.572,86.49 154.428,85.527C152.69,84.065 150.198,84.907 145.212,88.641C141.351,91.531 138.677,93.119 135.459,94.432C131.281,96.136 129.412,97.621 128.401,100.04C127.901,101.238 127.898,103.132 128.394,104.32C129.155,106.14 132.936,109.157 134.491,109.184C134.782,109.189 135.615,109.035 136.343,108.841L136.343,108.841ZM130.819,90.544C133.94,88.561 145.797,78.681 149.654,74.849C155.038,69.5 157.049,66.333 163.145,53.599C165.76,48.137 168.73,42.641 170.247,40.456C171.924,38.04 172.368,37.064 173.362,33.592C175.662,25.559 177.066,12.985 176.143,8.681C175.817,7.163 174.904,5.661 174.228,5.53C173.065,5.306 166.091,13.236 158.112,23.853C150.136,34.467 145.862,41.246 141.005,50.991C132.051,68.957 125.344,88.207 126.976,91.257C127.398,92.046 128.891,91.769 130.819,90.544ZM167.656,76.167C168.77,75.053 170.858,71.109 174.26,63.691C177.5,56.628 179.696,50.81 180.389,47.457C180.802,45.46 180.482,45.098 179.396,46.336C178.123,47.785 176.892,50.067 171.036,61.839C165.369,73.231 164.627,75.121 165.271,76.533C165.696,77.467 166.475,77.347 167.656,76.167ZM97.052,-22.686C97.052,-25.539 100.821,-32.352 102.399,-32.352C102.875,-32.352 102.926,-32.228 102.809,-31.357C102.509,-29.122 100.2,-24.472 98.489,-22.657C97.423,-21.527 97.052,-21.534 97.052,-22.686L97.052,-22.686Z" style="fill:rgb(43,63,255);fill-rule:nonzero;stroke:rgb(0,22,255);stroke-width:0.26px;"/>
            </g>
        </g>
    </g>
</svg>
