<?xml version="1.0" encoding="UTF-8" standalone="no"?>
<!DOCTYPE svg PUBLIC "-//W3C//DTD SVG 1.1//EN" "http://www.w3.org/Graphics/SVG/1.1/DTD/svg11.dtd">
<svg width="100%" height="100%" viewBox="0 0 486 518" version="1.1" xmlns="http://www.w3.org/2000/svg" xmlns:xlink="http://www.w3.org/1999/xlink" xml:space="preserve" xmlns:serif="http://www.serif.com/" style="fill-rule:evenodd;clip-rule:evenodd;stroke-linejoin:round;stroke-miterlimit:2;">
    <g transform="matrix(1,0,0,1,-985.377,-825.241)">
        <g transform="matrix(3.77953,0,0,3.77953,302.146,634.138)">
            <path id="path1" d="M243.647,187.441C243.586,187.384 242.583,187.265 241.419,187.178C239.202,187.011 238.764,186.946 238.112,186.688C237.894,186.601 236.941,186.46 235.995,186.373C235.049,186.287 234.236,186.098 234.187,185.954C234.139,185.81 233.603,185.688 232.997,185.684C232.39,185.679 231.663,185.5 231.381,185.287C231.098,185.073 230.528,184.898 230.115,184.898C229.701,184.898 229.082,184.715 228.741,184.491C228.399,184.267 228.016,184.114 227.89,184.151C227.764,184.187 227.409,184.077 227.1,183.905C226.792,183.734 226.482,183.652 226.411,183.723C226.339,183.795 226.131,183.671 225.946,183.449C225.762,183.228 225.358,183.045 225.049,183.045C224.739,183.044 224.137,182.861 223.711,182.639C223.285,182.417 222.724,182.202 222.466,182.163C222.207,182.124 221.782,181.909 221.521,181.686C220.937,181.188 218.669,180.136 218.18,180.136C217.983,180.136 217.602,179.893 217.334,179.597C217.066,179.301 216.711,179.111 216.546,179.174C216.381,179.237 216.105,179.063 215.932,178.786C215.759,178.51 215.492,178.284 215.338,178.284C215.184,178.284 214.668,177.986 214.191,177.622C213.714,177.258 213.203,176.961 213.056,176.961C212.909,176.961 212.488,176.693 212.12,176.365C211.057,175.419 209.421,174.184 209.229,174.183C209.132,174.183 208.82,173.915 208.536,173.587C208.252,173.26 207.915,172.987 207.786,172.981C207.658,172.975 207.261,172.617 206.904,172.187C206.547,171.757 206.108,171.405 205.929,171.405C205.75,171.405 205.527,171.163 205.434,170.868C205.34,170.573 205.124,170.36 204.953,170.393C204.545,170.473 202.658,168.762 202.658,168.313C202.658,168.122 202.487,167.965 202.279,167.965C202.071,167.965 201.628,167.578 201.295,167.105C200.536,166.024 200.111,165.584 199.829,165.584C199.708,165.584 199.486,165.316 199.337,164.988C199.188,164.661 198.913,164.426 198.726,164.466C198.538,164.506 198.447,164.439 198.522,164.317C198.597,164.195 198.203,163.597 197.646,162.987C197.089,162.378 196.709,161.876 196.801,161.871C196.894,161.866 196.706,161.643 196.385,161.374C196.064,161.106 195.856,160.832 195.924,160.764C195.991,160.697 195.808,160.425 195.516,160.161C195.224,159.897 194.985,159.517 194.985,159.317C194.985,159.116 194.806,158.884 194.588,158.8C194.37,158.716 194.191,158.478 194.191,158.271C194.191,158.064 194.013,157.826 193.794,157.742C193.576,157.658 193.397,157.436 193.397,157.249C193.397,157.062 193.219,156.841 193.001,156.757C192.782,156.673 192.604,156.377 192.604,156.099C192.604,155.822 192.428,155.448 192.212,155.27C191.997,155.091 191.64,154.6 191.419,154.179C191.197,153.758 190.83,153.058 190.603,152.624C190.375,152.191 190.077,151.767 189.941,151.683C189.805,151.599 189.693,151.311 189.693,151.044C189.693,150.777 189.515,150.491 189.296,150.407C189.078,150.323 188.897,149.983 188.894,149.651C188.891,149.319 188.655,148.75 188.37,148.386C188.086,148.022 187.85,147.523 187.847,147.277C187.844,147.031 187.722,146.756 187.577,146.666C187.431,146.576 187.312,146.284 187.312,146.017C187.312,145.75 187.151,145.47 186.953,145.394C186.756,145.319 186.524,144.821 186.438,144.288C186.253,143.152 185.681,141.771 185.395,141.771C185.285,141.771 185.195,141.54 185.195,141.258C185.195,140.975 185.092,140.68 184.965,140.602C184.839,140.524 184.655,139.957 184.557,139.343C184.459,138.728 184.277,138.101 184.154,137.948C184.031,137.795 183.785,136.956 183.608,136.083C183.431,135.21 183.196,134.376 183.085,134.231C182.975,134.085 182.819,133.205 182.739,132.275C182.658,131.345 182.467,130.507 182.314,130.412C182.044,130.245 181.694,127.638 181.727,126.04C181.736,125.61 181.623,125.184 181.477,125.094C181.105,124.864 180.756,114.1 181.061,112.277C181.134,111.844 181.067,111.338 180.913,111.153C180.711,110.91 180.724,110.815 180.958,110.815C181.138,110.815 181.215,110.638 181.131,110.418C181.047,110.2 181.101,110.021 181.25,110.021C181.4,110.021 181.432,109.875 181.322,109.696C181.074,109.296 181.088,108.457 181.352,107.834C181.462,107.578 181.489,107.131 181.413,106.842C181.338,106.553 181.377,106.317 181.499,106.317C181.622,106.317 181.726,106.109 181.73,105.854C181.755,104.306 182.032,102.238 182.234,102.106C182.363,102.021 182.486,101.773 182.507,101.555C182.65,100.023 183.035,98.318 183.297,98.056C183.468,97.885 183.608,97.407 183.608,96.995C183.608,96.583 183.78,95.833 183.991,95.328C184.202,94.824 184.322,94.411 184.258,94.411C184.105,94.411 184.866,92.362 185.364,91.434C185.579,91.034 185.681,90.707 185.592,90.707C185.503,90.707 185.606,90.379 185.821,89.979C186.291,89.105 186.615,88.257 186.569,88.02C186.55,87.925 186.71,87.702 186.924,87.525C187.137,87.347 187.312,86.934 187.312,86.606C187.312,86.277 187.491,85.861 187.709,85.68C187.927,85.498 188.106,85.134 188.106,84.869C188.106,84.604 188.225,84.314 188.371,84.224C188.517,84.134 188.874,83.539 189.164,82.901C189.454,82.264 189.813,81.668 189.961,81.576C190.109,81.485 190.405,81.031 190.618,80.568C191.148,79.418 191.615,78.708 192.008,78.457C192.19,78.34 192.339,78.017 192.339,77.738C192.339,77.46 192.577,77.104 192.868,76.948C193.159,76.793 193.397,76.478 193.397,76.249C193.397,76.021 193.695,75.6 194.059,75.314C194.423,75.027 194.72,74.623 194.72,74.416C194.72,74.208 194.814,74.038 194.928,74.038C195.042,74.038 195.335,73.71 195.58,73.31C195.825,72.91 196.505,72.056 197.092,71.413C197.679,70.77 198.16,70.153 198.16,70.042C198.16,69.931 198.398,69.765 198.689,69.672C198.98,69.58 199.218,69.334 199.218,69.125C199.218,68.917 199.309,68.746 199.419,68.746C199.53,68.746 200.608,67.794 201.815,66.63C203.022,65.465 204.118,64.513 204.251,64.513C204.383,64.513 204.619,64.275 204.774,63.984C204.93,63.693 205.206,63.455 205.386,63.455C205.567,63.455 205.912,63.246 206.152,62.992C206.869,62.232 207.368,61.874 208.091,61.599C208.467,61.456 208.701,61.22 208.611,61.074C208.521,60.928 208.696,60.809 209.001,60.809C209.305,60.809 209.622,60.63 209.706,60.412C209.79,60.194 210.084,60.015 210.359,60.015C210.635,60.015 210.86,59.902 210.86,59.765C210.86,59.517 211.544,59.09 213.143,58.34C213.598,58.127 214.051,57.821 214.151,57.661C214.25,57.5 214.553,57.369 214.825,57.369C215.097,57.369 215.484,57.205 215.685,57.005C215.885,56.804 216.421,56.558 216.876,56.458C217.331,56.358 217.844,56.106 218.018,55.897C218.191,55.688 218.481,55.517 218.662,55.517C219.075,55.517 221.794,54.414 221.972,54.174C222.045,54.076 222.521,53.908 223.031,53.8C223.54,53.692 224.076,53.514 224.221,53.404C224.367,53.295 224.962,53.119 225.544,53.014C226.126,52.91 226.741,52.709 226.911,52.569C227.081,52.429 227.8,52.271 228.509,52.218C230.364,52.08 231.762,51.788 231.762,51.538C231.762,51.419 232.149,51.327 232.622,51.335C233.095,51.343 234.256,51.266 235.202,51.165C236.147,51.064 237.183,50.988 237.504,50.996C237.824,51.004 238.157,50.896 238.243,50.756C238.341,50.597 238.589,50.618 238.897,50.81C239.278,51.048 239.483,51.044 239.787,50.792C240.068,50.559 240.233,50.548 240.361,50.755C240.49,50.963 240.646,50.957 240.914,50.735C241.18,50.514 241.385,50.506 241.627,50.707C241.85,50.892 242.322,50.909 243.001,50.756C243.57,50.627 244.162,50.603 244.315,50.702C244.469,50.801 245.071,50.894 245.653,50.907C246.622,50.931 249.647,51.199 251.4,51.418C251.796,51.467 252.272,51.603 252.458,51.72C252.644,51.837 253.028,51.894 253.311,51.847C253.844,51.759 255.617,52.209 256.445,52.641C256.706,52.778 257.02,52.827 257.144,52.75C257.42,52.579 264.232,54.808 264.62,55.197C264.774,55.35 265.048,55.419 265.229,55.349C265.411,55.279 265.995,55.467 266.528,55.767C267.061,56.066 267.703,56.311 267.954,56.311C268.206,56.311 268.56,56.549 268.742,56.84C268.924,57.131 269.286,57.369 269.547,57.369C269.807,57.369 270.134,57.474 270.272,57.602C270.41,57.73 270.96,57.974 271.494,58.144C272.029,58.315 272.609,58.627 272.784,58.838C272.959,59.049 273.321,59.221 273.589,59.221C273.857,59.221 274.192,59.436 274.332,59.699C274.473,59.962 275.071,60.408 275.662,60.691C276.252,60.974 276.736,61.295 276.738,61.404C276.74,61.513 276.898,61.602 277.09,61.602C277.282,61.602 277.84,61.96 278.329,62.396C278.818,62.833 279.331,63.19 279.47,63.19C279.608,63.19 279.914,63.411 280.15,63.681C280.385,63.952 280.846,64.257 281.173,64.361C281.5,64.464 281.768,64.711 281.768,64.91C281.768,65.108 281.977,65.337 282.233,65.419C282.489,65.5 283.259,66.103 283.943,66.759C284.628,67.416 285.257,67.952 285.34,67.952C285.423,67.952 286.235,68.726 287.144,69.672C288.054,70.618 288.929,71.392 289.091,71.392C289.252,71.392 289.458,71.69 289.55,72.054C289.641,72.417 289.892,72.715 290.108,72.715C290.323,72.715 290.499,72.819 290.499,72.947C290.499,73.074 290.976,73.684 291.558,74.302C292.14,74.921 292.616,75.572 292.616,75.75C292.616,75.928 293.033,76.502 293.542,77.027C294.052,77.551 294.468,78.085 294.468,78.212C294.468,78.339 294.766,78.723 295.13,79.065C295.493,79.407 295.791,79.808 295.791,79.957C295.791,80.105 296.072,80.531 296.416,80.903C296.759,81.274 297.385,82.233 297.805,83.034C298.225,83.834 298.654,84.553 298.757,84.63C298.861,84.708 299.137,85.185 299.371,85.689C300.143,87.354 300.579,88.061 300.833,88.061C300.97,88.061 301.083,88.241 301.083,88.461C301.083,88.682 301.188,89.068 301.317,89.321C301.445,89.574 301.7,90.138 301.883,90.574C302.522,92.1 303.057,93.088 303.243,93.088C303.347,93.088 303.515,93.653 303.617,94.345C303.719,95.036 303.875,95.661 303.964,95.734C304.276,95.99 304.787,97.054 304.787,97.45C304.787,97.67 304.893,97.85 305.022,97.85C305.151,97.85 305.34,98.416 305.443,99.107C305.546,99.798 305.724,100.483 305.84,100.629C305.955,100.774 306.137,101.31 306.245,101.819C306.353,102.328 306.535,102.806 306.65,102.879C306.765,102.953 306.918,103.667 306.991,104.467C307.152,106.233 307.44,107.681 307.701,108.037C307.808,108.182 307.98,109.313 308.084,110.55C308.188,111.787 308.371,112.918 308.491,113.064C308.611,113.209 308.7,113.626 308.688,113.99C308.648,115.241 309.037,122.297 309.151,122.411C309.215,122.475 309.139,122.764 308.984,123.054C308.77,123.453 308.789,123.639 309.059,123.813C309.356,124.004 309.349,124.09 309.02,124.309C308.691,124.528 308.685,124.613 308.982,124.805C309.185,124.935 309.232,125.104 309.091,125.191C308.954,125.276 308.833,126.617 308.822,128.171C308.807,130.221 308.705,131.059 308.448,131.224C308.154,131.414 308.155,131.492 308.455,131.685C308.66,131.818 308.7,131.96 308.548,132.016C308.4,132.07 308.201,132.943 308.106,133.957C308.01,134.971 307.832,135.924 307.711,136.074C307.589,136.224 307.422,136.824 307.339,137.406C307.108,139.016 306.888,139.997 306.626,140.581C306.496,140.872 306.215,141.824 306.002,142.697C305.521,144.673 304.714,146.91 304.307,147.401C304.137,147.606 304.058,147.833 304.131,147.907C304.309,148.084 303.545,149.892 303.204,150.103C303.056,150.194 302.935,150.446 302.935,150.663C302.935,150.88 302.697,151.55 302.406,152.152C302.115,152.755 301.877,153.389 301.877,153.562C301.877,153.736 301.698,154.025 301.48,154.207C301.261,154.388 301.083,154.763 301.083,155.041C301.083,155.319 300.913,155.612 300.704,155.691C300.496,155.771 300.199,156.154 300.043,156.543C299.652,157.518 298.751,158.993 298.147,159.648C297.87,159.948 297.643,160.366 297.643,160.576C297.643,160.786 297.405,161.107 297.114,161.289C296.823,161.471 296.585,161.857 296.585,162.146C296.585,162.438 296.408,162.673 296.188,162.673C295.97,162.673 295.791,162.907 295.791,163.193C295.791,163.479 295.553,163.84 295.262,163.996C294.971,164.152 294.732,164.424 294.731,164.601C294.73,164.778 294.134,165.557 293.408,166.332C292.681,167.107 292.087,167.851 292.087,167.986C292.087,168.12 291.908,168.23 291.69,168.23C291.472,168.23 291.293,168.408 291.293,168.626C291.293,168.845 291.135,169.023 290.941,169.023C290.747,169.023 290.431,169.319 290.237,169.68C290.044,170.042 289.667,170.407 289.399,170.492C289.131,170.577 288.912,170.809 288.912,171.008C288.912,171.206 288.685,171.441 288.407,171.529C288.13,171.617 287.836,171.863 287.754,172.076C287.673,172.289 287.423,172.463 287.201,172.463C286.978,172.463 286.795,172.645 286.795,172.868C286.795,173.091 286.587,173.352 286.332,173.448C286.078,173.544 285.518,173.972 285.089,174.398C284.66,174.824 283.97,175.291 283.554,175.436C283.139,175.581 282.868,175.767 282.951,175.85C283.08,175.979 282.291,176.565 280.206,177.891C278.592,178.918 277.39,179.768 277.314,179.937C277.266,180.046 277.067,180.136 276.873,180.136C276.448,180.136 274.793,180.98 274.669,181.26C274.62,181.369 274.359,181.459 274.089,181.459C273.819,181.459 273.524,181.578 273.434,181.723C273.344,181.869 273.082,181.988 272.852,181.988C272.622,181.988 272.298,182.174 272.131,182.402C271.964,182.63 271.326,182.884 270.713,182.966C270.099,183.049 269.597,183.219 269.597,183.346C269.597,183.472 269.359,183.575 269.068,183.575C268.777,183.575 268.539,183.694 268.539,183.84C268.539,183.985 268.308,184.105 268.026,184.105C267.743,184.105 267.445,184.213 267.363,184.346C267.281,184.479 266.708,184.671 266.09,184.773C265.473,184.875 264.848,185.05 264.703,185.162C264.557,185.275 264.021,185.454 263.512,185.56C263.003,185.667 262.476,185.82 262.342,185.899C262.207,185.979 261.791,186.067 261.416,186.095C260.319,186.176 256.537,186.794 256.104,186.964C255.885,187.049 255.409,187.151 255.045,187.19C253.791,187.325 243.758,187.546 243.647,187.441L243.647,187.441ZM243.933,185.412C243.933,185.255 244.078,185.222 244.264,185.337C244.702,185.608 250.285,185.638 250.45,185.37C250.521,185.255 250.826,185.293 251.126,185.454C251.468,185.637 251.735,185.651 251.838,185.493C251.928,185.354 252.36,185.227 252.796,185.211C253.233,185.195 254.304,185.109 255.178,185.019C256.051,184.929 257.063,184.854 257.427,184.853C257.79,184.852 258.207,184.755 258.353,184.637C258.588,184.446 262.46,183.536 264.775,183.128C265.252,183.044 265.705,182.872 265.783,182.746C265.861,182.62 266.141,182.517 266.406,182.517C266.67,182.517 267.032,182.342 267.21,182.127C267.388,181.913 267.94,181.661 268.436,181.568C268.933,181.475 269.404,181.293 269.484,181.164C269.563,181.035 269.919,180.93 270.274,180.93C270.63,180.93 270.92,180.81 270.92,180.665C270.92,180.519 271.158,180.4 271.449,180.4C271.741,180.4 271.979,180.281 271.979,180.136C271.979,179.99 272.276,179.871 272.64,179.871C273.004,179.871 273.302,179.763 273.302,179.63C273.302,179.395 274.818,178.585 276.278,178.039C276.678,177.89 277.006,177.646 277.006,177.496C277.006,177.347 277.244,177.225 277.535,177.225C277.829,177.225 278.064,177.049 278.064,176.828C278.064,176.606 278.3,176.432 278.602,176.432C278.897,176.432 279.208,176.253 279.291,176.035C279.375,175.816 279.603,175.638 279.799,175.638C279.994,175.638 280.47,175.345 280.857,174.986C281.243,174.628 281.906,174.181 282.329,173.994C282.755,173.805 283.041,173.507 282.97,173.323C282.899,173.138 283.044,172.99 283.298,172.988C283.548,172.986 284.279,172.51 284.922,171.93C285.565,171.35 286.19,170.875 286.311,170.875C286.432,170.875 286.531,170.697 286.531,170.478C286.531,170.26 286.626,170.082 286.742,170.082C286.985,170.082 289.97,167.282 289.97,167.055C289.97,166.972 290.506,166.375 291.161,165.73C291.816,165.084 292.352,164.456 292.352,164.335C292.352,164.213 292.59,163.941 292.881,163.732C293.172,163.522 293.41,163.219 293.41,163.059C293.41,162.9 293.708,162.51 294.071,162.194C294.435,161.877 294.733,161.439 294.733,161.22C294.733,161.001 294.826,160.821 294.94,160.821C295.054,160.821 295.372,160.434 295.645,159.961C295.918,159.488 296.48,158.668 296.893,158.137C297.305,157.607 297.643,157.011 297.643,156.812C297.643,156.613 297.881,156.302 298.172,156.12C298.463,155.938 298.702,155.567 298.702,155.295C298.702,155.023 298.883,154.65 299.105,154.466C299.327,154.282 299.452,154.076 299.384,154.008C299.316,153.94 299.53,153.45 299.858,152.921C300.361,152.111 301.271,150.034 302.137,147.724C302.51,146.729 302.999,145.608 303.379,144.88C303.588,144.48 303.688,144.152 303.602,144.152C303.516,144.152 303.598,143.885 303.784,143.557C304.152,142.912 304.181,142.788 304.227,141.724C304.244,141.334 304.444,140.829 304.672,140.602C304.899,140.374 305.008,140.063 304.913,139.91C304.819,139.757 304.881,139.463 305.052,139.258C305.222,139.052 305.293,138.774 305.21,138.639C305.127,138.504 305.23,137.823 305.44,137.127C305.649,136.43 305.765,135.77 305.696,135.659C305.628,135.548 305.693,135.383 305.842,135.291C305.99,135.199 306.039,134.834 305.95,134.479C305.852,134.089 305.903,133.834 306.078,133.834C306.238,133.834 306.361,133.566 306.351,133.238C306.341,132.911 306.39,132.286 306.461,131.849C306.531,131.413 306.675,129.865 306.78,128.41C306.885,126.955 307.105,125.675 307.268,125.565C307.478,125.425 307.453,125.295 307.185,125.123C306.881,124.927 306.87,124.8 307.132,124.485C307.354,124.217 307.369,124.036 307.18,123.919C306.991,123.802 306.987,123.589 307.168,123.25C307.349,122.912 307.345,122.698 307.156,122.581C306.966,122.464 306.979,122.287 307.197,122.025C307.435,121.738 307.44,121.564 307.216,121.34C306.993,121.117 306.993,120.948 307.216,120.679C307.44,120.41 307.44,120.241 307.216,120.018C307.003,119.805 306.998,119.619 307.197,119.379C307.352,119.193 307.388,118.894 307.278,118.716C307.168,118.537 307.055,117.907 307.028,117.315C307.001,116.723 306.905,116.06 306.815,115.842C306.725,115.624 306.657,115.028 306.663,114.519C306.678,113.351 306.426,111.336 306.2,110.815C306.105,110.597 306.001,110.061 305.969,109.624C305.937,109.188 305.734,108.067 305.517,107.134C305.301,106.201 305.181,105.219 305.251,104.951C305.321,104.684 305.259,104.465 305.113,104.465C304.967,104.465 304.767,103.932 304.67,103.28C304.572,102.629 304.39,102.033 304.266,101.956C304.141,101.879 303.956,101.311 303.854,100.693C303.752,100.076 303.577,99.451 303.465,99.306C303.353,99.16 303.18,98.662 303.081,98.199C302.982,97.736 302.742,97.226 302.549,97.065C302.355,96.905 302.114,96.331 302.013,95.79C301.912,95.25 301.711,94.664 301.566,94.489C301.421,94.313 301.375,94.051 301.464,93.906C301.554,93.762 301.396,93.52 301.114,93.369C300.803,93.203 300.532,92.683 300.425,92.048C300.327,91.473 300.078,90.861 299.872,90.689C299.665,90.518 299.493,90.183 299.49,89.947C299.487,89.71 299.251,89.218 298.966,88.855C298.682,88.491 298.446,87.997 298.443,87.758C298.44,87.519 298.251,87.252 298.023,87.165C297.776,87.07 297.643,86.765 297.693,86.409C297.744,86.04 297.649,85.837 297.445,85.878C297.251,85.917 297.114,85.671 297.114,85.283C297.114,84.871 296.964,84.621 296.717,84.621C296.47,84.621 296.32,84.371 296.32,83.96C296.32,83.548 296.17,83.298 295.924,83.298C295.703,83.298 295.527,83.063 295.527,82.769C295.527,82.475 295.35,82.24 295.13,82.24C294.911,82.24 294.733,82.061 294.733,81.843C294.733,81.625 294.525,81.226 294.27,80.957C293.413,80.051 292.881,79.325 292.881,79.062C292.881,78.918 292.702,78.8 292.484,78.8C292.263,78.8 292.087,78.565 292.087,78.271C292.087,77.98 291.988,77.742 291.867,77.742C291.746,77.742 291.488,77.444 291.293,77.081C291.099,76.717 290.794,76.419 290.616,76.419C290.438,76.419 290.218,76.121 290.126,75.758C290.035,75.394 289.814,75.092 289.635,75.087C289.455,75.082 288.972,74.545 288.561,73.896C288.149,73.246 287.69,72.715 287.54,72.715C287.391,72.715 287.033,72.416 286.746,72.051C286.459,71.686 286.114,71.455 285.98,71.537C285.847,71.62 285.735,71.532 285.733,71.342C285.728,70.891 284.415,69.423 283.819,69.2C283.564,69.105 283.356,68.845 283.356,68.622C283.356,68.393 283.125,68.217 282.827,68.217C282.533,68.217 282.297,68.041 282.297,67.82C282.297,67.602 282.183,67.423 282.042,67.423C281.902,67.423 281.366,67.054 280.851,66.602C280.337,66.15 279.916,65.879 279.916,66C279.916,66.12 279.731,65.953 279.504,65.63C279.278,65.307 278.869,65.042 278.596,65.042C278.323,65.042 278.024,64.804 277.932,64.513C277.839,64.222 277.589,63.984 277.374,63.984C276.939,63.984 275.399,62.969 275.079,62.471C274.966,62.294 274.37,61.906 273.756,61.61C273.142,61.313 271.747,60.593 270.656,60.011C269.564,59.428 268.433,58.877 268.142,58.787C267.851,58.696 267.296,58.4 266.91,58.127C266.523,57.855 266.032,57.699 265.819,57.78C265.606,57.862 265.253,57.749 265.033,57.53C264.814,57.31 264.293,57.051 263.875,56.954C263.457,56.857 262.832,56.6 262.486,56.383C262.14,56.167 261.485,55.933 261.031,55.865C260.576,55.796 259.941,55.571 259.619,55.364C259.296,55.157 258.562,54.988 257.987,54.988C257.412,54.988 256.902,54.898 256.853,54.788C256.713,54.47 252.134,53.508 249.734,53.293C249.09,53.236 248.563,53.168 248.563,53.144C248.563,52.974 246.368,52.856 242.742,52.831C237.588,52.796 236.448,52.868 236.202,53.243C236.065,53.451 235.87,53.445 235.508,53.221C235.177,53.016 234.916,52.998 234.744,53.17C234.6,53.314 233.743,53.476 232.839,53.532C231.935,53.587 231.035,53.764 230.841,53.926C230.646,54.087 229.806,54.271 228.973,54.335C228.14,54.399 227.314,54.572 227.137,54.719C226.959,54.867 226.26,55.063 225.584,55.156C224.907,55.249 224.354,55.427 224.354,55.553C224.354,55.679 224.179,55.782 223.965,55.782C223.751,55.782 223.177,56.006 222.69,56.279C222.203,56.553 221.396,56.86 220.896,56.963C219.821,57.183 216.152,58.971 216.152,59.275C216.152,59.391 215.794,59.486 215.358,59.486C214.829,59.486 214.564,59.618 214.564,59.883C214.564,60.101 214.341,60.28 214.067,60.28C213.794,60.28 213.422,60.458 213.241,60.676C213.06,60.895 212.789,61.073 212.638,61.073C212.488,61.073 211.975,61.371 211.498,61.735C211.021,62.099 210.504,62.396 210.348,62.396C210.193,62.396 210.066,62.504 210.066,62.635C210.066,62.766 209.7,63.001 209.253,63.157C208.805,63.313 208.515,63.563 208.607,63.712C208.699,63.862 208.569,63.984 208.318,63.984C208.067,63.984 207.673,64.157 207.443,64.368C206.112,65.589 205.821,65.836 205.709,65.836C205.641,65.836 204.956,66.447 204.188,67.193C203.419,67.94 202.522,68.728 202.195,68.944C201.867,69.16 201.6,69.493 201.6,69.685C201.6,69.877 201.361,70.109 201.07,70.201C200.779,70.294 200.541,70.489 200.541,70.635C200.541,70.987 199.86,71.657 199.502,71.657C199.346,71.657 199.212,71.805 199.205,71.987C199.198,72.169 198.723,72.794 198.149,73.376C197.575,73.958 197.105,74.584 197.104,74.765C197.103,74.947 196.992,75.096 196.858,75.096C196.52,75.096 193.927,78.705 193.927,79.175C193.927,79.386 193.689,79.634 193.397,79.726C193.062,79.833 192.868,80.127 192.868,80.529C192.868,80.892 192.642,81.284 192.339,81.446C192.048,81.602 191.81,81.847 191.81,81.99C191.81,82.133 191.512,82.722 191.149,83.298C190.785,83.875 190.487,84.512 190.487,84.716C190.487,84.919 190.308,85.234 190.09,85.415C189.872,85.596 189.693,85.919 189.693,86.133C189.693,86.347 189.455,86.825 189.164,87.195C188.873,87.565 188.635,88.087 188.635,88.355C188.635,88.623 188.263,89.53 187.809,90.37C187.354,91.21 187.01,91.897 187.043,91.897C187.076,91.897 186.975,92.373 186.819,92.956C186.662,93.538 186.522,94.133 186.507,94.278C186.492,94.424 186.303,94.74 186.085,94.98C185.867,95.221 185.716,95.578 185.749,95.774C185.805,96.113 185.686,96.529 185.192,97.718C185.071,98.009 184.965,98.426 184.957,98.644C184.932,99.294 184.788,100.037 184.467,101.158C184.301,101.74 184.103,102.692 184.027,103.274C183.952,103.856 183.778,104.809 183.641,105.391C183.338,106.675 183.067,109.543 183.028,111.873C183.012,112.819 182.868,113.761 182.708,113.967C182.493,114.243 182.504,114.37 182.75,114.452C182.932,114.514 183.028,114.651 182.963,114.757C182.68,115.214 182.854,121.962 183.167,122.721C183.257,122.939 183.323,123.535 183.312,124.044C183.282,125.563 183.58,127.303 183.905,127.504C184.093,127.62 184.139,127.97 184.025,128.422C183.924,128.824 183.957,129.462 184.097,129.839C184.237,130.217 184.437,130.765 184.542,131.056C184.646,131.347 184.752,132.087 184.778,132.7C184.803,133.313 184.908,133.899 185.01,134.001C185.112,134.103 185.195,134.457 185.195,134.788C185.195,135.119 185.294,135.451 185.415,135.526C185.536,135.601 185.782,136.32 185.962,137.124C186.142,137.929 186.401,138.656 186.536,138.74C186.672,138.823 186.783,139.189 186.783,139.552C186.783,139.916 187.133,140.891 187.56,141.72C187.988,142.548 188.408,143.661 188.493,144.193C188.579,144.725 188.81,145.221 189.006,145.296C189.202,145.372 189.443,145.866 189.542,146.394C189.641,146.923 189.901,147.424 190.119,147.508C190.342,147.593 190.483,147.912 190.441,148.234C190.399,148.551 190.631,149.147 190.955,149.559C191.28,149.972 191.545,150.421 191.545,150.557C191.545,150.693 191.724,150.983 191.942,151.202C192.161,151.42 192.339,151.828 192.339,152.109C192.339,152.389 192.458,152.619 192.604,152.619C192.749,152.619 192.868,152.93 192.868,153.309C192.868,153.813 192.975,153.958 193.265,153.846C193.536,153.742 193.662,153.862 193.662,154.223C193.662,154.514 193.841,154.821 194.059,154.905C194.277,154.988 194.456,155.342 194.456,155.69C194.456,156.077 194.611,156.323 194.853,156.323C195.071,156.323 195.25,156.479 195.25,156.668C195.25,156.858 195.666,157.469 196.176,158.025C196.685,158.581 197.102,159.199 197.102,159.399C197.102,159.599 197.28,159.763 197.499,159.763C197.717,159.763 197.895,159.972 197.895,160.228C197.895,160.484 198.134,160.843 198.425,161.024C198.716,161.206 198.954,161.532 198.954,161.749C198.954,161.967 199.136,162.144 199.359,162.144C199.582,162.144 199.844,162.352 199.941,162.607C200.038,162.862 200.511,163.441 200.991,163.895C201.471,164.349 201.864,164.847 201.864,165.002C201.864,165.157 202.083,165.353 202.351,165.438C202.619,165.523 202.996,165.888 203.189,166.25C203.383,166.611 203.647,166.907 203.776,166.907C204.054,166.907 205.568,168.521 205.568,168.818C205.568,168.931 205.733,169.023 205.935,169.023C206.136,169.023 206.503,169.331 206.75,169.708C206.996,170.084 207.267,170.323 207.352,170.239C207.436,170.154 207.672,170.322 207.875,170.612C208.078,170.903 208.373,171.14 208.53,171.14C208.687,171.14 209.081,171.408 209.407,171.735C210.298,172.631 211.409,173.521 211.635,173.521C211.746,173.521 212.052,173.759 212.315,174.05C212.579,174.341 213.01,174.58 213.273,174.58C213.536,174.58 213.879,174.818 214.035,175.109C214.191,175.4 214.446,175.638 214.601,175.638C214.757,175.638 215.238,175.936 215.671,176.299C216.103,176.663 216.626,176.961 216.833,176.961C217.041,176.961 217.21,177.08 217.21,177.225C217.21,177.371 217.397,177.49 217.625,177.49C217.853,177.49 218.429,177.788 218.906,178.151C219.383,178.515 219.869,178.813 219.985,178.813C220.102,178.813 221.064,179.23 222.123,179.739C223.181,180.248 224.281,180.665 224.565,180.665C224.85,180.665 225.219,180.829 225.386,181.03C225.552,181.231 226.073,181.485 226.543,181.596C227.67,181.862 227.586,181.832 228.195,182.172C228.489,182.336 229.175,182.554 229.719,182.656C230.264,182.758 230.771,182.94 230.845,183.061C230.92,183.182 231.543,183.362 232.231,183.461C232.919,183.561 233.634,183.763 233.819,183.911C234.004,184.059 234.228,184.108 234.317,184.019C234.405,183.931 234.683,183.969 234.934,184.103C235.185,184.237 235.854,184.373 236.421,184.403C236.987,184.434 237.586,184.562 237.752,184.687C237.918,184.812 239.228,184.988 240.663,185.077C242.098,185.166 243.311,185.341 243.36,185.466C243.485,185.788 243.933,185.746 243.933,185.412L243.933,185.412ZM242.593,181.091C242.53,181.029 241.942,180.915 241.287,180.84C239.108,180.587 237.724,180.041 237.631,179.398C237.584,179.076 237.376,178.813 237.168,178.813C236.397,178.813 236.653,174.156 237.474,173.236C237.68,173.006 237.847,172.687 237.847,172.527C237.847,172.183 240.181,171.876 241.684,172.023C242.266,172.08 243.007,172.142 243.331,172.162C243.904,172.197 243.916,172.263 243.785,174.513C243.655,176.72 243.471,178.984 243.306,180.385C243.235,180.986 242.862,181.355 242.593,181.091ZM241.691,178.879C241.909,178.362 241.957,178.06 242.188,175.725C242.382,173.769 242.035,173.257 240.515,173.257C239.257,173.257 238.52,174.009 238.48,175.335C238.464,175.865 238.353,176.53 238.234,176.813C238.094,177.144 238.127,177.363 238.329,177.43C238.501,177.487 238.641,177.735 238.641,177.98C238.641,179.025 241.298,179.809 241.691,178.879L241.691,178.879ZM261.637,180.863C261.624,180.682 261.594,179.404 261.571,178.024L261.528,175.514L259.543,174.849C257.5,174.163 256.162,173.415 256.549,173.176C256.67,173.101 257.244,172.954 257.825,172.849C258.406,172.744 259.001,172.566 259.146,172.452C259.292,172.339 259.857,172.162 260.403,172.06C261.504,171.855 261.414,172.158 261.49,168.366C261.541,165.853 262.258,165.707 263.134,168.031C263.231,168.286 263.474,168.494 263.675,168.494C263.876,168.494 264.041,168.681 264.041,168.91C264.041,169.139 264.209,169.494 264.414,169.699C264.62,169.904 264.828,170.186 264.877,170.325C264.976,170.604 267.418,170.177 267.891,169.798C268.043,169.676 268.671,169.495 269.285,169.397C270.301,169.235 270.385,169.263 270.221,169.716C270.122,169.99 269.882,170.393 269.688,170.611C268.844,171.561 268.01,172.688 268.01,172.877C268.01,172.99 267.822,173.29 267.593,173.543C267.208,173.969 267.285,174.16 268.585,176.023C269.36,177.134 270.109,178.21 270.249,178.415C270.578,178.895 270.243,179.239 269.802,178.874C269.617,178.721 269.017,178.512 268.47,178.41C267.923,178.307 267.415,178.127 267.342,178.008C267.269,177.89 266.785,177.653 266.266,177.482C265.416,177.201 265.261,177.23 264.682,177.773C264.33,178.105 264.041,178.515 264.041,178.686C264.041,178.856 263.789,179.222 263.482,179.499C263.174,179.777 262.82,180.271 262.694,180.599C262.453,181.229 261.676,181.423 261.637,180.863L261.637,180.863ZM231.552,178.804C231.017,178.371 230.971,178.109 230.991,175.64C231.003,174.159 230.951,172.886 230.876,172.811C230.629,172.564 230.174,173.013 230.174,173.504C230.174,173.769 229.999,174.131 229.785,174.309C229.57,174.487 229.32,175.029 229.229,175.514C229.139,175.998 228.897,176.459 228.693,176.537C228.489,176.616 228.322,176.877 228.322,177.118C228.322,177.471 228.156,177.523 227.463,177.384C226.991,177.29 226.376,176.984 226.096,176.704C225.669,176.277 225.643,176.129 225.934,175.778C226.125,175.548 226.206,175.285 226.113,175.193C226.021,175.101 226.052,174.895 226.182,174.736C226.312,174.577 226.46,173.971 226.51,173.389C226.561,172.807 226.696,172.262 226.81,172.177C226.924,172.093 227.116,171.399 227.237,170.635C227.49,169.033 228.013,168.36 228.809,168.613C229.333,168.779 229.346,168.915 228.949,170.015C228.765,170.525 228.564,171.58 228.534,172.198C228.524,172.417 228.428,172.714 228.323,172.86C228.217,173.005 228.05,173.461 227.952,173.872L227.773,174.619L228.436,174.136C228.801,173.871 229.103,173.488 229.108,173.286C229.118,172.829 230.143,170.681 230.726,169.894L231.16,169.31L231.986,169.92C232.441,170.255 232.731,170.612 232.63,170.713C232.389,170.954 232.347,175.564 232.581,175.944C232.681,176.105 232.849,175.715 232.954,175.077C233.06,174.44 233.273,173.68 233.429,173.389C233.584,173.098 233.755,172.443 233.809,171.934C233.93,170.785 234.12,170.585 234.897,170.788C235.365,170.911 235.473,171.08 235.359,171.507C235.276,171.815 235.207,172.325 235.205,172.642C235.203,172.959 235.014,173.406 234.786,173.635C234.557,173.863 234.487,174.05 234.63,174.05C234.87,174.05 234.809,174.348 234.193,176.167C234.12,176.385 234.082,176.666 234.11,176.79C234.139,176.915 234.04,177.164 233.89,177.344C233.741,177.524 233.68,177.733 233.756,177.808C233.832,177.884 233.78,178.245 233.641,178.611C233.336,179.413 232.41,179.498 231.552,178.804L231.552,178.804ZM221.974,174.713C221.709,174.395 221.699,174.218 221.931,173.986C222.099,173.818 222.237,173.469 222.237,173.212C222.237,172.954 222.475,172.32 222.766,171.801C223.057,171.283 223.295,170.632 223.295,170.354C223.295,170.076 223.414,169.775 223.56,169.685C223.706,169.595 223.96,168.982 224.126,168.324C224.466,166.975 224.874,166.697 225.858,167.146C226.471,167.425 226.498,167.497 226.14,167.908C225.922,168.158 225.666,168.796 225.571,169.327C225.476,169.859 225.217,170.443 224.996,170.627C224.775,170.81 224.662,171.137 224.745,171.353C224.828,171.569 224.726,171.937 224.519,172.17C224.313,172.404 223.965,173.131 223.748,173.786C223.318,175.078 222.591,175.458 221.974,174.713L221.974,174.713ZM214.82,170.746C214.046,169.962 212.504,168.759 212.273,168.759C212.142,168.759 211.824,168.511 211.565,168.209C211.195,167.777 211.161,167.578 211.406,167.283C211.851,166.747 212.381,166.817 212.723,167.456C212.885,167.76 213.18,167.943 213.381,167.866C213.584,167.788 213.971,168.036 214.255,168.426C214.753,169.11 214.781,169.116 215.458,168.672C215.84,168.422 216.148,168.071 216.143,167.893C216.13,167.435 215.205,166.377 214.817,166.377C214.245,166.377 213.27,165.131 213.591,164.811C213.997,164.405 214.708,164.458 215.093,164.922C215.274,165.141 215.56,165.319 215.728,165.319C215.896,165.319 216.248,165.569 216.509,165.874C216.983,166.428 216.988,166.425 217.912,164.948C218.891,163.382 219.505,163.11 220.059,163.996C220.241,164.287 220.279,164.525 220.144,164.525C220.008,164.525 219.819,164.883 219.723,165.319C219.628,165.756 219.461,166.113 219.353,166.113C219.132,166.113 217.739,168.161 217.739,168.485C217.739,168.6 217.554,168.848 217.327,169.036C217.1,169.224 216.749,169.774 216.547,170.259C216.147,171.215 215.471,171.406 214.82,170.746L214.82,170.746ZM243.31,166.725C243.259,166.674 242.574,166.566 241.789,166.485C241.004,166.404 240.004,166.28 239.567,166.21C239.131,166.14 238.565,166.064 238.31,166.041C238.056,166.018 237.847,165.923 237.847,165.828C237.847,165.734 237.249,165.587 236.518,165.5C235.787,165.413 235.043,165.251 234.865,165.14C234.513,164.92 234.408,164.887 233.217,164.624C232.781,164.527 232.328,164.287 232.212,164.09C232.095,163.893 231.738,163.731 231.418,163.73C231.098,163.729 230.495,163.551 230.078,163.333C229.661,163.116 229.114,162.938 228.862,162.938C228.61,162.938 228.189,162.7 227.926,162.409C227.662,162.118 227.223,161.88 226.95,161.88C226.677,161.88 226.385,161.701 226.301,161.483C226.218,161.264 226,161.086 225.817,161.086C225.635,161.086 225.047,160.788 224.511,160.424C223.975,160.061 223.409,159.763 223.254,159.763C223.099,159.763 222.403,159.287 221.708,158.705C221.013,158.122 220.316,157.646 220.159,157.646C220.002,157.646 219.747,157.408 219.591,157.117C219.435,156.826 219.163,156.585 218.987,156.581C218.588,156.572 216.681,154.824 216.681,154.468C216.681,154.324 216.57,154.207 216.434,154.207C216.079,154.207 213.241,151.41 213.241,151.06C213.241,150.899 213.071,150.767 212.862,150.767C212.654,150.767 212.411,150.54 212.323,150.262C212.235,149.985 211.989,149.691 211.776,149.609C211.563,149.528 211.389,149.278 211.389,149.056C211.389,148.833 211.21,148.65 210.992,148.65C210.774,148.65 210.595,148.49 210.595,148.294C210.595,148.098 210.365,147.672 210.083,147.347C209.801,147.021 209.635,146.586 209.714,146.38C209.8,146.156 209.694,146.005 209.452,146.005C209.045,146.005 208.214,144.646 208.214,143.98C208.214,143.784 208.035,143.623 207.817,143.623C207.597,143.623 207.42,143.388 207.42,143.094C207.42,142.803 207.315,142.565 207.187,142.565C206.942,142.565 205.568,139.932 205.568,139.462C205.568,139.313 205.399,139.05 205.192,138.878C204.985,138.706 204.737,138.096 204.64,137.523C204.543,136.949 204.355,136.48 204.222,136.48C204.089,136.48 203.981,136.195 203.981,135.846C203.981,135.498 203.824,135.153 203.632,135.079C203.44,135.006 203.129,134.249 202.941,133.397C202.753,132.546 202.508,131.73 202.396,131.585C202.123,131.228 200.959,125.405 200.995,124.573C201.011,124.209 200.901,123.763 200.751,123.582C200.372,123.124 200.226,112.65 200.593,112.208C200.79,111.97 200.78,111.873 200.558,111.873C200.371,111.873 200.331,111.74 200.458,111.543C200.574,111.361 200.695,110.974 200.725,110.683C200.755,110.392 200.837,109.796 200.907,109.36C200.977,108.923 201.113,108.03 201.209,107.375C201.306,106.721 201.486,106.061 201.611,105.909C201.736,105.757 201.882,105.199 201.937,104.669C201.991,104.139 202.165,103.549 202.322,103.357C202.479,103.166 202.694,102.435 202.799,101.732C202.903,101.029 203.152,100.391 203.352,100.315C203.572,100.23 203.716,99.78 203.716,99.177C203.716,98.613 203.889,98.037 204.113,97.85C204.331,97.669 204.51,97.321 204.51,97.077C204.51,96.833 204.623,96.52 204.761,96.382C205.039,96.103 206.098,94.19 207.096,92.165C207.454,91.439 207.973,90.687 208.249,90.493C208.526,90.3 208.693,90.045 208.62,89.928C208.548,89.811 208.754,89.414 209.079,89.046C209.404,88.678 209.907,88.062 210.198,87.677C210.489,87.293 211.115,86.571 211.587,86.073C212.06,85.575 212.447,85.045 212.447,84.895C212.447,84.744 212.626,84.621 212.844,84.621C213.063,84.621 213.243,84.472 213.245,84.29C213.247,84.109 213.809,83.484 214.495,82.901C215.181,82.319 215.993,81.605 216.301,81.314C217.813,79.882 219.57,78.577 220.583,78.133C221.202,77.862 221.708,77.558 221.708,77.457C221.708,77.357 221.916,77.205 222.171,77.119C222.622,76.968 223.558,76.421 223.824,76.154C223.897,76.081 224.314,75.859 224.751,75.66C225.187,75.462 225.751,75.194 226.004,75.065C226.256,74.937 226.688,74.832 226.963,74.832C227.239,74.832 227.609,74.656 227.787,74.442C227.965,74.227 228.516,73.976 229.01,73.883C229.505,73.79 229.91,73.624 229.91,73.513C229.91,73.403 230.496,73.235 231.213,73.139C231.93,73.044 232.555,72.848 232.604,72.703C232.652,72.558 233.167,72.429 233.748,72.417C234.329,72.404 235.478,72.228 236.302,72.024C237.125,71.821 237.983,71.725 238.207,71.811C238.432,71.898 238.762,71.878 238.94,71.767C239.481,71.433 243.607,71.344 243.804,71.662C243.928,71.864 244.085,71.86 244.34,71.648C244.681,71.365 246.328,71.427 247.902,71.783C248.265,71.865 249.515,72.06 250.679,72.215C251.842,72.37 252.854,72.582 252.928,72.685C253.001,72.788 253.299,72.888 253.59,72.907C254.414,72.96 258.446,74.29 258.615,74.564C258.698,74.698 258.929,74.746 259.128,74.67C259.327,74.593 259.568,74.658 259.664,74.814C259.76,74.969 260.07,75.096 260.353,75.096C260.635,75.096 260.866,75.215 260.866,75.361C260.866,75.506 261.105,75.625 261.398,75.625C261.69,75.625 262.134,75.864 262.383,76.155C262.632,76.446 263.033,76.684 263.274,76.684C263.515,76.684 263.86,76.862 264.041,77.081C264.222,77.299 264.587,77.477 264.852,77.477C265.117,77.477 265.49,77.696 265.68,77.964C265.87,78.231 266.371,78.536 266.793,78.64C267.215,78.745 267.789,79.121 268.069,79.477C268.349,79.832 268.705,80.123 268.86,80.123C269.102,80.123 271.121,81.726 272.526,83.034C272.76,83.252 273.323,83.728 273.777,84.092C274.231,84.456 274.607,84.902 274.613,85.084C274.619,85.266 274.863,85.415 275.154,85.415C275.445,85.415 275.683,85.551 275.683,85.718C275.683,85.884 276.07,86.436 276.543,86.943C277.016,87.451 277.67,88.154 277.998,88.505C278.325,88.856 278.593,89.257 278.593,89.396C278.593,89.535 278.691,89.648 278.811,89.648C279.048,89.648 280.445,91.68 280.445,92.025C280.445,92.142 280.624,92.306 280.842,92.39C281.06,92.474 281.239,92.784 281.239,93.08C281.239,93.375 281.358,93.617 281.504,93.617C281.649,93.617 281.768,93.781 281.768,93.982C281.768,94.182 281.947,94.494 282.165,94.675C282.383,94.857 282.562,95.228 282.562,95.502C282.562,95.775 282.741,95.998 282.959,95.998C283.177,95.998 283.356,96.222 283.356,96.495C283.356,96.768 283.531,97.137 283.746,97.315C283.96,97.493 284.213,98.053 284.308,98.56C284.403,99.066 284.633,99.538 284.818,99.61C285.004,99.681 285.235,100.162 285.332,100.679C285.505,101.602 285.841,102.354 286.431,103.142C286.595,103.36 286.814,104.015 286.918,104.597C287.022,105.179 287.204,105.775 287.323,105.92C287.543,106.189 288.933,112.627 288.98,113.593C288.994,113.884 289.1,114.25 289.216,114.406C289.332,114.561 289.42,115.038 289.41,115.464C289.401,115.89 289.451,118.412 289.523,121.068C289.614,124.48 289.567,125.896 289.362,125.896C289.158,125.896 289.163,125.988 289.376,126.201C289.592,126.417 289.601,126.656 289.408,127.016C289.258,127.296 289.193,127.675 289.264,127.858C289.432,128.298 288.771,131.117 288.392,131.573C288.171,131.84 288.182,131.959 288.438,132.045C288.716,132.139 288.717,132.236 288.44,132.572C288.253,132.799 288.123,133.086 288.151,133.211C288.179,133.335 288.124,133.645 288.028,133.9C287.932,134.155 287.776,134.571 287.681,134.826C287.586,135.081 287.534,135.498 287.566,135.754C287.597,136.01 287.436,136.406 287.207,136.635C286.978,136.864 286.862,137.166 286.948,137.306C287.035,137.446 286.908,137.863 286.666,138.233C286.424,138.602 286.198,139.167 286.163,139.489C286.129,139.811 286.032,140.188 285.948,140.327C285.212,141.548 284.679,142.64 284.679,142.929C284.679,143.12 284.453,143.482 284.176,143.732C283.899,143.982 283.596,144.596 283.502,145.096C283.409,145.596 283.225,146.005 283.094,146.005C282.873,146.005 282.603,146.418 281.715,148.118C281.348,148.82 280.935,149.35 279.982,150.341C279.655,150.681 279.385,151.065 279.383,151.194C279.381,151.323 278.904,151.896 278.324,152.467C277.745,153.038 277.271,153.596 277.271,153.706C277.271,153.816 277.026,153.984 276.726,154.079C276.427,154.174 276.073,154.539 275.939,154.891C275.805,155.242 275.528,155.53 275.324,155.53C275.119,155.53 274.889,155.768 274.813,156.059C274.737,156.35 274.484,156.588 274.253,156.588C274.021,156.588 273.831,156.766 273.831,156.985C273.831,157.203 273.653,157.382 273.436,157.382C273.219,157.382 272.893,157.62 272.711,157.911C272.529,158.202 272.171,158.44 271.915,158.44C271.659,158.44 271.45,158.619 271.45,158.837C271.45,159.055 271.267,159.234 271.045,159.234C270.822,159.234 270.574,159.405 270.493,159.614C270.413,159.824 270,160.071 269.575,160.165C269.151,160.258 268.804,160.444 268.804,160.578C268.804,160.712 268.666,160.821 268.498,160.821C268.33,160.821 267.802,161.119 267.325,161.483C266.848,161.846 266.268,162.144 266.035,162.144C265.803,162.144 265.544,162.323 265.46,162.541C265.376,162.759 265.082,162.938 264.807,162.938C264.531,162.938 264.306,163.057 264.306,163.202C264.306,163.348 264.014,163.467 263.657,163.467C262.905,163.467 261.66,163.983 261.66,164.294C261.66,164.411 261.065,164.586 260.337,164.683C259.61,164.779 259.014,164.955 259.014,165.072C259.014,165.19 258.478,165.367 257.824,165.465C257.169,165.563 256.633,165.756 256.633,165.894C256.633,166.032 256.512,166.069 256.365,165.978C256.217,165.887 255.413,165.955 254.579,166.129C253.744,166.304 252.466,166.493 251.738,166.55C249.808,166.701 243.419,166.834 243.31,166.725L243.31,166.725ZM249.886,164.763C250.468,164.737 251.088,164.604 251.263,164.466C251.439,164.328 251.7,164.288 251.844,164.377C251.988,164.466 252.943,164.348 253.966,164.115C254.989,163.883 255.94,163.763 256.079,163.849C256.218,163.935 256.398,163.897 256.479,163.766C256.561,163.635 257.075,163.447 257.622,163.349C258.988,163.104 260.337,162.611 260.337,162.356C260.337,162.239 260.575,162.144 260.866,162.144C261.157,162.144 261.395,162.039 261.395,161.91C261.395,161.781 261.938,161.594 262.601,161.494C263.265,161.395 263.873,161.143 263.953,160.935C264.032,160.727 264.234,160.556 264.4,160.556C264.758,160.555 267.258,159.312 267.468,159.031C267.656,158.78 268.52,158.24 269.231,157.93C269.538,157.796 269.862,157.499 269.95,157.27C270.038,157.04 270.312,156.852 270.559,156.852C271.045,156.852 271.014,156.878 273.604,154.341C274.57,153.394 275.493,152.619 275.654,152.619C275.815,152.619 275.947,152.445 275.947,152.232C275.947,152.018 276.186,151.717 276.477,151.561C276.768,151.405 277.006,151.044 277.006,150.758C277.006,150.472 277.175,150.238 277.381,150.238C277.587,150.238 278.014,149.821 278.329,149.312C278.643,148.803 279.008,148.386 279.139,148.386C279.27,148.386 279.452,148.088 279.543,147.724C279.634,147.361 279.803,147.063 279.919,147.063C280.199,147.063 281.239,145.281 281.239,144.801C281.239,144.592 281.477,144.273 281.768,144.091C282.059,143.909 282.297,143.59 282.297,143.382C282.297,143.174 282.456,142.816 282.651,142.586C282.845,142.356 283.155,141.751 283.339,141.242C283.523,140.733 283.77,140.078 283.888,139.787C284.005,139.496 284.171,139.079 284.256,138.861C284.341,138.643 284.512,138.285 284.636,138.067C285.265,136.959 285.472,136.442 285.472,135.986C285.472,135.711 285.651,135.058 285.869,134.536C286.088,134.014 286.266,133.285 286.266,132.916C286.266,132.548 286.392,132.246 286.546,132.246C286.7,132.246 286.753,132.127 286.663,131.982C286.573,131.836 286.588,131.574 286.697,131.398C286.805,131.223 286.925,130.598 286.963,130.009C287.001,129.42 287.141,128.51 287.274,127.987C287.407,127.463 287.538,125.984 287.567,124.701C287.595,123.417 287.731,122.157 287.869,121.899C288.035,121.589 288.022,121.37 287.831,121.252C287.628,121.126 287.626,120.991 287.824,120.793C288.023,120.594 288.02,120.408 287.815,120.161C287.602,119.904 287.613,119.705 287.854,119.414C288.082,119.139 288.1,118.915 287.913,118.686C287.764,118.504 287.577,117.264 287.497,115.93C287.417,114.596 287.182,112.869 286.974,112.094C286.766,111.318 286.389,109.73 286.135,108.566C285.881,107.402 285.582,106.33 285.471,106.185C285.359,106.039 285.183,105.406 285.079,104.777C284.976,104.149 284.724,103.57 284.52,103.492C284.317,103.414 284.15,103.125 284.15,102.849C284.15,102.574 284.046,102.348 283.919,102.348C283.792,102.348 283.613,101.881 283.522,101.309C283.431,100.737 283.177,100.091 282.959,99.872C282.741,99.654 282.562,99.352 282.562,99.202C282.562,98.821 281.209,96.415 280.935,96.307C280.811,96.259 280.71,95.991 280.71,95.712C280.71,95.433 280.602,95.205 280.469,95.205C280.337,95.205 279.965,94.661 279.643,93.996C279.321,93.331 278.835,92.648 278.561,92.477C278.288,92.307 278.064,91.957 278.064,91.701C278.064,91.445 277.905,91.236 277.71,91.236C277.515,91.236 277.22,90.938 277.054,90.574C276.888,90.211 276.631,89.913 276.483,89.913C276.334,89.913 276.212,89.763 276.212,89.58C276.212,89.396 275.974,89.098 275.683,88.916C275.392,88.734 275.154,88.408 275.154,88.191C275.154,87.974 275.04,87.796 274.901,87.796C274.573,87.796 273.302,86.525 273.302,86.197C273.302,86.058 273.189,85.944 273.05,85.944C272.911,85.944 272.203,85.349 271.475,84.621C270.747,83.894 270.087,83.298 270.007,83.298C269.928,83.298 269.654,83.117 269.399,82.895C267.748,81.455 267.324,81.152 266.767,81.013C266.425,80.927 266.019,80.623 265.866,80.337C265.713,80.051 265.44,79.875 265.259,79.944C265.078,80.014 264.788,79.844 264.616,79.568C264.443,79.291 264.083,79.065 263.816,79.065C263.548,79.065 263.114,78.827 262.851,78.536C262.587,78.245 262.052,78.007 261.66,78.007C261.269,78.007 260.733,77.769 260.47,77.478C260.206,77.186 259.726,76.948 259.403,76.948C259.079,76.948 258.666,76.77 258.485,76.551C258.304,76.333 257.903,76.154 257.593,76.153C257.283,76.152 256.687,75.972 256.267,75.754C255.848,75.535 255.015,75.281 254.415,75.19C253.816,75.099 253.207,74.932 253.061,74.819C252.798,74.615 251.664,74.374 250.151,74.199C249.714,74.149 249.119,74.003 248.828,73.874C248.017,73.517 237.198,73.589 236.757,73.954C236.557,74.12 235.62,74.335 234.676,74.431C233.732,74.528 232.899,74.699 232.824,74.811C232.749,74.924 232.196,75.093 231.594,75.187C230.992,75.281 229.819,75.715 228.987,76.153C228.156,76.59 227.241,76.948 226.954,76.948C226.667,76.948 226.248,77.133 226.023,77.358C225.798,77.584 225.27,77.837 224.851,77.92C224.432,78.004 224.089,78.236 224.089,78.437C224.089,78.637 223.866,78.8 223.593,78.8C223.319,78.8 222.948,78.979 222.766,79.197C222.585,79.416 222.214,79.594 221.94,79.594C221.667,79.594 221.444,79.773 221.444,79.991C221.444,80.209 221.224,80.388 220.955,80.388C220.686,80.388 220.037,80.805 219.513,81.314C218.988,81.823 218.489,82.24 218.403,82.24C217.821,82.24 211.125,89.141 211.125,89.741C211.125,89.911 210.887,90.199 210.596,90.381C210.305,90.562 210.066,90.882 210.066,91.091C210.066,91.3 209.813,91.648 209.503,91.865C209.188,92.086 209.003,92.428 209.084,92.64C209.164,92.849 208.903,93.422 208.504,93.914C208.104,94.405 207.698,94.986 207.601,95.205C207.504,95.423 207.313,95.78 207.176,95.998C206.675,96.803 205.833,98.824 205.833,99.224C205.833,99.452 205.655,99.786 205.436,99.967C205.218,100.148 205.039,100.556 205.039,100.873C205.039,101.189 204.898,101.59 204.726,101.762C204.554,101.934 204.385,102.286 204.352,102.543C204.319,102.8 204.036,103.962 203.723,105.126C203.41,106.291 203.161,107.523 203.17,107.865C203.179,108.207 203.1,108.624 202.996,108.791C202.556,109.494 202.273,113.233 202.322,117.694C202.382,123.196 202.4,123.488 202.679,123.66C202.818,123.746 202.873,123.911 202.801,124.027C202.73,124.143 202.841,125.049 203.048,126.04C203.255,127.031 203.361,127.945 203.283,128.071C203.206,128.198 203.258,128.444 203.399,128.62C203.541,128.795 203.74,129.444 203.842,130.062C203.944,130.68 204.125,131.246 204.246,131.32C204.366,131.394 204.545,131.931 204.643,132.512C204.741,133.094 204.919,133.569 205.038,133.569C205.157,133.569 205.198,133.786 205.128,134.051C205.059,134.315 205.189,134.687 205.418,134.877C205.646,135.066 205.833,135.445 205.833,135.718C205.833,135.991 205.939,136.215 206.068,136.215C206.198,136.215 206.379,136.62 206.472,137.114C206.565,137.609 206.816,138.159 207.031,138.337C207.245,138.515 207.421,138.937 207.421,139.274C207.421,139.612 207.532,139.957 207.668,140.041C207.805,140.125 208.086,140.519 208.294,140.917C209.06,142.383 209.433,142.988 210.269,144.126C210.74,144.766 211.125,145.464 211.125,145.676C211.125,145.91 211.281,146.001 211.522,145.909C211.758,145.818 211.919,145.907 211.919,146.127C211.919,146.677 213.058,148.362 213.44,148.375C213.622,148.381 213.771,148.517 213.771,148.678C213.771,149.278 220.086,155.471 221.398,156.158C221.642,156.285 221.961,156.523 222.109,156.687C222.257,156.851 223.031,157.329 223.829,157.75C224.627,158.171 225.518,158.712 225.809,158.952C226.437,159.471 228.65,160.557 229.079,160.557C229.245,160.557 229.381,160.657 229.381,160.779C229.381,161.069 230.682,161.66 230.953,161.492C231.068,161.421 231.362,161.583 231.606,161.853C231.85,162.122 232.312,162.346 232.633,162.349C232.955,162.353 233.575,162.508 234.011,162.693C234.448,162.879 235.043,163.06 235.334,163.096C235.625,163.133 236.443,163.359 237.151,163.6C237.859,163.841 238.99,164.09 239.664,164.155C241.463,164.326 242.166,164.436 242.61,164.615C242.828,164.703 243.662,164.808 244.462,164.849C245.786,164.916 246.736,164.901 249.886,164.763L249.886,164.763ZM242.658,155.148C242.413,155.011 241.915,154.87 241.552,154.833C239.769,154.655 238.639,154.417 238.499,154.191C238.415,154.054 238.011,153.942 237.603,153.942C237.195,153.942 236.558,153.704 236.188,153.413C235.818,153.122 235.307,152.884 235.053,152.884C234.798,152.884 234.173,152.566 233.664,152.177C232.332,151.162 229.645,148.403 229.645,148.051C229.645,147.887 229.359,147.449 229.009,147.077C228.105,146.118 227.326,144.624 227.113,143.445C227.013,142.888 226.843,142.314 226.736,142.168C226.63,142.023 226.537,141.725 226.531,141.507C226.445,138.452 226.471,134.001 226.579,133.172C226.655,132.59 226.771,131.602 226.837,130.976C226.903,130.35 227.085,129.684 227.241,129.496C227.396,129.309 227.47,129.101 227.404,129.035C227.338,128.968 227.449,128.365 227.651,127.694C227.853,127.023 227.95,126.406 227.868,126.324C227.785,126.241 227.858,126.005 228.029,125.798C228.201,125.592 228.317,125.321 228.287,125.196C228.189,124.785 228.643,122.983 228.882,122.835C229.011,122.755 229.116,122.399 229.116,122.044C229.116,121.689 229.25,121.398 229.413,121.398C229.621,121.398 229.628,121.299 229.435,121.067C229.241,120.833 229.27,120.584 229.535,120.223C229.741,119.94 229.91,119.334 229.91,118.875C229.91,118.377 230.123,117.848 230.439,117.562C230.73,117.298 230.968,116.864 230.968,116.597C230.968,116.33 231.206,115.962 231.497,115.781C231.788,115.599 232.027,115.28 232.027,115.072C232.027,114.863 232.197,114.505 232.406,114.274C232.614,114.044 232.827,113.542 232.878,113.158C232.983,112.378 233.524,111.612 233.977,111.602C234.396,111.593 235.22,109.847 235.034,109.363C234.949,109.143 234.647,108.963 234.362,108.963C233.945,108.963 232.984,108.601 232.617,108.305C232.51,108.219 233.141,107.078 233.812,106.14C234.14,105.683 234.408,105.2 234.408,105.066C234.408,104.669 235.596,103.671 236.068,103.671C236.307,103.671 236.776,103.384 237.109,103.033C238.157,101.929 239.731,101.229 241.485,101.087C242.395,101.013 243.139,100.836 243.139,100.692C243.139,100.524 243.257,100.527 243.47,100.699C243.652,100.846 244.455,101.054 245.256,101.16C246.056,101.267 246.77,101.429 246.843,101.521C246.916,101.612 247.333,101.888 247.769,102.133C248.805,102.716 248.993,103.556 248.362,104.786C247.772,105.937 247.916,106.317 248.943,106.317C249.353,106.317 249.842,106.501 250.028,106.726C250.215,106.951 250.523,107.076 250.714,107.003C250.904,106.93 251.13,106.984 251.216,107.123C251.302,107.262 251.607,107.376 251.894,107.376C252.181,107.376 252.485,107.554 252.568,107.773C252.652,107.991 252.928,108.17 253.181,108.17C253.433,108.17 253.856,108.408 254.119,108.699C254.383,108.99 254.81,109.228 255.068,109.228C255.327,109.228 255.614,109.466 255.707,109.757C255.813,110.092 256.107,110.286 256.506,110.286C256.854,110.286 257.436,110.584 257.799,110.948C258.163,111.311 258.573,111.609 258.709,111.609C258.846,111.609 259.026,111.788 259.11,112.006C259.194,112.224 259.428,112.403 259.63,112.403C259.833,112.403 260.222,112.701 260.495,113.064C260.768,113.428 261.087,113.726 261.204,113.726C261.321,113.726 261.897,114.202 262.485,114.784C263.073,115.366 263.622,115.842 263.705,115.842C264.014,115.842 266.687,118.826 266.687,119.171C266.687,119.381 266.851,119.467 267.084,119.378C267.331,119.283 267.481,119.38 267.481,119.635C267.481,119.86 267.96,120.616 268.545,121.316C269.13,122.017 269.756,122.764 269.934,122.978C270.25,123.356 270.592,123.94 271.37,125.428C271.578,125.826 271.859,126.22 271.995,126.304C272.132,126.388 272.243,126.676 272.243,126.944C272.243,127.211 272.611,128.127 273.06,128.979C273.862,130.499 273.874,130.578 273.725,133.305C273.641,134.833 273.571,136.363 273.569,136.705C273.567,137.047 273.479,137.464 273.374,137.631C273.154,137.983 273.124,138.1 272.89,139.523C272.573,141.445 270.941,144.445 269.472,145.805C269.04,146.206 268.573,146.534 268.436,146.534C268.299,146.534 268.263,146.61 268.356,146.704C268.449,146.797 268.137,147.081 267.662,147.336C266.721,147.84 264.835,149.618 264.835,150C264.835,150.364 264.408,150.284 264.051,149.854C263.79,149.539 263.928,149.289 264.813,148.475C265.407,147.929 265.893,147.334 265.893,147.153C265.893,146.973 266.091,146.715 266.332,146.579C266.573,146.444 266.79,146.072 266.814,145.751C266.837,145.431 267.014,145.071 267.207,144.952C267.636,144.687 268.276,142.904 268.122,142.402C267.745,141.172 267.764,141.179 267.065,142.01C266.691,142.455 266.454,142.932 266.54,143.07C266.625,143.208 266.455,143.397 266.162,143.49C265.869,143.583 265.556,143.952 265.467,144.31C265.377,144.668 265.079,145.081 264.804,145.227C264.53,145.374 264.306,145.668 264.306,145.88C264.306,146.092 264.068,146.414 263.777,146.596C263.486,146.777 263.247,147.111 263.247,147.337C263.247,147.563 262.682,148.181 261.991,148.71C261.299,149.239 260.44,149.947 260.08,150.284C259.721,150.621 259.006,151.116 258.493,151.385C257.979,151.653 257.44,152.014 257.294,152.188C257.149,152.361 256.315,152.737 255.442,153.023C254.569,153.309 253.78,153.646 253.688,153.773C253.597,153.899 252.764,153.91 251.836,153.798C250.909,153.686 249.663,153.572 249.068,153.545C248.472,153.518 247.877,153.43 247.745,153.349C247.613,153.267 246.671,153.121 245.653,153.023C244.63,152.925 243.608,152.671 243.371,152.457C243.134,152.243 242.837,152.098 242.709,152.134C242.582,152.17 241.89,151.933 241.171,151.608C239.98,151.07 239.828,151.055 239.451,151.437C239.076,151.817 239.081,151.88 239.501,152.119C239.756,152.263 239.964,152.536 239.964,152.725C239.964,152.923 240.291,153.077 240.739,153.09C241.166,153.102 241.791,153.285 242.128,153.496C242.466,153.707 243.07,153.955 243.47,154.048C243.87,154.141 244.197,154.342 244.197,154.495C244.197,154.647 244.407,154.705 244.664,154.624C244.961,154.53 245.254,154.673 245.469,155.017C245.795,155.539 245.758,155.555 244.455,155.478C243.711,155.434 242.902,155.286 242.658,155.149L242.658,155.148ZM230.701,103.372C229.902,102.626 228.802,101.717 228.256,101.353C227.711,100.989 227.264,100.587 227.264,100.461C227.264,100.335 227.085,100.232 226.867,100.232C226.649,100.232 226.47,100.113 226.47,99.967C226.47,99.822 226.353,99.702 226.209,99.702C225.917,99.702 225.288,99.226 223.746,97.835C222.815,96.995 222.722,96.802 222.887,96.049C222.989,95.585 223.229,95.205 223.42,95.205C223.611,95.205 223.836,95.026 223.92,94.808C224.004,94.589 224.195,94.411 224.345,94.411C224.495,94.411 224.856,94.173 225.147,93.882C225.438,93.591 225.855,93.352 226.073,93.352C226.292,93.352 226.47,93.174 226.47,92.956C226.47,92.588 226.664,92.531 228.19,92.453C228.804,92.422 229.092,91.283 228.568,90.96C228.053,90.641 228.912,89.092 230.237,87.952C230.857,87.417 231.551,86.809 231.779,86.6C232.006,86.392 232.839,85.969 233.631,85.662C234.422,85.354 235.263,85.003 235.5,84.88C236.184,84.526 237.847,84.275 237.848,84.526C237.848,84.651 238.602,84.749 239.524,84.743C241.971,84.727 242.679,84.977 243.093,86.002C243.285,86.479 243.55,87.136 243.68,87.46C243.955,88.147 244.606,88.022 244.81,87.243C244.931,86.779 245.106,86.742 246.489,86.888C249.214,87.173 249.411,87.213 250.251,87.647C250.889,87.977 251.077,88.25 251.077,88.846C251.077,89.27 250.972,89.682 250.844,89.761C250.587,89.92 250.343,90.809 250.113,92.426C250.031,93.009 249.767,93.706 249.528,93.976C249.288,94.246 249.119,94.513 249.152,94.57C249.279,94.789 248.88,96.281 248.657,96.419C248.336,96.617 247.613,98.391 247.757,98.625C247.822,98.729 247.653,99.178 247.382,99.623C246.973,100.296 246.764,100.409 246.139,100.296C245.726,100.222 245.264,100.063 245.112,99.944C244.533,99.491 238.478,100.549 237.951,101.195C237.789,101.393 237.531,101.555 237.377,101.555C236.977,101.555 235.47,102.442 235.468,102.679C235.467,102.788 235.341,102.877 235.188,102.877C235.036,102.877 234.482,103.294 233.957,103.804C233.433,104.313 232.812,104.73 232.579,104.73C232.345,104.73 231.5,104.119 230.701,103.372ZM208.46,165.694C208.184,165.362 208.179,165.183 208.436,164.834C208.613,164.591 208.829,164.185 208.914,163.93C209,163.675 209.234,163.467 209.436,163.467C209.637,163.467 209.802,163.334 209.802,163.171C209.802,162.915 210.234,162.332 211.739,160.557C211.925,160.338 212.281,159.832 212.532,159.432C213.078,158.563 213.601,158.506 214.128,159.258C214.473,159.75 214.466,159.861 214.067,160.26C213.821,160.506 213.267,161.18 212.836,161.757C212.406,162.334 211.993,162.865 211.918,162.938C211.844,163.011 211.428,163.546 210.995,164.129C209.369,166.313 209.108,166.474 208.46,165.694L208.46,165.694ZM285.539,164.004C285.261,163.56 285.293,163.44 285.752,163.194C286.049,163.036 286.402,162.615 286.537,162.26C286.672,161.905 286.934,161.614 287.119,161.613C287.305,161.612 287.605,161.293 287.785,160.904C288.062,160.307 288.045,160.121 287.678,159.715C286.985,158.95 286.445,159.142 285.386,160.53C284.643,161.505 284.269,161.792 283.877,161.69C283.185,161.509 283.217,160.777 283.951,159.994C284.278,159.645 284.836,159.033 285.19,158.633L285.833,157.907L285.283,157.395C284.98,157.113 284.68,156.727 284.617,156.537C284.523,156.259 284.357,156.268 283.764,156.584C283.359,156.8 282.959,157.157 282.876,157.377C282.793,157.598 282.388,158.118 281.975,158.533C281.41,159.102 281.068,159.248 280.584,159.127C279.954,158.968 279.95,158.952 280.389,158.188C280.634,157.76 281.058,157.352 281.33,157.281C281.601,157.21 281.778,157.015 281.722,156.847C281.666,156.68 282.189,155.94 282.884,155.204L284.148,153.865L286.292,156.02C287.471,157.206 288.471,158.175 288.513,158.175C288.556,158.175 288.961,158.521 289.413,158.943C290.409,159.874 290.467,160.63 289.573,161.038C289.21,161.203 288.91,161.49 288.908,161.675C288.906,161.86 288.429,162.479 287.849,163.051C287.27,163.622 286.795,164.187 286.795,164.307C286.795,164.74 285.857,164.514 285.539,164.004L285.539,164.004ZM205.305,162.544C205.015,162.001 205.012,161.549 205.291,159.965C205.478,158.908 205.72,157.924 205.829,157.779C206.206,157.278 206.405,155.53 206.085,155.53C205.919,155.53 205.728,155.742 205.66,156.001C205.592,156.26 205.186,156.628 204.757,156.818C204.329,157.007 204.029,157.246 204.093,157.348C204.156,157.451 203.817,157.916 203.34,158.382C202.502,159.201 202.457,159.214 202.03,158.741C201.523,158.181 201.688,157.495 202.424,157.1C202.698,156.954 202.922,156.724 202.922,156.589C202.922,156.455 203.542,155.774 204.3,155.077C205.057,154.38 205.954,153.52 206.293,153.166C206.811,152.625 207.023,152.563 207.627,152.776C208.411,153.051 208.571,153.672 208.136,154.744C207.801,155.571 207.71,155.944 207.532,157.23C207.454,157.801 207.273,158.486 207.131,158.751C206.645,159.659 207.799,159.293 208.727,158.245C209.933,156.884 211.129,156.169 211.424,156.635C211.546,156.827 211.647,157.118 211.65,157.281C211.654,157.581 206.119,163.202 205.819,163.202C205.73,163.202 205.499,162.906 205.305,162.544L205.305,162.544ZM290.523,155.711C290.656,155.249 290.764,154.851 290.764,154.827C290.764,154.802 291.24,154.702 291.822,154.604C292.629,154.467 292.881,154.303 292.881,153.915C292.881,153.635 293.03,153.154 293.211,152.846C293.476,152.397 293.476,152.261 293.211,152.166C293.03,152.1 292.881,151.818 292.881,151.539C292.881,151.26 292.761,151.032 292.614,151.032C292.468,151.032 292.093,150.739 291.782,150.381C290.996,149.476 289.046,149.177 288.493,149.875C287.656,150.931 287.533,151.619 288.054,152.339C288.531,152.998 288.531,153.029 288.046,153.499C287.41,154.117 286.856,153.903 286.649,152.961C286.559,152.555 286.418,152.044 286.334,151.825C286.251,151.607 286.213,151.309 286.252,151.164C286.29,151.018 286.348,150.78 286.381,150.635C286.526,149.985 287.499,148.635 287.92,148.5C288.174,148.417 288.383,148.253 288.383,148.134C288.383,147.34 291.899,148.038 292.565,148.963C292.755,149.228 293.055,149.444 293.232,149.444C293.409,149.444 293.761,149.831 294.015,150.304C295.516,153.103 293.947,156.478 291.118,156.534C290.303,156.551 290.288,156.53 290.523,155.711L290.523,155.711ZM197.631,152.758C197.631,152.551 197.422,152.262 197.168,152.117C196.781,151.897 196.759,151.775 197.037,151.376C197.22,151.114 197.517,150.602 197.697,150.238C197.877,149.874 198.232,149.347 198.486,149.067C198.74,148.786 199.024,148.317 199.117,148.023C199.21,147.73 199.688,146.919 200.178,146.221C200.669,145.523 201.07,144.838 201.07,144.7C201.07,144.317 201.502,144.132 201.972,144.312C202.564,144.539 202.534,146.239 201.93,146.685C201.559,146.959 201.533,147.094 201.798,147.363C201.98,147.547 202.129,147.899 202.129,148.146C202.129,148.392 202.307,148.662 202.525,148.746C202.744,148.83 202.922,149.038 202.922,149.208C202.922,149.751 203.808,150.19 204.635,150.056C205.248,149.958 205.579,150.08 206.045,150.577L206.653,151.227L205.436,151.533C204.766,151.702 204.1,151.767 203.956,151.678C203.811,151.588 203.549,151.634 203.374,151.779C203.198,151.924 202.607,152.126 202.06,152.229C201.512,152.331 201.002,152.516 200.926,152.639C200.849,152.762 200.501,152.755 200.153,152.622C199.804,152.49 199.48,152.475 199.434,152.591C199.388,152.706 198.964,152.875 198.491,152.968C197.844,153.094 197.631,153.042 197.631,152.758L197.631,152.758ZM200.829,150.865C201.464,150.763 201.864,150.556 201.864,150.327C201.864,149.87 201.089,148.65 200.798,148.65C200.682,148.65 200.21,149.262 199.75,150.009C199.149,150.987 199.038,151.321 199.354,151.199C199.596,151.106 200.259,150.956 200.829,150.865ZM296.86,148.266C296.673,148.041 296.36,147.857 296.164,147.857C295.968,147.857 295.383,147.619 294.865,147.327C294.347,147.036 293.688,146.798 293.402,146.798C293.115,146.798 292.881,146.682 292.881,146.54C292.881,146.259 290.872,145.211 290.333,145.211C289.842,145.211 289.602,144.679 289.94,144.341C290.102,144.179 290.235,143.847 290.235,143.604C290.235,143.26 290.516,143.149 291.492,143.104C293.582,143.01 293.887,142.97 294.093,142.763C294.203,142.654 294.767,142.565 295.347,142.565C296.386,142.565 296.395,142.557 295.923,142.036C295.66,141.745 295.239,141.507 294.989,141.507C294.738,141.507 294.401,141.348 294.24,141.153C294.079,140.959 293.464,140.641 292.874,140.446C292.139,140.204 291.846,139.974 291.944,139.719C292.023,139.514 292.087,139.165 292.087,138.943C292.087,138.661 292.226,138.598 292.55,138.734C292.805,138.841 293.192,138.951 293.41,138.977C293.628,139.003 294.283,139.319 294.865,139.679C295.447,140.038 296.608,140.66 297.445,141.06C298.282,141.46 298.966,141.903 298.966,142.044C298.966,142.185 299.145,142.3 299.363,142.3C299.844,142.3 299.847,142.338 299.429,143.135C299.23,143.515 298.914,143.73 298.635,143.675C298.381,143.625 298.172,143.704 298.172,143.85C298.172,143.996 297.785,144.105 297.312,144.093C296.257,144.065 293.63,144.373 293.459,144.544C293.25,144.753 293.998,145.5 294.309,145.393C294.47,145.339 295.045,145.573 295.587,145.914C296.13,146.255 296.645,146.534 296.731,146.534C297.023,146.534 297.643,147.288 297.639,147.639C297.637,147.832 297.537,148.143 297.417,148.332C297.243,148.606 297.131,148.593 296.86,148.266L296.86,148.266ZM193.348,145.145C193.282,144.461 193.577,143.82 194.786,142.017C195.623,140.77 196.308,139.628 196.308,139.478C196.308,139.139 194.048,139.881 193.14,140.518C192.78,140.771 192.215,140.977 191.883,140.977C191.402,140.977 191.281,140.831 191.281,140.248C191.281,139.675 191.465,139.443 192.141,139.163C192.614,138.967 193.505,138.581 194.122,138.305C194.739,138.028 195.424,137.802 195.643,137.802C195.863,137.802 196.043,137.683 196.043,137.538C196.043,137.392 196.207,137.273 196.408,137.273C196.608,137.273 196.909,137.108 197.077,136.906C197.56,136.324 198.689,136.199 198.689,136.728C198.689,136.97 198.818,137.297 198.977,137.455C199.184,137.662 199.184,137.793 198.977,137.921C198.818,138.018 198.689,138.264 198.689,138.466C198.689,138.669 198.332,139.364 197.895,140.01C197.459,140.657 197.102,141.3 197.102,141.438C197.102,141.576 196.863,141.905 196.572,142.168C195.454,143.18 196.163,143.771 197.366,142.83C197.73,142.545 198.342,142.31 198.727,142.306C199.112,142.303 199.495,142.122 199.578,141.904C199.799,141.329 200.622,141.416 201.022,142.057C201.429,142.709 201.044,143.359 200.251,143.359C199.981,143.359 199.37,143.596 198.894,143.887C198.417,144.177 197.819,144.416 197.565,144.416C197.31,144.417 197.102,144.536 197.102,144.682C197.102,144.827 196.863,144.946 196.572,144.946C196.281,144.946 196.043,145.046 196.043,145.169C196.043,145.382 194.307,146.005 193.714,146.005C193.558,146.005 193.394,145.618 193.348,145.145ZM292.838,136.452C292.935,135.434 292.985,135.376 293.651,135.509C294.671,135.713 295.018,135.388 295.185,134.07C295.267,133.431 295.438,132.774 295.567,132.61C295.862,132.234 295.576,131.452 295.142,131.452C294.653,131.452 293.851,130.48 294.175,130.28C294.323,130.188 294.378,129.938 294.296,129.724C294.074,129.146 294.903,129.241 295.527,129.865C295.818,130.156 296.232,130.394 296.447,130.394C296.661,130.394 297.032,130.692 297.271,131.056C297.509,131.419 297.851,131.717 298.03,131.717C298.209,131.717 298.57,131.955 298.834,132.246C299.097,132.537 299.413,132.775 299.536,132.775C299.659,132.775 299.998,132.984 300.289,133.238C300.58,133.493 301.056,133.91 301.347,134.164C302.468,135.145 301.605,136.41 299.699,136.582C299.194,136.627 298.656,136.741 298.503,136.836C298.35,136.93 297.946,136.996 297.604,136.982C296.799,136.95 293.661,137.252 293.138,137.412C292.811,137.512 292.754,137.33 292.838,136.452ZM299.275,134.997C299.589,134.803 299.548,134.363 299.215,134.363C299.061,134.363 298.466,133.986 297.892,133.525C297.319,133.064 296.77,132.766 296.673,132.863C296.576,132.961 296.65,133.04 296.838,133.04C297.075,133.04 297.098,133.141 296.915,133.371C296.77,133.553 296.598,134.082 296.534,134.547L296.416,135.392L297.735,135.263C298.46,135.192 299.153,135.072 299.275,134.997L299.275,134.997ZM190.297,135.11C189.333,134.414 189,133.724 188.748,131.908C188.593,130.793 188.662,130.516 189.331,129.549C189.875,128.765 190.114,128.579 190.176,128.895C190.223,129.137 190.358,129.336 190.476,129.336C190.955,129.336 190.936,130.384 190.448,130.826C190.061,131.176 189.98,131.484 190.111,132.098C190.333,133.139 190.623,133.483 191.716,134.002C192.316,134.287 192.714,134.34 192.936,134.166C193.117,134.023 193.622,133.821 194.059,133.716C195.292,133.421 195.766,132.746 195.639,131.467C195.506,130.132 195.357,129.865 194.746,129.865C194.486,129.865 194.067,129.637 193.814,129.358C193.194,128.673 193.652,127.726 194.522,127.893C194.848,127.956 195.155,128.128 195.204,128.275C195.253,128.422 195.459,128.542 195.662,128.542C196.357,128.542 196.954,130.161 196.947,132.026C196.941,133.69 196.888,133.838 196.029,134.649C195.2,135.43 194.937,135.518 193.133,135.616C191.379,135.712 191.049,135.653 190.297,135.11L190.297,135.11ZM299.098,128.302C298.371,128.21 297.635,128.047 297.463,127.938C297.291,127.829 297.075,127.863 296.982,128.013C296.889,128.163 296.672,128.199 296.501,128.093C296.329,127.987 296.01,127.886 295.791,127.87C294.507,127.77 294.468,127.742 294.468,126.93C294.468,126.334 294.612,126.074 294.997,125.973C295.288,125.897 295.527,125.743 295.527,125.632C295.527,125.399 298.203,124.044 298.662,124.044C298.829,124.044 298.966,123.866 298.966,123.647C298.966,123.414 299.212,123.247 299.561,123.242C300.947,123.224 299.229,122.729 297.406,122.622C295.443,122.506 294.733,122.184 294.733,121.41C294.733,120.78 295.02,120.558 295.413,120.884C295.643,121.076 295.799,121.071 295.923,120.869C296.04,120.681 296.211,120.668 296.41,120.833C296.579,120.973 297.67,121.171 298.834,121.273C299.998,121.374 301.248,121.488 301.612,121.526C301.976,121.564 302.482,121.61 302.736,121.629C303.083,121.654 303.199,121.896 303.199,122.589C303.199,123.343 303.1,123.515 302.662,123.515C302.366,123.515 302.056,123.694 301.972,123.912C301.888,124.13 301.531,124.309 301.178,124.309C300.826,124.309 300.468,124.487 300.385,124.706C300.301,124.924 300.007,125.103 299.732,125.103C299.456,125.103 299.231,125.222 299.231,125.367C299.231,125.513 299.101,125.632 298.942,125.632C298.783,125.632 298.372,125.852 298.03,126.122L297.407,126.611L298.65,126.617C299.333,126.62 300.309,126.703 300.818,126.8C301.328,126.897 301.982,127.011 302.273,127.054C302.564,127.096 302.773,127.21 302.736,127.307C302.7,127.404 302.67,127.722 302.67,128.013C302.67,128.465 302.506,128.537 301.546,128.505C300.927,128.484 299.826,128.393 299.098,128.302L299.098,128.302ZM188.04,125.964C187.368,125.869 187.31,125.766 187.291,124.622C187.28,123.94 187.217,122.534 187.152,121.497C187.036,119.65 187.048,119.608 187.702,119.483C188.411,119.347 188.432,119.464 188.478,123.695C188.483,124.194 188.595,124.252 189.287,124.125C190.42,123.916 190.935,123.394 190.512,122.884C190.268,122.59 190.259,122.353 190.478,121.944C190.673,121.58 190.679,121.398 190.496,121.398C190.029,121.398 190.18,119.884 190.666,119.697C191.418,119.409 191.78,120.119 191.863,122.047L191.942,123.886L194.218,124.037L194.045,121.626C193.876,119.269 194.002,118.773 194.775,118.756C195.017,118.751 195.321,120.387 195.387,122.06C195.416,122.787 195.464,123.383 195.495,123.383C195.526,123.383 195.599,123.74 195.657,124.176C195.863,125.705 195.768,125.758 192.671,125.833C191.106,125.87 189.587,125.939 189.296,125.984C189.005,126.03 188.44,126.021 188.04,125.964L188.04,125.964ZM294.629,118.166C294.538,117.714 294.495,117.315 294.533,117.278C294.57,117.241 296.446,117.173 298.702,117.127C302.18,117.057 302.804,117.103 302.81,117.435C302.814,117.65 302.905,117.967 303.012,118.139C303.358,118.691 302.709,118.806 298.712,118.897L294.793,118.986L294.629,118.166ZM194.453,114.648C194.27,114.428 193.987,114.278 193.824,114.316C193.572,114.373 191.955,113.399 191.545,112.942C191.256,112.619 188.14,110.815 187.872,110.815C187.543,110.815 187.309,109.922 187.389,108.97C187.436,108.414 187.623,108.285 188.635,108.113C189.29,108.001 190.004,107.83 190.222,107.733C190.441,107.636 190.706,107.574 190.813,107.596C191.158,107.668 193.787,107.055 194.059,106.839C194.204,106.723 194.787,106.542 195.354,106.436C196.196,106.279 196.343,106.311 196.157,106.611C196.033,106.813 195.926,107.203 195.921,107.477C195.911,107.98 195.691,108.153 194.425,108.648C193.832,108.88 193.712,109.12 193.583,110.33C193.439,111.677 193.473,111.78 194.341,112.604C194.98,113.212 195.249,113.702 195.249,114.258C195.249,115.126 194.965,115.265 194.453,114.648ZM192.261,110.617C192.267,110.216 192.317,109.71 192.372,109.492C192.484,109.047 191.502,109.056 190.304,109.511C189.645,109.762 189.638,109.787 190.096,110.293C190.356,110.58 190.782,110.815 191.042,110.815C191.301,110.815 191.588,110.934 191.678,111.08C191.979,111.567 192.251,111.351 192.261,110.617L192.261,110.617ZM297.741,113.395C297.624,112.776 297.562,111.938 297.604,111.533C297.67,110.887 297.603,110.811 297.066,110.922C296.729,110.991 295.845,111.116 295.101,111.2L293.75,111.352L293.778,110.555C293.806,109.783 294.009,109.639 294.994,109.696C295.21,109.708 295.449,109.618 295.524,109.496C295.6,109.373 296.782,109.208 298.151,109.128C299.52,109.048 300.761,108.861 300.908,108.714C301.262,108.36 301.877,108.864 301.877,109.509C301.877,109.773 301.991,110.06 302.13,110.147C302.269,110.233 302.374,110.627 302.363,111.022C302.352,111.417 302.433,112.366 302.543,113.13C302.733,114.441 302.712,114.519 302.17,114.519C301.854,114.519 301.531,114.311 301.452,114.056C301.373,113.801 301.195,113.381 301.056,113.121C300.899,112.83 300.896,112.481 301.047,112.212C301.292,111.773 300.973,110.894 300.421,110.488C300.053,110.217 299.971,110.237 299.293,110.759C298.746,111.18 298.715,111.332 298.937,112.518C299.219,114.028 299.095,114.519 298.432,114.519C298.08,114.519 297.898,114.224 297.741,113.395L297.741,113.395ZM291.924,104.078C291.572,103.331 291.91,102.613 292.614,102.613C292.889,102.613 293.183,102.501 293.268,102.364C293.353,102.226 293.957,102.034 294.61,101.936C295.263,101.838 295.856,101.663 295.928,101.547C296,101.431 296.534,101.256 297.115,101.157C297.697,101.059 298.172,100.87 298.172,100.738C298.172,100.279 299.369,100.498 299.692,101.015C300.089,101.651 299.861,102.348 299.255,102.348C299.009,102.348 298.694,102.458 298.556,102.591C298.418,102.725 297.604,102.962 296.747,103.118C295.89,103.274 295.057,103.508 294.895,103.638C294.733,103.768 294.184,103.962 293.674,104.068C293.165,104.174 292.628,104.358 292.481,104.476C292.324,104.601 292.094,104.437 291.924,104.078ZM194.508,101.214C194.575,100.535 194.764,100.346 195.712,100.001C196.837,99.593 196.837,99.593 196.837,98.233C196.837,96.903 196.819,96.872 196.043,96.85C195.607,96.838 195.249,96.948 195.249,97.096C195.249,97.675 193.309,99.691 192.491,99.961C191.453,100.303 191.047,100.167 190.377,99.252C189.658,98.271 189.737,96.223 190.539,95.045C190.874,94.553 191.35,94.149 191.596,94.148C191.842,94.147 192.117,94.027 192.207,93.881C192.316,93.705 192.536,93.704 192.86,93.878C193.733,94.345 192.899,95.968 191.775,95.99C191.248,96.001 190.958,97.248 191.323,97.93C191.661,98.562 192.67,98.414 192.857,97.704C193.008,97.134 193.362,96.664 194.453,95.589C194.994,95.057 195.279,94.97 196.041,95.106C197.064,95.289 197.895,95.885 197.895,96.437C197.895,96.632 198.022,96.793 198.178,96.793C198.34,96.793 198.389,97.018 198.292,97.322C198.185,97.661 198.245,97.851 198.46,97.851C198.72,97.851 198.724,97.921 198.477,98.168C198.303,98.343 198.16,98.744 198.16,99.059C198.16,99.374 197.922,99.934 197.631,100.304C197.34,100.674 197.102,101.107 197.102,101.266C197.102,101.425 196.87,101.555 196.588,101.555C196.306,101.555 196.01,101.659 195.931,101.787C195.853,101.914 195.482,102.018 195.108,102.018C194.508,102.018 194.437,101.922 194.508,101.214L194.508,101.214ZM290.774,100.118C290.52,99.644 290.5,99.36 290.702,99.116C290.857,98.929 291.008,98.657 291.038,98.512C291.184,97.797 291.55,97.141 292.057,96.685C292.364,96.408 292.616,95.976 292.616,95.725C292.616,95.474 292.795,95.121 293.013,94.94C293.231,94.759 293.41,94.506 293.41,94.378C293.41,94.058 292.421,94.085 292.219,94.411C292.129,94.556 291.825,94.675 291.542,94.675C291.26,94.675 291.029,94.794 291.029,94.94C291.029,95.085 290.865,95.205 290.664,95.205C290.464,95.205 290.151,95.383 289.97,95.601C289.448,96.23 288.726,96.082 288.531,95.306C288.435,94.925 288.393,94.58 288.436,94.541C288.8,94.207 292.223,92.559 292.551,92.559C292.782,92.559 293.159,92.392 293.389,92.188C293.885,91.748 295.521,91.272 295.99,91.432C296.171,91.494 296.32,91.748 296.32,91.996C296.32,92.756 294.678,95.659 294.012,96.078C293.826,96.194 293.674,96.482 293.674,96.718C293.674,96.954 293.477,97.365 293.237,97.631C292.825,98.086 292.833,98.115 293.369,98.115C293.682,98.115 293.939,97.996 293.939,97.85C293.939,97.705 294.17,97.586 294.453,97.586C294.735,97.586 295.04,97.467 295.13,97.321C295.22,97.176 295.512,97.057 295.778,97.057C296.045,97.057 296.332,96.878 296.416,96.66C296.642,96.07 298.437,96.212 298.437,96.82C298.437,97.322 296.68,98.638 295.993,98.65C295.809,98.653 295.361,98.889 294.997,99.173C294.634,99.458 294.074,99.693 293.754,99.697C293.434,99.7 293.076,99.867 292.96,100.067C292.844,100.268 292.384,100.51 291.939,100.606C291.253,100.754 291.074,100.679 290.774,100.118L290.774,100.118ZM197.631,93.22C197.45,93.002 197.094,92.823 196.84,92.823C196.587,92.823 196.076,92.585 195.706,92.294C195.336,92.003 194.873,91.765 194.676,91.765C194.479,91.765 194.167,91.522 193.982,91.226C193.797,90.93 193.349,90.575 192.987,90.437C192.394,90.211 192.362,90.128 192.665,89.587C192.849,89.257 193.009,88.959 193.019,88.924C193.056,88.803 196.689,90.732 196.829,90.946C197.103,91.368 198.566,91.923 199.148,91.827C199.509,91.767 199.907,91.376 200.171,90.821C200.569,89.981 200.569,89.863 200.169,89.251C199.93,88.888 199.588,88.59 199.408,88.59C199.228,88.59 198.932,88.352 198.751,88.061C198.569,87.77 198.184,87.532 197.895,87.532C197.607,87.532 197.222,87.294 197.04,87.002C196.859,86.711 196.519,86.473 196.285,86.473C195.822,86.473 194.985,85.672 194.985,85.228C194.985,85.075 195.167,84.8 195.389,84.616C195.719,84.342 195.972,84.372 196.778,84.782C197.32,85.057 197.919,85.491 198.109,85.746C198.299,86 198.562,86.209 198.692,86.209C199.104,86.209 200.818,87.476 201.389,88.202C202.06,89.055 202.12,90.779 201.503,91.461C201.264,91.725 201.148,92.019 201.244,92.115C201.34,92.21 201.096,92.588 200.701,92.953C199.872,93.722 198.17,93.87 197.631,93.22L197.631,93.22ZM287.591,93.299C287.59,93.052 287.383,92.734 287.131,92.593C286.703,92.354 286.712,92.261 287.256,91.191C287.578,90.558 287.722,90.005 287.578,89.956C287.434,89.906 287.084,89.356 286.8,88.732C286.249,87.523 285.637,87.194 284.399,87.442C283.843,87.553 283.6,87.46 283.38,87.048C282.983,86.307 283.011,86.209 283.62,86.209C283.911,86.209 284.149,86.105 284.149,85.978C284.149,85.851 284.74,85.669 285.462,85.574C286.183,85.478 286.846,85.282 286.935,85.138C287.024,84.995 287.186,84.933 287.296,85C287.405,85.068 288.32,84.951 289.328,84.74C291.639,84.257 291.726,84.259 291.924,84.82C292.014,85.074 292.15,85.411 292.226,85.567C292.302,85.723 292.062,86.297 291.692,86.842C291.322,87.387 291.079,87.928 291.15,88.044C291.222,88.16 291.045,88.468 290.758,88.728C290.47,88.988 290.235,89.343 290.235,89.516C290.235,89.689 289.997,90.046 289.706,90.31C289.415,90.573 289.177,90.94 289.177,91.126C289.177,91.311 288.992,91.647 288.767,91.872C288.542,92.097 288.186,92.611 287.975,93.015C287.725,93.495 287.592,93.593 287.591,93.299L287.591,93.299ZM288.912,88.499C288.912,88.303 289.138,87.938 289.415,87.688C289.989,87.168 290.292,86.275 289.964,86.072C289.842,85.997 289.676,86.043 289.595,86.174C289.513,86.306 289.029,86.492 288.518,86.588C287.449,86.788 287.47,86.735 287.972,87.937C288.353,88.847 288.912,89.182 288.912,88.499ZM202.592,86.081C202.191,85.729 201.864,85.324 201.864,85.181C201.864,85.038 201.623,84.845 201.328,84.751C201.033,84.658 200.603,84.292 200.371,83.94C200.14,83.587 199.861,83.298 199.75,83.298C199.64,83.298 199.106,82.892 198.565,82.396C197.764,81.663 197.616,81.379 197.773,80.875C197.88,80.534 198.04,80.196 198.129,80.123C198.219,80.051 198.751,79.42 199.312,78.722C199.873,78.025 200.603,77.276 200.935,77.058C201.476,76.704 201.635,76.711 202.488,77.136C203.09,77.436 203.444,77.804 203.453,78.139C203.478,78.999 204.046,79.46 205.128,79.494C205.686,79.512 206.324,79.708 206.546,79.93C207.052,80.435 207.331,82.63 206.922,82.883C206.759,82.983 206.627,83.267 206.627,83.515C206.627,83.762 206.388,84.113 206.097,84.295C205.806,84.477 205.568,84.755 205.568,84.914C205.568,85.291 204.014,86.74 203.622,86.729C203.456,86.724 202.992,86.433 202.592,86.081L202.592,86.081ZM205.161,83.162C205.983,81.91 205.943,81.467 204.973,81.059C204.073,80.681 203.452,80.899 203.452,81.593C203.452,81.784 203.226,82.011 202.951,82.099C202.108,82.366 202.115,83.184 202.968,84.057C203.703,84.808 203.774,84.828 204.195,84.403C204.441,84.154 204.876,83.596 205.161,83.162L205.161,83.162ZM201.541,81.564C201.864,81.337 202.129,80.978 202.129,80.766C202.129,80.554 202.275,80.146 202.454,79.859C202.72,79.433 202.705,79.263 202.369,78.928C201.831,78.389 201.086,78.681 200.152,79.797C199.46,80.623 199.447,80.691 199.858,81.319C200.358,82.081 200.725,82.134 201.541,81.564L201.541,81.564ZM281.393,84.749C280.893,84.372 280.893,84.355 281.388,83.766C281.664,83.436 282.236,82.831 282.658,82.422C283.327,81.772 283.388,81.595 283.131,81.032C282.97,80.678 282.665,80.388 282.453,80.388C282.241,80.388 282.002,80.179 281.921,79.924C281.763,79.426 280.71,78.644 280.71,79.026C280.71,79.33 278.954,81.184 278.677,81.173C278.558,81.168 278.245,81.001 277.98,80.801C277.328,80.306 277.602,79.89 280.597,76.827C282.962,74.409 283.01,74.377 283.706,74.742C284.095,74.946 284.414,75.167 284.414,75.233C284.414,75.299 283.888,75.864 283.246,76.488C281.932,77.765 281.944,77.901 283.515,79.472C284.413,80.37 284.943,80.622 284.943,80.151C284.943,80.021 285.289,79.545 285.711,79.093C286.887,77.833 287.793,78.064 287.468,79.541C287.38,79.942 287.044,80.39 286.721,80.537C286.398,80.684 286.158,80.932 286.187,81.087C286.217,81.243 285.949,81.527 285.592,81.718C285.235,81.909 284.943,82.174 284.943,82.306C284.943,82.619 282.426,85.153 282.127,85.142C282.003,85.137 281.672,84.961 281.393,84.749L281.393,84.749ZM208.624,79.291C208.235,79.187 207.742,78.957 207.529,78.781C207.191,78.5 207.194,78.402 207.556,78.002C207.871,77.655 208.249,77.576 209.126,77.675C210.078,77.782 210.368,77.705 210.769,77.237C211.323,76.59 211.458,75.65 211.065,75.165C210.763,74.792 209.598,74.997 209.082,75.514C208.58,76.015 206.697,76.248 205.879,75.909C205.218,75.635 204.631,74.736 204.485,73.773C204.341,72.818 205.332,71.496 206.814,70.669C207.516,70.277 208.914,70.504 209.517,71.107C209.908,71.499 209.874,71.567 209.091,71.952C208.562,72.212 208.146,72.277 207.992,72.123C207.838,71.969 207.677,71.984 207.567,72.163C207.469,72.321 207.172,72.45 206.906,72.45C206.463,72.45 206.11,73.116 206.101,73.972C206.095,74.483 207.789,74.371 208.509,73.814C209.459,73.078 210.419,72.932 211.329,73.386C212.345,73.893 212.977,74.851 212.977,75.884C212.977,76.876 211.95,78.528 211.331,78.533C211.053,78.535 210.931,78.678 211.017,78.902C211.186,79.342 209.712,79.582 208.624,79.291L208.624,79.291ZM274.673,77.549C274.19,77.49 273.582,77.241 273.323,76.996C272.235,75.971 271.114,75.096 270.888,75.096C270.576,75.096 270.89,73.725 271.283,73.373C271.822,72.891 272.772,71.421 272.772,71.07C272.772,70.88 273.011,70.577 273.302,70.395C273.593,70.213 273.831,69.906 273.831,69.711C273.831,69.517 274.069,69.142 274.36,68.879C274.651,68.615 274.889,68.239 274.889,68.044C274.889,67.535 275.261,67.604 275.815,68.217C276.078,68.508 276.444,68.746 276.628,68.746C276.811,68.746 277.001,68.84 277.05,68.956C277.098,69.071 277.585,69.502 278.13,69.913C278.676,70.324 279.122,70.878 279.122,71.143C279.122,71.408 279.241,71.699 279.387,71.789C279.718,71.994 279.736,73.425 279.41,73.627C279.277,73.709 279.088,74.252 278.99,74.833C278.892,75.414 278.702,75.89 278.568,75.89C278.435,75.89 278.066,76.188 277.75,76.551C277.434,76.915 277.018,77.213 276.826,77.213C276.634,77.213 276.477,77.332 276.477,77.477C276.477,77.743 276.301,77.75 274.672,77.549L274.673,77.549ZM276.633,75.23C276.983,74.905 277.27,74.451 277.27,74.222C277.27,73.992 277.374,73.74 277.501,73.662C277.627,73.584 277.804,73.153 277.894,72.705C278.071,71.823 277.568,71.103 276.146,70.204C275.506,69.799 275.418,69.793 275.418,70.157C275.418,70.385 275.121,70.892 274.757,71.285C274.393,71.677 274.095,72.156 274.095,72.347C274.095,72.539 273.854,72.826 273.559,72.984C273.264,73.141 273.095,73.389 273.185,73.534C273.274,73.678 273.208,73.965 273.037,74.17C272.716,74.556 272.88,75.096 273.317,75.096C273.454,75.096 273.806,75.336 274.099,75.629C274.738,76.268 275.671,76.121 276.633,75.23L276.633,75.23ZM215.093,74.832C215.093,74.686 214.915,74.567 214.696,74.567C214.478,74.567 214.299,74.413 214.299,74.224C214.299,74.035 213.764,73.065 213.109,72.068C212.454,71.071 211.918,70.201 211.918,70.134C211.918,70.068 211.551,69.549 211.102,68.983C210.653,68.416 210.415,67.952 210.573,67.952C210.731,67.952 210.86,67.774 210.86,67.556C210.86,66.989 212.08,67.046 212.288,67.622C212.489,68.176 212.903,68.868 213.698,69.974C214.021,70.425 214.408,71.077 214.557,71.424C214.952,72.343 215.444,73.082 215.821,73.323C216.24,73.592 216.248,74.365 215.834,74.779C215.448,75.165 215.093,75.19 215.093,74.832L215.093,74.832ZM217.489,72.888C217.335,72.735 217.21,72.453 217.21,72.262C217.21,71.939 216.932,71.303 216.367,70.334C216.24,70.115 216.066,69.728 215.981,69.474C215.895,69.219 215.72,69.011 215.592,69.011C215.463,69.011 215.358,68.852 215.358,68.659C215.358,68.144 214.124,65.79 213.719,65.534C213.46,65.37 213.489,65.314 213.836,65.311C214.091,65.308 214.3,65.217 214.302,65.108C214.304,64.874 215.582,64.248 216.059,64.248C216.241,64.248 216.497,64.056 216.629,63.821C217.013,63.134 219.563,63.23 220.149,63.953C220.398,64.261 220.707,64.513 220.834,64.513C221.215,64.513 222.585,67.355 222.416,67.794C222.33,68.018 222.354,68.258 222.469,68.329C222.784,68.524 222.496,70.009 222.076,70.358C221.873,70.526 221.7,70.797 221.691,70.961C221.663,71.45 217.815,73.215 217.489,72.888L217.489,72.888ZM219.894,70.598C220.47,70.598 221.196,68.901 221.013,67.984C220.928,67.56 220.363,66.65 219.757,65.961C218.747,64.814 218.583,64.724 217.8,64.896C217.33,65 216.945,65.194 216.945,65.328C216.945,65.462 216.707,65.571 216.416,65.571C215.818,65.571 215.786,65.654 216.132,66.302C216.267,66.555 216.445,66.94 216.527,67.159C216.675,67.548 216.817,67.817 217.435,68.879C217.829,69.555 218.182,70.332 218.385,70.965C218.533,71.429 218.577,71.434 219.022,71.031C219.285,70.793 219.677,70.598 219.894,70.598L219.894,70.598ZM261.389,69.664C261.117,69.336 261.121,69.123 261.412,68.54C261.609,68.144 261.777,67.68 261.785,67.508C261.793,67.336 261.887,67.108 261.994,67.001C262.101,66.894 262.189,66.602 262.189,66.353C262.189,66.104 262.368,65.752 262.586,65.571C262.804,65.39 262.983,65.032 262.983,64.775C262.983,64.519 263.161,63.968 263.378,63.551C263.595,63.134 263.774,62.585 263.775,62.33C263.778,61.59 265.176,61.758 266.51,62.658C267.155,63.094 268.098,63.54 268.606,63.651C269.43,63.83 269.506,63.916 269.305,64.453C268.972,65.347 268.341,65.461 267.596,64.762C267.238,64.425 266.738,64.128 266.485,64.101C266.232,64.074 265.822,63.966 265.573,63.861C265.227,63.715 265.035,63.878 264.754,64.555C264.396,65.42 264.405,65.449 265.207,65.896C265.657,66.147 266.353,66.501 266.753,66.682C267.584,67.057 267.6,67.111 267.09,67.785C266.726,68.265 266.684,68.263 265.56,67.719C264.924,67.411 264.33,67.159 264.241,67.159C263.858,67.159 263.247,68.039 263.247,68.592C263.247,69.199 262.514,70.069 262.002,70.069C261.85,70.069 261.574,69.887 261.389,69.664L261.389,69.664ZM224.766,69.3C224.5,68.87 224.84,60.518 225.138,60.159C225.297,59.966 225.731,59.751 226.101,59.68C226.628,59.58 226.825,59.688 227.012,60.18C227.143,60.526 227.371,60.809 227.517,60.809C227.663,60.809 227.858,61.106 227.949,61.468C228.04,61.831 228.221,62.062 228.351,61.982C228.481,61.901 228.697,62.11 228.83,62.446C228.963,62.783 229.439,63.452 229.888,63.934C230.337,64.416 230.704,64.915 230.704,65.043C230.704,65.172 230.912,65.434 231.167,65.626C231.421,65.818 231.773,66.23 231.948,66.543C232.21,67.011 232.194,67.139 231.86,67.267C231.083,67.566 230.647,67.418 229.881,66.599C229.33,66.008 229.018,65.85 228.783,66.039C228.602,66.185 228.038,66.391 227.529,66.497C226.3,66.754 225.848,67.124 226.218,67.57C226.42,67.814 226.41,68.056 226.182,68.422C225.768,69.084 224.947,69.593 224.766,69.3ZM227.837,64.987L228.515,64.667L227.57,63.401C227.05,62.705 226.527,62.234 226.407,62.353C226.116,62.644 226.034,64.56 226.294,64.976C226.555,65.391 226.973,65.394 227.837,64.987L227.837,64.987ZM255.729,68.019C255.62,67.909 255.451,67.81 255.354,67.797C254.877,67.736 254.134,67.282 253.545,66.692C253.004,66.152 252.884,65.757 252.849,64.416C252.782,61.764 252.972,60.792 253.646,60.351C253.979,60.133 254.252,59.804 254.252,59.621C254.252,58.901 258.103,58.906 258.646,59.626C258.808,59.84 259.135,60.015 259.374,60.015C259.613,60.015 259.808,60.188 259.808,60.399C259.808,60.61 259.99,60.884 260.212,61.009C260.501,61.171 260.619,61.681 260.627,62.808C260.648,65.76 260.099,66.947 258.259,67.932C257.649,68.258 256.024,68.314 255.729,68.019L255.729,68.019ZM258.276,65.815C258.806,65.105 259.193,62.215 258.824,61.726C257.236,59.622 254.687,60.377 254.395,63.039C254.241,64.432 254.679,66.1 255.198,66.1C255.37,66.1 255.645,66.264 255.811,66.463C256.252,66.995 257.674,66.621 258.276,65.815ZM233.349,65.984C233.349,65.628 233.238,65.269 233.102,65.185C232.965,65.101 232.861,64.826 232.87,64.574C232.897,63.793 232.521,60.433 232.359,60.015C232.275,59.797 232.18,59.301 232.148,58.913C232.074,58.008 232.547,57.833 235.625,57.627C237.928,57.473 238.84,58.117 239.007,60.015C239.075,60.795 238.387,62.128 237.914,62.13C237.334,62.133 237.554,62.573 238.616,63.533C239.184,64.046 239.728,64.715 239.824,65.019C239.921,65.322 240.118,65.571 240.262,65.571C240.406,65.571 240.454,65.685 240.368,65.824C240.282,65.963 240.049,66.015 239.85,65.939C239.651,65.862 239.403,65.938 239.298,66.107C239.111,66.41 238.412,65.783 237.156,64.186C236.537,63.399 235.032,62.571 234.649,62.807C234.487,62.907 234.454,63.315 234.566,63.81C234.67,64.27 234.766,65.092 234.78,65.637C234.803,66.549 234.746,66.63 234.077,66.63C233.482,66.63 233.349,66.512 233.349,65.984L233.349,65.984ZM235.883,61.306C235.962,61.178 236.317,61.073 236.672,61.073C237.054,61.073 237.318,60.92 237.318,60.698C237.318,60.492 237.375,60.164 237.443,59.97C237.588,59.563 235.872,58.662 235.545,58.974C235.429,59.085 235.036,59.216 234.672,59.265C234.185,59.33 233.997,59.527 233.959,60.015C233.874,61.102 234.358,61.803 235.096,61.662C235.449,61.595 235.803,61.434 235.883,61.306ZM243.942,66.106C243.729,65.974 243.528,65.413 243.497,64.859C243.351,62.283 243.085,61.214 242.365,60.298C241.957,59.779 241.542,59.096 241.444,58.782C241.347,58.468 241.092,58.066 240.88,57.89C240.317,57.423 240.375,56.734 240.956,56.978C241.211,57.085 241.647,57.196 241.926,57.225C242.204,57.254 242.528,57.536 242.645,57.852C242.762,58.169 242.98,58.427 243.131,58.427C243.281,58.427 243.404,58.653 243.404,58.928C243.404,59.204 243.582,59.498 243.801,59.581C244.019,59.665 244.197,59.923 244.197,60.155C244.197,60.386 244.304,60.509 244.435,60.429C244.774,60.219 245.785,58.22 245.785,57.758C245.785,57.482 246.085,57.369 246.816,57.369L247.847,57.369L246.936,59.148C246.435,60.126 245.842,61.128 245.619,61.376C245.348,61.674 245.193,62.452 245.154,63.702C245.093,65.707 244.666,66.554 243.942,66.106L243.942,66.106Z" style="fill:rgb(9,0,255);fill-rule:nonzero;"/>
        </g>
    </g>
</svg>
